<svg xmlns="http://www.w3.org/2000/svg" width="25" height="25" fill="none">
  <path fill="#FF4A00" d="M24.591 10.32h-7.334l5.154-5.154c-.397-.595-.793-.991-1.19-1.586a11.335 11.335 0 0 1-1.585-1.388l-5.153 5.154V.211A6.739 6.739 0 0 0 12.5.013a6.105 6.105 0 0 0-1.983.198v7.334L5.166 2.193A5.352 5.352 0 0 0 3.58 3.58c-.396.595-.99.991-1.387 1.586l5.153 5.153H.211l-.198 1.983a6.105 6.105 0 0 0 .198 1.982h7.334l-5.351 5.351a10.623 10.623 0 0 0 2.973 2.973l5.153-5.153v7.334c.647.164 1.316.23 1.982.198a6.106 6.106 0 0 0 1.982-.198v-7.333l5.154 5.154a5.352 5.352 0 0 0 1.585-1.388c.51-.484.975-1.015 1.388-1.585l-5.154-5.155h7.334c.164-.647.231-1.315.199-1.982a7.432 7.432 0 0 0-.199-2.18Zm-9.118 1.982a10.05 10.05 0 0 1-.396 2.577c-.82.32-1.7.456-2.577.396a10.05 10.05 0 0 1-2.577-.396 5.947 5.947 0 0 1-.397-2.577c.02-.873.153-1.74.397-2.577.819-.322 1.699-.457 2.577-.397.872.02 1.739.153 2.577.397a11.6 11.6 0 0 1 .396 2.577Z" opacity=".9"/>
</svg>
