<svg width="150" height="142" viewBox="0 0 150 142" fill="none" xmlns="http://www.w3.org/2000/svg">
<path d="M22.7018 81.9083C17.2105 79.484 12.5213 76.1307 8.64543 71.6919C4.09537 66.481 1.70779 60.3052 0.649572 53.5797C-1.27489 41.3486 0.984485 30.0261 8.66484 20.1177C16.9915 9.3754 27.8806 2.65318 41.487 0.627508C48.8924 -0.474986 56.2743 -0.315164 63.2675 2.6592C72.408 6.54686 80.0185 12.4275 85.7425 20.5975C88.5411 24.592 90.7554 28.867 92.1399 33.5423C92.3229 34.1604 92.2519 34.8528 92.3082 35.6471C89.0142 35.3493 86.5217 36.7265 84.3336 38.626C83.4801 39.3668 82.8082 39.9528 81.5844 39.8685C80.5334 39.7961 79.8173 39.4719 79.1848 38.6233C75.5281 33.7169 70.5977 30.719 64.6027 29.6265C62.4325 29.231 60.1351 29.423 57.9022 29.5098C56.7159 29.556 56.1709 30.3188 56.1737 31.6226C56.1827 35.6705 57.9396 39.0395 60.1738 42.2229C62.8579 46.047 66.4608 48.7264 70.7969 50.5008C73.157 51.4666 75.5171 52.4736 77.7495 53.6928C79.4561 54.6249 80.9014 55.9479 81.8129 57.7771C82.3605 58.8761 82.2382 59.3961 81.0017 59.2171C79.3778 58.9821 77.7227 58.5715 76.2324 57.9032C73.9329 56.8721 71.7255 55.6202 69.5429 54.3533C62.3707 50.1901 56.6637 44.7402 53.9344 36.6797C53.7261 36.0647 53.1373 35.4875 52.5818 35.0912C45.5279 30.0582 37.619 31.3158 31.4505 35.7463C28.3798 37.9518 27.0211 41.4406 26.0911 45.0111C24.7225 50.265 25.1585 55.3532 27.7464 60.1785C31.7593 67.6606 41.1856 67.5665 46.1836 62.2566C49.0158 59.2477 48.9746 53.4151 46.2399 50.2166C43.4554 46.9599 40.0082 45.2289 35.832 44.7117C35.5732 44.6797 35.2996 44.6675 35.0645 44.5704C34.7704 44.4489 34.5091 44.249 34.2336 44.0829C34.4435 43.7918 34.5883 43.3803 34.8734 43.2284C37.6695 41.7382 40.6747 41.3885 43.8209 41.4533C53.9638 41.6619 61.4417 51.9361 60.7554 61.66C60.1581 70.1214 55.9515 76.1669 49.038 80.6129C41.1509 85.6851 32.7848 85.3873 24.2498 82.514C23.757 82.3481 23.28 82.1359 22.7018 81.9083Z" fill="#FFCA0A"/>
<path d="M77.6822 117.674C69.2367 122.847 65.4271 130.767 63.8848 140.072C61.98 138.974 58.5994 127.365 58.291 121.643C57.939 115.114 58.5361 108.745 61.1183 102.633C55.8951 108.62 54.5253 116.122 52.5652 123.833C52.0535 123.296 51.5339 122.99 51.3863 122.559C49.5313 117.14 48.7787 111.565 49.3003 105.861C49.5349 103.294 49.9979 100.749 50.4113 97.809C48.9486 99.8192 47.6677 101.58 46.3867 103.34C46.1914 103.25 45.9961 103.16 45.8008 103.07C46.1719 100.669 46.3739 98.228 46.9474 95.876C48.3637 90.0683 51.0713 84.9302 55.3834 80.6704C60.5485 75.568 63.4914 69.3472 64.5027 62.2178C64.7202 60.6839 64.7337 59.1175 64.777 57.5643C64.8289 55.7007 65.7358 55.0966 67.3947 55.8925C70.3258 57.2989 73.2663 58.6871 76.1704 60.1467C76.5823 60.3538 76.9038 60.8772 77.1089 61.3256C77.776 62.7839 78.3697 64.2753 79.0836 65.9725C74.4828 70.4148 70.9647 75.7435 72.1826 82.9216C72.5212 84.9176 73.2789 86.8394 74.8157 88.5374C75.0936 86.7152 75.2734 85.1237 75.6063 83.5643C75.7317 82.977 76.0895 82.3128 76.5519 81.9449C78.2268 80.6123 79.7392 81.1081 80.6299 83.1336C82.4544 87.2829 85.2992 90.5947 89.1375 93.0187C91.9001 94.7634 94.8554 95.2417 97.9303 93.8217C98.3652 93.6208 98.6898 93.1843 99.0655 92.8569C98.7257 92.5189 98.4442 92.0662 98.0365 91.8616C95.6016 90.64 93.7723 88.7567 92.2469 86.588C90.1649 83.6279 88.3747 80.5021 87.5288 76.8276C87.9944 77.2792 88.4629 77.728 88.9253 78.1828C91.9903 81.1979 95.1628 84.0186 99.6509 84.7719C103.515 85.4205 107.212 84.7938 110.726 83.2465C112.659 82.3958 114.517 81.3036 116.243 80.087C117.77 79.0101 119.384 78.5131 121.187 78.4692C122.796 78.43 124.408 78.4301 126.018 78.472C127.055 78.499 127.505 78.105 127.508 77.0426C127.514 74.742 127.719 74.7717 130.061 74.8941C134.377 75.1198 138.746 75.7295 142.954 74.0892C143.237 73.9791 143.543 73.9096 143.8 73.7572C144.637 73.2595 145.592 72.6315 145.187 71.573C144.896 70.8118 144.142 70.0625 143.401 69.6706C142.199 69.0353 140.818 68.7436 139.55 68.2185C138.65 67.8459 137.929 67.3042 137.909 66.1291C137.889 64.9863 138.482 64.3001 139.395 63.9285C140.547 63.4598 141.777 63.1788 143.4 62.6877C139.349 60.5442 135.608 58.4821 131.793 56.5644C125.911 53.6079 121.071 49.4985 117.032 44.3207C115.071 41.8065 112.753 39.536 110.406 37.3574C107.398 34.5648 103.614 33.6686 99.5835 33.635C99.0616 33.6307 98.5399 33.6029 98.0181 33.5891C95.5086 33.5227 95.3212 33.3474 94.9409 30.6899C103.066 29.2128 110.007 31.0088 115.528 37.5181C118.852 41.4378 122.401 45.2018 126.143 48.7269C128.057 50.5289 130.562 51.7516 132.901 53.0565C136.306 54.9557 139.828 56.6474 143.253 58.5131C146.084 60.0557 148.637 61.9335 149.724 65.1656C150.166 66.4764 150.106 67.7358 149.336 68.9778C148.951 69.5973 148.739 70.3738 148.643 71.1045C148.513 72.0844 148.642 73.0966 148.531 74.0805C148.399 75.2358 148.099 76.3248 146.925 76.9806C146.533 77.1991 146.062 77.7577 146.079 78.1406C146.212 81.0584 144.224 82.6599 142.062 83.6124C139.904 84.5638 137.401 85.0254 135.021 85.1432C130.03 85.3903 125.198 86.2861 120.473 87.8116C119.51 88.1225 118.594 88.7056 117.782 89.3255C115.453 91.1038 115.208 93.4914 115.825 96.1684C116.698 99.9658 118.893 103.024 121.186 106.044C121.444 106.385 121.697 106.73 121.955 107.072C123.03 108.496 123.007 108.419 121.351 108.923C116.486 110.404 111.419 110.469 106.436 111.113C100.663 111.858 94.8453 112.325 89.114 113.3C85.1063 113.982 81.2498 115.414 77.6822 117.674Z" fill="white"/>
<path d="M117.816 113.495C120.17 112.839 122.427 112.239 124.645 111.52C125.481 111.25 126.069 111.392 126.623 111.987C127.301 112.716 127.982 113.442 128.654 114.176C129.591 115.201 129.651 116.178 128.545 117.077C127.003 118.328 125.384 119.519 123.669 120.519C120.865 122.155 118.052 123.837 115.068 125.088C111.87 126.429 108.496 126.32 104.999 125.788C101.672 125.282 98.2066 125.628 94.8033 125.673C90.2132 125.733 85.9591 127.259 81.6851 128.715C78.1862 129.907 75.2814 131.971 72.9545 134.738C71.2273 136.792 69.8298 139.12 68.2864 141.327C68.131 141.549 67.982 141.775 67.8301 142C67.7006 141.973 67.5711 141.946 67.4416 141.919C67.5245 140.832 67.4971 139.723 67.7092 138.662C68.6391 134.007 70.1556 129.562 73.3005 125.885C76.7013 121.909 81.0551 119.303 86.0053 117.623C91.1504 115.878 96.4892 115.236 101.866 114.793C107.145 114.358 112.424 113.933 117.816 113.495Z" fill="white"/>
<path d="M95.3578 27.7698C94.0429 28.1028 93.7999 27.3376 93.4146 26.4221C89.8511 17.9558 83.7391 11.7195 75.9634 6.96584C75.5812 6.73218 75.2246 6.45705 74.8037 6.16479C76.0553 4.56606 77.7833 4.71918 79.3054 4.59729C90.4818 3.70232 99.2053 8.57418 104.231 18.6017C105.519 21.1707 106.462 23.9204 107.424 26.6356C107.966 28.1633 107.699 28.2752 106.132 28.1866C102.582 27.9857 99.0256 27.8956 95.3578 27.7698Z" fill="#FFCA0A"/>
<path d="M73.6994 48.3877C66.2028 45.4681 61.9578 41.0507 59.9345 34.0155C60.8051 34.1182 61.6287 34.1222 62.4008 34.3224C66.0908 35.2797 69.3692 36.7485 71.4176 40.3049C72.8299 42.7569 74.6698 44.9701 76.3739 47.2492C76.7885 47.8038 77.4205 48.198 78.1868 48.8718C76.4273 49.3452 75.1184 48.8297 73.6994 48.3877Z" fill="white"/>
<path d="M99.7819 56.118C98.2735 55.8457 96.8591 55.6145 95.36 55.3695C96.9905 52.9876 99.1255 51.1761 101.889 50.1222C105.617 48.7005 108.082 49.2798 110.54 52.339C111.856 53.9778 112.967 55.78 114.375 57.8028C113.703 57.7524 113.261 57.8164 112.9 57.6759C110.93 56.9107 108.992 56.8222 106.929 57.4265C104.42 58.1612 102.029 57.6698 99.7819 56.118Z" fill="#FFCA0A"/>
</svg>
