<svg xmlns="http://www.w3.org/2000/svg" xmlns:xlink="http://www.w3.org/1999/xlink" width="419" zoomAndPan="magnify" viewBox="0 0 314.25 78.749999" height="105" preserveAspectRatio="xMidYMid meet" version="1.0"><defs><g/><clipPath id="3a14bede07"><path d="M 0.125 8.742188 L 57.867188 8.742188 L 57.867188 66.019531 L 0.125 66.019531 Z M 0.125 8.742188 " clip-rule="nonzero"/></clipPath><clipPath id="a9c63e8e9a"><path d="M 17.320312 8.742188 L 40.671875 8.742188 C 50.167969 8.742188 57.867188 16.441406 57.867188 25.9375 L 57.867188 48.824219 C 57.867188 58.320312 50.167969 66.019531 40.671875 66.019531 L 17.320312 66.019531 C 7.820312 66.019531 0.125 58.320312 0.125 48.824219 L 0.125 25.9375 C 0.125 16.441406 7.820312 8.742188 17.320312 8.742188 Z M 17.320312 8.742188 " clip-rule="nonzero"/></clipPath><clipPath id="ab1e6fe0f7"><path d="M 2.242188 27 L 55.640625 27 L 55.640625 60.382812 L 2.242188 60.382812 Z M 2.242188 27 " clip-rule="nonzero"/></clipPath></defs><g clip-path="url(#3a14bede07)"><g clip-path="url(#a9c63e8e9a)"><path fill="#6c48ff" d="M 0.125 8.742188 L 57.867188 8.742188 L 57.867188 66.019531 L 0.125 66.019531 Z M 0.125 8.742188 " fill-opacity="1" fill-rule="nonzero"/></g></g><g clip-path="url(#ab1e6fe0f7)"><path fill="#ffffff" d="M 3.277344 35.871094 C 2.480469 35.050781 2.273438 34.054688 2.414062 33.296875 C 2.566406 32.453125 3.085938 31.546875 4.207031 30.996094 L 4.460938 32.375 C 3.214844 32.992188 3.328125 34.203125 4.714844 35.078125 L 20.5 45.042969 C 21.886719 45.917969 24.027344 46.132812 25.277344 45.515625 L 53.410156 31.652344 C 54.65625 31.039062 54.542969 29.828125 53.15625 28.949219 L 53.878906 27.585938 C 55.265625 28.460938 55.628906 29.789062 55.457031 30.730469 C 55.355469 31.289062 55.09375 31.875 54.601562 32.367188 C 55.402344 33.1875 55.605469 34.183594 55.46875 34.941406 C 55.367188 35.507812 55.097656 36.101562 54.59375 36.601562 C 55.410156 37.421875 55.621094 38.433594 55.484375 39.195312 C 55.378906 39.777344 55.101562 40.382812 54.578125 40.882812 C 55.398438 41.707031 55.605469 42.714844 55.46875 43.476562 C 55.3125 44.324219 54.792969 45.226562 53.675781 45.78125 C 53.675781 45.78125 25.539062 59.644531 25.539062 59.644531 C 24.042969 60.382812 21.453125 60.207031 19.785156 59.152344 C 19.785156 59.152344 4.003906 49.1875 4.003906 49.1875 C 2.613281 48.3125 2.25 46.988281 2.421875 46.046875 C 2.527344 45.464844 2.804688 44.859375 3.328125 44.359375 C 2.507812 43.535156 2.296875 42.527344 2.4375 41.765625 C 2.542969 41.195312 2.808594 40.601562 3.316406 40.105469 C 2.496094 39.28125 2.285156 38.269531 2.421875 37.507812 C 2.527344 36.949219 2.789062 36.363281 3.277344 35.871094 Z M 53.21875 41.730469 C 54.554688 42.605469 54.652344 43.792969 53.417969 44.398438 L 25.285156 58.261719 C 24.039062 58.878906 21.898438 58.667969 20.507812 57.789062 L 4.726562 47.824219 C 3.363281 46.964844 3.226562 45.78125 4.40625 45.15625 L 19.800781 54.875 C 21.46875 55.925781 24.058594 56.101562 25.554688 55.363281 Z M 53.242188 37.457031 C 54.570312 38.328125 54.664062 39.515625 53.433594 40.121094 L 25.300781 53.984375 C 24.050781 54.597656 21.914062 54.386719 20.523438 53.507812 L 4.742188 43.546875 C 3.390625 42.691406 3.246094 41.523438 4.386719 40.894531 L 19.785156 50.617188 C 21.453125 51.667969 24.042969 51.84375 25.542969 51.105469 Z M 53.269531 33.226562 C 54.558594 34.097656 54.636719 35.261719 53.421875 35.863281 L 25.285156 49.726562 C 24.039062 50.339844 21.898438 50.128906 20.511719 49.253906 L 4.726562 39.289062 C 3.390625 38.445312 3.234375 37.292969 4.335938 36.660156 L 19.773438 46.40625 C 21.441406 47.460938 24.03125 47.636719 25.53125 46.898438 Z M 53.269531 33.226562 " fill-opacity="1" fill-rule="evenodd"/></g><path fill="#ffffff" d="M 37.140625 15.871094 C 35.71875 14.972656 33.519531 14.753906 32.238281 15.382812 L 3.910156 29.34375 C 2.628906 29.976562 2.746094 31.21875 4.171875 32.121094 L 20.371094 42.347656 C 21.792969 43.246094 23.992188 43.464844 25.273438 42.832031 L 53.601562 28.871094 C 54.882812 28.242188 54.765625 26.996094 53.339844 26.097656 Z M 37.140625 15.871094 " fill-opacity="1" fill-rule="evenodd"/><g fill="#6c48ff" fill-opacity="1"><g transform="translate(70.013833, 54.33871)"><g><path d="M 30.679688 -15.011719 C 30.679688 -24.160156 24.691406 -30.515625 16.121094 -30.515625 C 7.546875 -30.515625 1.601562 -24.117188 1.601562 -15.011719 C 1.601562 -5.867188 7.507812 0.492188 16.078125 0.492188 C 24.691406 0.492188 30.679688 -5.90625 30.679688 -15.011719 Z M 25.144531 -15.011719 C 25.144531 -8.695312 21.617188 -4.554688 16.121094 -4.554688 C 10.625 -4.554688 7.097656 -8.613281 7.097656 -15.011719 C 7.097656 -21.410156 10.625 -25.472656 16.121094 -25.472656 C 21.617188 -25.472656 25.144531 -21.410156 25.144531 -15.011719 Z M 25.144531 -15.011719 "/></g></g></g><g fill="#6c48ff" fill-opacity="1"><g transform="translate(104.304942, 54.33871)"><g><path d="M 8.492188 0 L 8.492188 -21.246094 L 22.601562 0 L 27.769531 0 L 27.769531 -29.984375 L 22.601562 -29.984375 L 22.601562 -8.738281 L 8.53125 -29.984375 L 3.324219 -29.984375 L 3.324219 0 Z M 8.492188 0 "/></g></g></g><g fill="#6c48ff" fill-opacity="1"><g transform="translate(137.447558, 54.33871)"><g><path d="M 21.945312 0 L 21.945312 -4.839844 L 8.574219 -4.839844 L 8.574219 -12.796875 L 20.550781 -12.796875 L 20.550781 -17.433594 L 8.574219 -17.433594 L 8.574219 -25.144531 L 21.945312 -25.144531 L 21.945312 -29.984375 L 3.324219 -29.984375 L 3.324219 0 Z M 21.945312 0 "/></g></g></g><g fill="#6c48ff" fill-opacity="1"><g transform="translate(163.835667, 54.33871)"><g><path d="M 1.804688 -21.738281 C 1.804688 -17.71875 4.226562 -15.09375 8.820312 -13.988281 L 13.78125 -12.757812 C 16.941406 -12.019531 18.417969 -10.296875 18.417969 -7.671875 C 18.417969 -4.308594 15.667969 -2.214844 11.363281 -2.214844 C 7.34375 -2.214844 4.636719 -4.226562 4.472656 -7.300781 L 1.4375 -7.300781 C 1.804688 -2.503906 5.660156 0.492188 11.363281 0.492188 C 17.433594 0.492188 21.371094 -2.75 21.371094 -7.835938 C 21.371094 -11.8125 18.992188 -14.4375 14.398438 -15.546875 L 9.351562 -16.777344 C 6.277344 -17.554688 4.757812 -19.195312 4.757812 -21.78125 C 4.757812 -25.101562 7.464844 -27.234375 11.609375 -27.234375 C 15.300781 -27.234375 17.554688 -25.347656 17.882812 -22.027344 L 20.878906 -22.027344 C 20.425781 -26.949219 16.941406 -29.902344 11.648438 -29.902344 C 5.742188 -29.902344 1.804688 -26.660156 1.804688 -21.738281 Z M 1.804688 -21.738281 "/></g></g></g><g fill="#6c48ff" fill-opacity="1"><g transform="translate(188.979851, 54.33871)"><g><path d="M 0.492188 -26.660156 L 9.515625 -26.660156 L 9.515625 0 L 12.46875 0 L 12.46875 -26.660156 L 21.535156 -26.660156 L 21.535156 -29.367188 L 0.492188 -29.367188 Z M 0.492188 -26.660156 "/></g></g></g><g fill="#6c48ff" fill-opacity="1"><g transform="translate(213.05758, 54.33871)"><g><path d="M 3.363281 -10.214844 C 3.363281 -3.527344 7.464844 0.492188 14.273438 0.492188 C 20.960938 0.492188 25.0625 -3.570312 25.0625 -10.214844 L 25.0625 -29.367188 L 22.109375 -29.367188 L 22.109375 -10.335938 C 22.109375 -5.25 19.277344 -2.378906 14.273438 -2.378906 C 9.148438 -2.378906 6.316406 -5.167969 6.316406 -10.335938 L 6.316406 -29.367188 L 3.363281 -29.367188 Z M 3.363281 -10.214844 "/></g></g></g><g fill="#6c48ff" fill-opacity="1"><g transform="translate(243.534052, 54.33871)"><g><path d="M 12.511719 0 C 21.328125 0 27.195312 -5.90625 27.195312 -14.683594 C 27.195312 -23.460938 21.289062 -29.367188 12.429688 -29.367188 L 3.570312 -29.367188 L 3.570312 0 Z M 12.304688 -26.660156 C 19.566406 -26.660156 24.160156 -22.027344 24.160156 -14.683594 C 24.160156 -7.382812 19.566406 -2.707031 12.386719 -2.707031 L 6.523438 -2.707031 L 6.523438 -26.660156 Z M 12.304688 -26.660156 "/></g></g></g><g fill="#6c48ff" fill-opacity="1"><g transform="translate(274.543761, 54.33871)"><g><path d="M 10.378906 -12.265625 L 10.378906 0 L 13.332031 0 L 13.332031 -12.265625 L 23.175781 -29.367188 L 19.933594 -29.367188 L 12.757812 -16.695312 C 12.222656 -15.667969 12.222656 -15.667969 11.855469 -14.929688 C 11.566406 -15.585938 11.320312 -16.078125 10.992188 -16.695312 L 3.734375 -29.367188 L 0.410156 -29.367188 Z M 10.378906 -12.265625 "/></g></g></g></svg>