 <svg viewBox="0 0 24 24" xmlns="http://www.w3.org/2000/svg" width="24" height="24" fill="none"><style>@keyframes rotate{0%{transform:rotateZ(0)}to{transform:rotateZ(360deg)}}</style><path stroke="#0A0A30" stroke-width="1.5" d="M10.524 4.614a2 2 0 012.952 0l.459.502a2 2 0 001.565.648l.68-.03a2 2 0 012.087 2.087l-.03.68a2 2 0 00.648 1.564l.501.46a2 2 0 010 2.95l-.502.46a2 2 0 00-.648 1.565l.03.68a2 2 0 01-2.086 2.087l-.68-.03a2 2 0 00-1.565.648l-.46.501a2 2 0 01-2.95 0l-.46-.502a2 2 0 00-1.565-.648l-.68.03a2 2 0 01-2.087-2.086l.03-.68a2 2 0 00-.647-1.565l-.502-.46a2 2 0 010-2.95l.502-.46A2 2 0 005.764 8.5l-.03-.68A2 2 0 017.82 5.734l.68.03a2 2 0 001.564-.647l.46-.502z" style="animation:rotate 2s linear both infinite;transform-origin:center center"/><path stroke="#265BFF" stroke-linecap="round" stroke-linejoin="round" stroke-width="1.5" d="M13.873 10.004l-3.746 3.992"/><circle cx="10.127" cy="10.004" r="1.074" fill="#265BFF"/><circle cx="13.873" cy="13.995" r="1.074" fill="#265BFF"/></svg>