 <svg viewBox="0 0 24 24" xmlns="http://www.w3.org/2000/svg" width="24" height="24" fill="none"><style>@keyframes pulsate{0%,to{transform:scale(1)}50%{transform:scale(.9)}}</style><g style="animation:pulsate .5s ease-in-out infinite both;transform-origin:center center" stroke-width="1.5"><path stroke="#0A0A30" d="M11.515 6.269l.134.132a.5.5 0 00.702 0l.133-.132A4.44 4.44 0 0115.599 5c.578 0 1.15.112 1.684.33a4.41 4.41 0 011.429.939c.408.402.733.88.954 1.406a4.274 4.274 0 010 3.316 4.331 4.331 0 01-.954 1.405l-6.36 6.259a.5.5 0 01-.702 0l-6.36-6.259A4.298 4.298 0 014 9.333c0-1.15.464-2.252 1.29-3.064A4.439 4.439 0 018.401 5c1.168 0 2.288.456 3.114 1.269z"/><path stroke="#265BFF" stroke-linecap="round" stroke-linejoin="round" d="M15.5 7.5c.802.304 1.862 1.43 2 2"/></g></svg>