<?xml version="1.0" standalone="no"?>
<!DOCTYPE svg PUBLIC "-//W3C//DTD SVG 20010904//EN"
 "http://www.w3.org/TR/2001/REC-SVG-20010904/DTD/svg10.dtd">
<svg version="1.0" xmlns="http://www.w3.org/2000/svg"
 width="402.000000pt" height="402.000000pt" viewBox="0 0 402.000000 402.000000"
 preserveAspectRatio="xMidYMid meet">

<g transform="translate(0.000000,402.000000) scale(0.100000,-0.100000)"
fill="#000000" stroke="none">
<path d="M1725 3954 c-636 -98 -1184 -495 -1470 -1064 -144 -288 -206 -550
-206 -875 0 -187 17 -328 56 -485 201 -804 887 -1396 1714 -1480 710 -71 1422
264 1823 860 336 498 425 1125 241 1695 -96 299 -238 535 -458 763 -309 322
-697 522 -1136 586 -133 20 -437 20 -564 0z m609 -113 c663 -116 1219 -591
1435 -1227 78 -229 107 -429 98 -687 -14 -461 -201 -890 -532 -1223 -253 -254
-513 -405 -855 -497 -286 -77 -633 -77 -931 -2 -758 192 -1313 843 -1390 1630
-69 712 281 1401 903 1774 218 130 488 220 754 251 124 14 382 4 518 -19z"/>
<path d="M2250 2999 c-124 -20 -222 -94 -275 -205 -40 -85 -47 -129 -52 -366
l-5 -228 106 0 106 0 0 208 c0 245 9 291 70 352 76 76 226 76 301 1 59 -59 69
-109 69 -353 l0 -208 105 0 105 0 0 208 c-1 226 -11 297 -53 385 -40 80 -90
132 -160 166 -94 46 -199 59 -317 40z"/>
<path d="M1530 2595 l0 -395 100 0 100 0 0 395 0 395 -100 0 -100 0 0 -395z"/>
<path d="M1098 1970 c3 -57 1 -70 -11 -70 -9 0 -18 5 -20 10 -3 6 -4 5 -3 -2
2 -7 16 -13 32 -13 29 0 29 0 34 73 5 67 4 72 -15 72 -18 0 -20 -6 -17 -70z"/>
<path d="M1250 1993 c-11 -26 -26 -60 -34 -75 -13 -24 -13 -28 -1 -28 8 0 14
3 14 8 -4 24 4 32 31 32 27 0 35 -8 31 -32 0 -5 12 -8 28 -8 l28 0 -28 60
c-16 33 -29 64 -29 69 0 6 -5 13 -10 16 -6 3 -19 -15 -30 -42z m24 -29 c9 -23
8 -24 -14 -24 -22 0 -23 1 -14 24 8 20 20 20 28 0z"/>
<path d="M1415 1965 c0 -43 4 -75 10 -75 6 0 9 24 8 57 l-3 58 26 -57 c15 -32
29 -58 33 -58 3 0 18 28 34 63 l27 62 -2 -63 c-3 -60 -2 -62 22 -62 24 0 25 2
25 75 0 71 -1 75 -23 75 -17 0 -28 -12 -46 -52 l-24 -53 -17 40 c-10 22 -18
46 -18 53 0 6 -12 12 -26 12 -26 0 -26 -1 -26 -75z"/>
<path d="M1658 2028 c7 -7 12 -35 12 -63 0 -28 -5 -56 -12 -63 -9 -9 3 -12 55
-12 56 0 67 3 67 17 0 13 -3 14 -12 5 -7 -7 -25 -12 -40 -12 -25 0 -28 4 -28
31 0 30 2 31 30 26 22 -5 30 -3 30 8 0 11 -8 13 -30 9 -28 -6 -30 -5 -30 25 0
27 3 31 28 31 15 0 33 -5 40 -12 9 -9 12 -8 12 5 0 14 -11 17 -67 17 -52 0
-64 -3 -55 -12z"/>
<path d="M1846 2024 c-9 -8 -16 -18 -16 -20 0 -18 24 -43 50 -54 36 -15 42
-50 8 -50 -12 0 -30 7 -40 17 -10 9 -18 11 -18 5 0 -28 84 -44 108 -20 22 22
12 47 -28 73 -22 14 -40 32 -40 40 0 21 47 19 59 -2 9 -16 10 -16 11 -2 0 31
-67 40 -94 13z"/>
<path d="M2146 2021 c-10 -11 -18 -36 -18 -56 0 -49 25 -75 73 -75 47 0 79 30
79 75 0 18 -9 41 -20 53 -27 29 -90 30 -114 3z m82 -3 c7 -7 12 -30 12 -53 0
-44 -13 -65 -42 -65 -21 0 -38 29 -38 65 0 54 37 84 68 53z"/>
<path d="M2371 1980 c16 -33 29 -64 29 -69 0 -6 4 -12 10 -16 5 -3 19 18 32
47 l22 52 23 -53 c13 -30 25 -52 27 -50 2 2 19 37 38 77 23 49 30 72 21 72 -7
0 -13 -6 -13 -14 0 -7 -7 -31 -16 -52 l-16 -39 -18 45 c-10 25 -16 48 -13 53
2 4 -10 7 -28 7 -25 0 -29 -3 -20 -14 12 -14 -3 -76 -19 -76 -9 0 -36 69 -32
83 1 4 -11 7 -27 7 l-28 0 28 -60z"/>
<path d="M2648 2028 c16 -16 16 -110 0 -126 -9 -9 3 -12 55 -12 56 0 67 3 67
17 0 13 -3 14 -12 5 -7 -7 -25 -12 -40 -12 -25 0 -28 4 -28 31 0 30 2 31 30
26 22 -5 30 -3 30 8 0 11 -8 13 -30 9 -28 -6 -30 -5 -30 25 0 27 3 31 28 31
15 0 33 -5 40 -12 9 -9 12 -8 12 5 0 14 -11 17 -67 17 -52 0 -64 -3 -55 -12z"/>
<path d="M2825 1965 c0 -44 4 -75 10 -75 6 0 9 19 7 44 -7 80 0 83 47 17 25
-33 48 -61 52 -61 4 0 9 34 11 75 2 48 -1 75 -7 75 -7 0 -9 -15 -7 -34 7 -57
-2 -60 -36 -12 -22 31 -41 46 -55 46 -21 0 -22 -5 -22 -75z"/>
<path d="M1530 1628 c-1 -86 -19 -188 -41 -227 -37 -66 -115 -100 -232 -101
l-58 0 3 -92 3 -93 55 -3 c79 -5 207 16 266 42 65 30 118 85 154 160 36 76 50
154 50 273 l0 93 -100 0 -100 0 0 -52z"/>
<path d="M1920 1603 c1 -237 82 -400 233 -469 59 -27 69 -29 197 -29 126 0
139 2 193 27 73 34 99 55 144 114 59 77 86 169 91 312 l4 122 -105 0 -105 0
-4 -117 c-5 -140 -27 -199 -92 -242 -35 -23 -50 -26 -127 -26 -82 0 -89 2
-126 31 -68 55 -86 102 -91 236 l-4 118 -104 0 -104 0 0 -77z"/>
</g>
</svg>
