<svg xmlns="http://www.w3.org/2000/svg" xmlns:xlink="http://www.w3.org/1999/xlink" viewBox="0 0 500 500"><defs><clipPath id="freepik--clip-path--inject-30"><path d="M267.55,176.53s.56,7.06-1.41,11-9.89,7.91-16.67,11.58-16.38,3.11-20.33,9.32-3.67,16.66-3.67,16.66-6.22,9.61-11.3,18.08-7.91,17.23-1.41,22,14.4-2.26,18.64-9,8.19-14.4,8.19-14.4S245,268,243.54,275.09s-4.8,13.84-4.8,17,2.54,5.37,6.5,6.21,17.51,2,26.83,1.42,35.87-2.26,37-5.94,2.82-29.09,2.82-29.09,16.66,5.65,21.75-4.51,5.36-33,1.69-44.35-13-15.53-18.64-18.35-21.18-10.17-24-13.28S289,165.79,289,160.71s-.56-.28-5.93,3.67S267.55,176.53,267.55,176.53Z" style="fill:#fff;stroke:#263238;stroke-linecap:round;stroke-linejoin:round"></path></clipPath><clipPath id="freepik--clip-path-2--inject-30"><path d="M316.69,197.43c-4.4-2.21-14.82-7.16-20.53-10.7-1.88,5.64-7.4,18.6-18.44,18.6-10.18,0-13.17-9.52-14-14.85-3.38,3-9.11,5.88-14.21,8.64-6.77,3.67-16.38,3.11-20.33,9.32s-3.67,16.66-3.67,16.66-2.1,3.25-4.85,7.62c11.41-.57,19,9.05,19,9.05S245,268,243.54,275.09s-4.8,13.84-4.8,17,2.54,5.37,6.5,6.21,17.51,2,26.83,1.42,35.87-2.26,37-5.94,2.82-29.09,2.82-29.09l-1.69-22.31c14.19-9.38,24.11-2.81,27.36,0,.7-9.59-.1-20-2.23-26.56C331.66,204.49,322.34,200.25,316.69,197.43Z" style="fill:#92E3A9;stroke:#263238;stroke-linecap:round;stroke-linejoin:round"></path></clipPath><clipPath id="freepik--clip-path-3--inject-30"><path d="M212.38,249s-2.79,1.48-5,6.87-5,15.4-2.23,18.56,9.1.37,15-.37,30.63-15.22,34.71-17.64,7.43-3.34,8.73-5.57.93-10.21,1.11-14.11-.74-21.35-.74-21.35-1.3-4.27-3.53-3.9c0,0-2.6-1.48-3.15,0l-1.12,3s-2.41-.74-3,.56a16.49,16.49,0,0,0-.74,3.9s-2.78,1.3-2.78,3,.55,11.7.55,14.48-.37,7.06.56,8.91,1.86,3.53,1.86,3.53-13.56,1.86-19.31,1.86-15.78.18-17.64,1.11" style="fill:#fff;stroke:#263238;stroke-linecap:round;stroke-linejoin:round"></path></clipPath><clipPath id="freepik--clip-path-4--inject-30"><path d="M325.26,258c-8.91-5.75-27.48-1.3-33.42-1.67s-22.46-9.47-22.46-9.47,3.34-3.34,3.52-5.38,0-7.61,0-10.77.93-6.31,1.12-8.72-3-.75-3.53,0-1.86,8.16-1.86,8.16-1.67-5-1.67-5.56-.37-7.43-1.3-10.22-3.15,0-3.15,0c-.19-1.67-.75-3-2.05-3s-2.41,4.65-2.41,4.65c0-2.79-.93-2.6-1.86-1.68s-.92,7.06-.92,7.06l-1.12-1.67c-1.3-.37-2,1.67-2,3.53s.74,7.42.74,12.06a34.75,34.75,0,0,0,.56,7.06,28.46,28.46,0,0,0,4.08,9.1c3.16,4.64,13.74,10.39,20.24,15.4s25.62,13.37,35.09,14.86,16,5,18.19.93,6.31-24.14,4.27-30.82" style="fill:#fff;stroke:#263238;stroke-linecap:round;stroke-linejoin:round"></path></clipPath><clipPath id="freepik--clip-path-5--inject-30"><path d="M243.38,329a21.34,21.34,0,0,1-5.57-3.71c-2.22-2.23,0-7.8-3-10s-8.91-3-10,.38-1.86,5.57-4.09,6.31-4.82.74-8.91,2.6-4.08,8.54-4.08,8.54a113,113,0,0,1,23,5.57c10.77,4.08,15.59,1.85,15.59,1.85S246.73,333.05,243.38,329Z" style="fill:#fff;stroke:#263238;stroke-linecap:round;stroke-linejoin:round"></path></clipPath><clipPath id="freepik--clip-path-6--inject-30"><path d="M270.49,338.25c-4.83-1.12-5.2,0-16.71-.38s-24.13-4.45-24.13-4.45-1.08.16-3.74-1.07c-1.92,1.66-4.22,4.33-4.43,7.75a10.48,10.48,0,0,0,3.15,7.6c2,.53,3.93,1,5.76,1.31,8.17,1.49,18.19,5.2,23.39,7.43a32.42,32.42,0,0,0,13.37,3c4.08,0,2.49.61,5.47-.14s1.95-2.83,1.95-2.83a13.07,13.07,0,0,0,3.72-.74c2.22-.75,1.48-3.72,1.48-3.72a11.14,11.14,0,0,0,4.28-.69c2.27-1.19,2.27-3.69,1.29-6C283.86,341.82,275.32,339.36,270.49,338.25Z" style="fill:#fff;stroke:#263238;stroke-linecap:round;stroke-linejoin:round"></path></clipPath><clipPath id="freepik--clip-path-7--inject-30"><path d="M261.05,124s-7.06,6.49-6.49,13.55-1.7,11-.85,16.1,2,15,4,17.51,2.26,5.37,4.24,6.78,8.76,1.41,10.17-.85,16.38-11,17.51-14.12.85-3.95.85-3.95,9.88-5.93,8.47-11-5.37-7.06-7.63-5.36-2.54,2.54-2.54,2.54-5.91-3.89-4.78-7.56,4.66-4.93,3.53-9.17-9.58-2.12-18.57-1.43C261.87,127.56,264.2,121.4,261.05,124Z" style="fill:#fff;stroke:#263238;stroke-linecap:round;stroke-linejoin:round"></path></clipPath></defs><g id="freepik--background-simple--inject-30"><path d="M112.62,365.76c-18.4-6.17-34.18-17.41-43.79-38.38C52,290.55,78,249.89,106.43,236.85s68.28-15.35,69.82-36.07S144,147.07,171.65,121c23.3-22,57.58-29.64,88.57-32.17,51.59-4.22,98.34,5.64,130.23,49.37,14.08,19.31,28.23,46.24,24.42,71-6.14,39.9-33,56-25.32,79s35.29,15.35,46.8,44.5c6.57,16.63,2.72,33.08-13.76,41.46-18.74,9.53-41.13,4.83-61.17,4.57-31.87-.41-63.75-1.24-95.62-2.14q-40.05-1.11-80.1-2.52C161.32,373.29,136,373.6,112.62,365.76Z" style="fill:#92E3A9"></path><path d="M112.62,365.76c-18.4-6.17-34.18-17.41-43.79-38.38C52,290.55,78,249.89,106.43,236.85s68.28-15.35,69.82-36.07S144,147.07,171.65,121c23.3-22,57.58-29.64,88.57-32.17,51.59-4.22,98.34,5.64,130.23,49.37,14.08,19.31,28.23,46.24,24.42,71-6.14,39.9-33,56-25.32,79s35.29,15.35,46.8,44.5c6.57,16.63,2.72,33.08-13.76,41.46-18.74,9.53-41.13,4.83-61.17,4.57-31.87-.41-63.75-1.24-95.62-2.14q-40.05-1.11-80.1-2.52C161.32,373.29,136,373.6,112.62,365.76Z" style="fill:#fff;opacity:0.7000000000000001"></path></g><g id="freepik--Plants--inject-30"><path d="M445.91,211.21c-5.65-6.79-13.66,6.39-22.51,22.34-4.85,8.74-15.59,16.19-20.28,27.17-4.56,10.69-2.91,24.5-6.56,34.25-5.39,14.38-9.82,14.26-14.1,21.71-1.89-4.3-3.55-9.44-3.25-14.73.39-6.72,11.35-13.16,11.6-21.69C391,273,380.52,264,380.57,256c0-7.61,10.64-14.53,10.5-22.33s-11-16.26-11.4-23.83c-.41-8.15,9.64-15.87,8.91-23.14-.88-8.75-12.5-15.9-13.94-22.46-2.66-12.09-1.88-25.63-6.91-25.4-4.74.22-2,14.91-4.17,27.57-1.19,7-12.6,13.28-13.2,22.61-.5,7.82,9.82,17.66,9.65,26.43-.16,8.19-10.83,15.64-10.77,24.13s10.85,17.71,11.06,26c.23,8.76-10.12,16.66-9.8,24.61.17,4.06,2.35,8.06,4.79,11.89-3.05-4.1-7-8.32-8.52-13.17-2.22-6.94,1.23-15.8-1.57-22.56-3-7.33-11.95-11.67-15.58-17.41-4.85-7.65-6.84-17.85-12.63-19.71-8.92-2.88-7.57,8.32-4.11,22.28,1.83,7.4-1.11,17.78,2.73,27.24,3.29,8.12,12.92,14.47,17,22.83s2.93,19.4,7.2,26.94c3.56,6.27,9.4,10.57,14.17,14.46l.28.77a1.51,1.51,0,0,0,1.22.47,29.08,29.08,0,0,1,4.37,4.38c2.42,3.2-.28,9.45,1.27,11,4.26,4.29,4.48.78,4.22-2.93-.15-2.15,4.82-5.61,4.52-8.82a2.17,2.17,0,0,1,.93-.84c1.68-.38,9.36,6.12,10.4,4,.77-1.54-8.54-8-8-10,.38-1.41,6.91-.93,10-1.55a1.06,1.06,0,0,1,.24.23c.91,1.18,1.37,6.42,4,5.45,3.5-1.3,8.22-17.55,18.06-33.11,5.93-9.38,17.84-16.73,23.58-27.89s5.16-25.78,8.86-36.25C443.64,231.7,451.08,217.45,445.91,211.21ZM362.3,315.81c.42,7.93-2.27,11-4.84,13.77-1.58-9,4.59-9,1.53-20.8a13.42,13.42,0,0,0-1.24-3C360.09,309.36,362.14,312.74,362.3,315.81Zm3.93,26.78a2.09,2.09,0,0,1,.27,1.63c-1-.57-2-1.12-2.92-1.69C364.88,342.27,365.89,342.19,366.23,342.59Z" style="fill:#92E3A9"></path><path d="M445.91,211.21c-5.65-6.79-13.66,6.39-22.51,22.34-4.85,8.74-15.59,16.19-20.28,27.17-4.56,10.69-2.91,24.5-6.56,34.25-5.39,14.38-9.82,14.26-14.1,21.71-1.89-4.3-3.55-9.44-3.25-14.73.39-6.72,11.35-13.16,11.6-21.69C391,273,380.52,264,380.57,256c0-7.61,10.64-14.53,10.5-22.33s-11-16.26-11.4-23.83c-.41-8.15,9.64-15.87,8.91-23.14-.88-8.75-12.5-15.9-13.94-22.46-2.66-12.09-1.88-25.63-6.91-25.4-4.74.22-2,14.91-4.17,27.57-1.19,7-12.6,13.28-13.2,22.61-.5,7.82,9.82,17.66,9.65,26.43-.16,8.19-10.83,15.64-10.77,24.13s10.85,17.71,11.06,26c.23,8.76-10.12,16.66-9.8,24.61.17,4.06,2.35,8.06,4.79,11.89-3.05-4.1-7-8.32-8.52-13.17-2.22-6.94,1.23-15.8-1.57-22.56-3-7.33-11.95-11.67-15.58-17.41-4.85-7.65-6.84-17.85-12.63-19.71-8.92-2.88-7.57,8.32-4.11,22.28,1.83,7.4-1.11,17.78,2.73,27.24,3.29,8.12,12.92,14.47,17,22.83s2.93,19.4,7.2,26.94c3.56,6.27,9.4,10.57,14.17,14.46l.28.77a1.51,1.51,0,0,0,1.22.47,29.08,29.08,0,0,1,4.37,4.38c2.42,3.2-.28,9.45,1.27,11,4.26,4.29,4.48.78,4.22-2.93-.15-2.15,4.82-5.61,4.52-8.82a2.17,2.17,0,0,1,.93-.84c1.68-.38,9.36,6.12,10.4,4,.77-1.54-8.54-8-8-10,.38-1.41,6.91-.93,10-1.55a1.06,1.06,0,0,1,.24.23c.91,1.18,1.37,6.42,4,5.45,3.5-1.3,8.22-17.55,18.06-33.11,5.93-9.38,17.84-16.73,23.58-27.89s5.16-25.78,8.86-36.25C443.64,231.7,451.08,217.45,445.91,211.21ZM362.3,315.81c.42,7.93-2.27,11-4.84,13.77-1.58-9,4.59-9,1.53-20.8a13.42,13.42,0,0,0-1.24-3C360.09,309.36,362.14,312.74,362.3,315.81Zm3.93,26.78a2.09,2.09,0,0,1,.27,1.63c-1-.57-2-1.12-2.92-1.69C364.88,342.27,365.89,342.19,366.23,342.59Z" style="fill:#fff;opacity:0.5"></path><g style="opacity:0.2"><polygon points="377.59 307.46 376.59 306.99 373.59 317.02 373.71 293.21 379.16 277.71 378.15 277.28 373.73 289.87 373.84 267.71 382.59 253.13 381.66 252.52 373.85 265.55 373.97 241.29 382.07 229.08 381.17 228.44 373.98 239.27 374.08 218.69 379.24 207.91 378.28 207.37 374.1 216.16 374.21 193.27 380.97 179.43 380.01 178.9 374.22 190.74 374.33 169.09 373.27 168.99 373.16 190.41 361.7 173.17 360.83 173.71 373.15 192.24 373.02 217.41 361.6 205.43 360.87 206.13 373.02 218.87 372.91 240 361.86 230.33 361.2 231.11 372.9 241.34 372.78 265.87 361.39 252.73 360.62 253.39 372.77 267.42 372.65 292.94 372.56 293.18 361.49 276.71 360.63 277.25 372.63 295.11 372.51 319.67 363.37 301.28 362.42 301.69 372.5 321.95 372.35 351.98 373.41 352.08 373.57 320.07 377.59 307.46"></polygon><polygon points="434.46 253.7 433.98 252.71 422.95 257.27 428.5 245.86 440.91 238.86 440.33 237.92 429.35 244.11 438.56 225.18 437.6 224.65 429.41 241.46 431.49 222.73 430.43 222.51 428.01 244.34 422.08 256.53 422.77 237.22 421.71 237.09 420.93 258.9 414.19 272.75 412.28 259.07 411.23 259.12 413.37 274.44 405.66 290.29 405 273.65 403.94 273.6 404.68 292.31 396.08 309.98 395.17 303.2 394.11 303.22 395.21 311.76 381.4 340.15 382.37 340.69 395.44 313.82 395.49 314.31 407.82 309.35 407.35 308.35 396.38 312.76 396.31 312.04 405.52 293.1 417.3 289.46 416.91 288.44 406.17 291.75 414.49 274.65 427.97 268.95 427.48 267.96 415.23 273.15 422.22 258.76 434.46 253.7"></polygon><polygon points="354.43 313.2 353.37 313.04 352.64 323.6 347.14 311.76 349.87 298.21 348.82 297.91 346.37 310.11 338.92 294.08 340.91 277.46 339.86 277.25 338.06 292.23 331.87 278.91 332.49 279.17 333.38 262.81 332.32 262.66 331.5 277.64 331.23 277.53 324.26 262.53 325.6 247.2 324.54 247.01 323.35 260.58 316.01 244.78 315.05 245.16 322.86 261.96 314.31 256.7 313.82 257.6 323.64 263.64 329.82 276.95 321.69 273.6 321.37 274.58 330.47 278.33 336.88 292.13 327.28 286.66 326.82 287.58 337.62 293.73 345.27 310.19 336.7 307.03 336.42 308.03 345.89 311.52 352.49 325.73 352.44 326.5 344.21 322.12 343.78 323.05 353.4 328.18 353.43 327.74 366.04 354.88 367 354.5 353.57 325.61 354.43 313.2"></polygon></g><path d="M363,353.49s.94-3.09-5.64-6.77a88.62,88.62,0,0,0-8.16-4.29s1.55,4.63,4.95,7.09S359,353.1,359,353.1a22.24,22.24,0,0,0-8.79-2.23,13.54,13.54,0,0,0-7.77,2.2,81,81,0,0,0,8.85,4,35.22,35.22,0,0,0,11.23,2s-8.58-1-10.26.67a37.88,37.88,0,0,0-4.15,5.89,59.54,59.54,0,0,1,10.63.05c4.55.6,10.57-1.69,10.57-1.69l5.14,2.55,2.16-3.21s1.21-.11,5.3,2a88.62,88.62,0,0,0,11.65,4.48L385.91,360l7.73,1.82c3.87.91,10.1-.15,10.1-.15s-.59-1.95-4.83-3.58-12.34-4.17-12.34-4.17,6.67,1.41,11.1-1.49a35.07,35.07,0,0,0,7.27-6.42s-6.32-3.72-12.28-2.42a30.66,30.66,0,0,0-11.14,5.51s3.9-3.11,5.15-7.24a38.12,38.12,0,0,0,1.5-6.91s-7.23,2.41-9.07,4.58-4.94,8.47-4.94,8.47,3.1-6.3-.52-10-6.67-6.58-6.67-6.58-3.05,4.43-3.68,8,3.95,9.94,3.95,9.94l-4.08-2.14Z" style="fill:#92E3A9"></path><path d="M363,353.49s.94-3.09-5.64-6.77a88.62,88.62,0,0,0-8.16-4.29s1.55,4.63,4.95,7.09S359,353.1,359,353.1a22.24,22.24,0,0,0-8.79-2.23,13.54,13.54,0,0,0-7.77,2.2,81,81,0,0,0,8.85,4,35.22,35.22,0,0,0,11.23,2s-8.58-1-10.26.67a37.88,37.88,0,0,0-4.15,5.89,59.54,59.54,0,0,1,10.63.05c4.55.6,10.57-1.69,10.57-1.69l5.14,2.55,2.16-3.21s1.21-.11,5.3,2a88.62,88.62,0,0,0,11.65,4.48L385.91,360l7.73,1.82c3.87.91,10.1-.15,10.1-.15s-.59-1.95-4.83-3.58-12.34-4.17-12.34-4.17,6.67,1.41,11.1-1.49a35.07,35.07,0,0,0,7.27-6.42s-6.32-3.72-12.28-2.42a30.66,30.66,0,0,0-11.14,5.51s3.9-3.11,5.15-7.24a38.12,38.12,0,0,0,1.5-6.91s-7.23,2.41-9.07,4.58-4.94,8.47-4.94,8.47,3.1-6.3-.52-10-6.67-6.58-6.67-6.58-3.05,4.43-3.68,8,3.95,9.94,3.95,9.94l-4.08-2.14Z" style="fill:#fff;opacity:0.30000000000000004"></path><path d="M194.4,224.87s-6.45-5.17-8.11-8.5c-1.4-2.83-2.42-6.83-1-9.84a5.49,5.49,0,0,1,7.84-2.56c4,2.51,4.4,11.07,3.39,15.19C196.46,219.52,194.47,224.93,194.4,224.87Z" style="fill:#92E3A9"></path><path d="M254.06,268c-.27.25-4.87,3.64-4.9,3.56s-2.57-7.94-2.14-11.64c.36-3.15,1.68-7.06,4.53-8.76a5.49,5.49,0,0,1,7.93,2.27C261.43,257.77,257.14,265.15,254.06,268Z" style="fill:#92E3A9"></path><path d="M118.85,232.72s23.62,24.78,23.5,55.22-24,55-24,55-23.62-24.78-23.49-55.22S118.85,232.72,118.85,232.72Z" style="fill:#92E3A9"></path><path d="M152.53,306.17a8.55,8.55,0,0,1-.85-1.09c-1.72-2.65-3.19-6.5-2.08-9.67a5.51,5.51,0,0,1,7.5-3.46c3.21,1.54,4.78,6.77,5.12,11.05,1.28-.3,2.43-.53,3.42-.7.43-1,.85-1.94,1.28-2.93s.8-2,1.21-3.05c.56-1.52,1.07-3.12,1.58-4.71-1.87-.85-7.31-3.44-9.34-5.72s-4.11-5.94-3.49-9.23a5.54,5.54,0,0,1,6.9-4.58c4.48,1.36,7.12,9.51,7.21,13.75,0,.14-.07,1-.16,2.1.45-1.57.91-3.13,1.31-4.74,1.16-4.56,2.19-9.24,3.25-13.92.22-1,.45-1.95.68-2.92-1.58-.71-7.5-3.46-9.62-5.84s-4.12-5.94-3.5-9.24a5.54,5.54,0,0,1,6.9-4.57c4.49,1.35,7.12,9.5,7.22,13.74,0,.16-.09,1.23-.2,2.43.61-2.54,1.25-5.06,2-7.54a101.38,101.38,0,0,1,4.41-12.51c-.56-.24-7.56-3.33-9.92-6-2.09-2.35-4.11-5.94-3.5-9.23a5.55,5.55,0,0,1,6.91-4.58c4.48,1.36,7.12,9.51,7.21,13.75,0,.3-.34,4.18-.51,5.56l.06-.14a72.86,72.86,0,0,1,6.43-11.29,99.07,99.07,0,0,1,7.09-9.17c2.33-2.72,4.63-5.07,6.67-7.14,1.12-1.1,2.16-2.1,3.14-3h-.1c-.08,0,2.19-5.3,2.37-5.62,2.1-3.68,8.27-9.52,12.84-8.51a5.64,5.64,0,0,1,3.88,7.39c-1,3.19-4.5,5.34-7.44,6.37s-9.63.55-11.27.4c-1,1-2.06,2-3.2,3.21-2,2.1-4.24,4.5-6.5,7.26-.6.74-1.22,1.56-1.83,2.34,1.3-1.1,3.11-2.58,3.3-2.7,3.53-2.28,11.66-4.58,15.26-1.54a5.68,5.68,0,0,1,.09,8.37c-2.35,2.36-6.41,2.64-9.5,2.18s-9-4.14-10.23-4.95c-1.33,1.74-2.66,3.57-3.94,5.56a72.45,72.45,0,0,0-6.11,11.29c-.1.23-.17.47-.26.7.55-.65,3.83-4,4.09-4.23,3.26-2.66,11.09-5.85,15-3.23a5.68,5.68,0,0,1,1,8.31c-2.08,2.6-6.09,3.33-9.21,3.22-3.59-.13-10.67-3.76-10.93-3.9a100,100,0,0,0-4,12.19c-.81,3.07-1.5,6.21-2.17,9.37.74-.84,3.79-4,4-4.17,3.26-2.66,11.09-5.85,15-3.23a5.68,5.68,0,0,1,1,8.31c-2.08,2.6-6.09,3.34-9.2,3.22-3.51-.13-10.31-3.58-10.88-3.87-.31,1.43-.61,2.87-.91,4.31-1,4.7-1.89,9.41-3,14-.37,1.6-.79,3.16-1.21,4.74,1.15-1.22,3.27-3.4,3.48-3.56,3.25-2.66,11.09-5.85,15-3.24a5.69,5.69,0,0,1,1,8.32c-2.09,2.6-6.09,3.33-9.21,3.22s-8.91-2.89-10.53-3.7c-.71,2.61-1.47,5.18-2.34,7.68-.39,1.06-.73,2.18-1.17,3.18l-.66,1.6c.58-.07.91-.09.91-.09s.06,1.48-.08,3.9c3.44-2.49,8.39-4.63,11.62-3.13a5.68,5.68,0,0,1,2.22,8.07,7.13,7.13,0,0,1-.72,1,22,22,0,0,1-4.44,10.05c-.18.21-2.51,2.4-3.73,3.49,1.18-.65,2.35-1.29,3.56-2,1.76-1,3.58-2.09,5.35-3.15l2.73-1.77c.93-.58,1.76-1.25,2.66-1.88,1.3-.95,2.59-2,3.88-3-1.1-1.75-4.23-7-4.69-10s-.21-7.27,2.1-9.67a5.48,5.48,0,0,1,8.24.06c3,3.64.78,11.91-1.45,15.51-.07.11-.62.82-1.28,1.66,1.23-1.06,2.46-2.11,3.67-3.22,3.44-3.16,6.84-6.48,10.27-9.79l2.15-2.06c-.93-1.47-4.38-7.08-4.85-10.26s-.21-7.27,2.09-9.67a5.48,5.48,0,0,1,8.24.06c3,3.64.78,11.91-1.44,15.51-.08.13-.74,1-1.48,1.91,1.89-1.77,3.79-3.52,5.73-5.19a97.71,97.71,0,0,1,10.47-8c-.34-.52-4.51-7-5-10.55-.47-3.13-.21-7.26,2.09-9.66a5.48,5.48,0,0,1,8.24.05c3,3.65.78,11.92-1.44,15.51-.16.26-2.56,3.3-3.45,4.36l.13-.09a72.18,72.18,0,0,1,11.49-5.82A98.93,98.93,0,0,1,253,270.43c3.43-1,6.61-1.64,9.44-2.21,1.53-.3,2.94-.55,4.26-.76l-.08-.06c-.07-.06,4.7-3.2,5-3.36,3.75-1.89,12.07-3.31,15.33.1a5.67,5.67,0,0,1-.77,8.33c-2.59,2.09-6.65,1.94-9.67,1.15s-8.33-4.94-9.62-6c-1.36.25-2.81.53-4.41.88-2.81.63-6,1.37-9.36,2.41-.9.28-1.86.61-2.8.92,1.69-.18,4-.4,4.23-.4,4.17.08,12.2,2.72,13.56,7.27a5.64,5.64,0,0,1-4.47,7c-3.24.64-6.78-1.4-9.11-3.52s-5.24-8.48-5.84-9.86c-2.06.71-4.16,1.49-6.31,2.43a70.26,70.26,0,0,0-11.22,6c-.21.14-.4.3-.61.44.82-.23,5.39-1.21,5.72-1.24,4.16-.39,12.42,1.34,14.26,5.72a5.64,5.64,0,0,1-3.68,7.49c-3.15,1-6.89-.63-9.43-2.48-2.92-2.12-6.86-9.12-7-9.39a99.42,99.42,0,0,0-9.95,7.94c-2.34,2.1-4.62,4.33-6.89,6.59,1.07-.28,5.32-1.18,5.63-1.21,4.16-.39,12.43,1.34,14.26,5.71a5.64,5.64,0,0,1-3.68,7.49c-3.15,1-6.89-.63-9.42-2.47-2.86-2.08-6.66-8.77-7-9.33l-3.09,3.08c-3.34,3.39-6.69,6.8-10.09,10.06-1.17,1.13-2.37,2.2-3.57,3.27,1.61-.37,4.57-1,4.83-1,4.16-.39,12.42,1.34,14.26,5.72a5.64,5.64,0,0,1-3.68,7.49c-3.15,1-6.89-.63-9.43-2.48s-5.86-7.4-6.78-9c-2,1.78-4,3.49-6.11,5.09-.91.66-1.8,1.4-2.71,2l-2.68,1.83c-1.88,1.18-3.62,2.28-5.4,3.34-.89.54-1.75,1-2.62,1.54,1.58-.63,4.1-1.58,4.34-1.64,4.06-1,12.48-.59,14.95,3.45a5.66,5.66,0,0,1-2.52,8c-3,1.47-6.9.43-9.69-1-3.07-1.58-7.68-7.39-8.25-8.1-2.14,1.24-4.24,2.43-6.23,3.51-5.3,2.88-9.93,5.18-13.52,6.9-11.67,10.25-28.09,11.38-28.09,11.38s-.86-20,10.72-33.14A40.48,40.48,0,0,1,152.53,306.17Zm20.83,19.49c-.36-.82-3.16-7.17-3.35-10.75-.65-.12-1.3-.26-1.93-.41a46.73,46.73,0,0,1-7.25,17.6c2.12-1,4.42-2.16,6.86-3.42C169.5,327.75,171.41,326.73,173.36,325.66Z" style="fill:#92E3A9"></path><path d="M66.49,302.35s19.67.61,31.72,13.33S110.1,348.4,110.1,348.4s-19.67-.61-31.72-13.33S66.49,302.35,66.49,302.35Z" style="fill:#92E3A9"></path><g style="opacity:0.5"><path d="M194.4,224.87s-6.45-5.17-8.11-8.5c-1.4-2.83-2.42-6.83-1-9.84a5.49,5.49,0,0,1,7.84-2.56c4,2.51,4.4,11.07,3.39,15.19C196.46,219.52,194.47,224.93,194.4,224.87Z" style="fill:#fff"></path><path d="M254.06,268c-.27.25-4.87,3.64-4.9,3.56s-2.57-7.94-2.14-11.64c.36-3.15,1.68-7.06,4.53-8.76a5.49,5.49,0,0,1,7.93,2.27C261.43,257.77,257.14,265.15,254.06,268Z" style="fill:#fff"></path><path d="M118.85,232.72s23.62,24.78,23.5,55.22-24,55-24,55-23.62-24.78-23.49-55.22S118.85,232.72,118.85,232.72Z" style="fill:#fff"></path><path d="M152.53,306.17a8.55,8.55,0,0,1-.85-1.09c-1.72-2.65-3.19-6.5-2.08-9.67a5.51,5.51,0,0,1,7.5-3.46c3.21,1.54,4.78,6.77,5.12,11.05,1.28-.3,2.43-.53,3.42-.7.43-1,.85-1.94,1.28-2.93s.8-2,1.21-3.05c.56-1.52,1.07-3.12,1.58-4.71-1.87-.85-7.31-3.44-9.34-5.72s-4.11-5.94-3.49-9.23a5.54,5.54,0,0,1,6.9-4.58c4.48,1.36,7.12,9.51,7.21,13.75,0,.14-.07,1-.16,2.1.45-1.57.91-3.13,1.31-4.74,1.16-4.56,2.19-9.24,3.25-13.92.22-1,.45-1.95.68-2.92-1.58-.71-7.5-3.46-9.62-5.84s-4.12-5.94-3.5-9.24a5.54,5.54,0,0,1,6.9-4.57c4.49,1.35,7.12,9.5,7.22,13.74,0,.16-.09,1.23-.2,2.43.61-2.54,1.25-5.06,2-7.54a101.38,101.38,0,0,1,4.41-12.51c-.56-.24-7.56-3.33-9.92-6-2.09-2.35-4.11-5.94-3.5-9.23a5.55,5.55,0,0,1,6.91-4.58c4.48,1.36,7.12,9.51,7.21,13.75,0,.3-.34,4.18-.51,5.56l.06-.14a72.86,72.86,0,0,1,6.43-11.29,99.07,99.07,0,0,1,7.09-9.17c2.33-2.72,4.63-5.07,6.67-7.14,1.12-1.1,2.16-2.1,3.14-3h-.1c-.08,0,2.19-5.3,2.37-5.62,2.1-3.68,8.27-9.52,12.84-8.51a5.64,5.64,0,0,1,3.88,7.39c-1,3.19-4.5,5.34-7.44,6.37s-9.63.55-11.27.4c-1,1-2.06,2-3.2,3.21-2,2.1-4.24,4.5-6.5,7.26-.6.74-1.22,1.56-1.83,2.34,1.3-1.1,3.11-2.58,3.3-2.7,3.53-2.28,11.66-4.58,15.26-1.54a5.68,5.68,0,0,1,.09,8.37c-2.35,2.36-6.41,2.64-9.5,2.18s-9-4.14-10.23-4.95c-1.33,1.74-2.66,3.57-3.94,5.56a72.45,72.45,0,0,0-6.11,11.29c-.1.23-.17.47-.26.7.55-.65,3.83-4,4.09-4.23,3.26-2.66,11.09-5.85,15-3.23a5.68,5.68,0,0,1,1,8.31c-2.08,2.6-6.09,3.33-9.21,3.22-3.59-.13-10.67-3.76-10.93-3.9a100,100,0,0,0-4,12.19c-.81,3.07-1.5,6.21-2.17,9.37.74-.84,3.79-4,4-4.17,3.26-2.66,11.09-5.85,15-3.23a5.68,5.68,0,0,1,1,8.31c-2.08,2.6-6.09,3.34-9.2,3.22-3.51-.13-10.31-3.58-10.88-3.87-.31,1.43-.61,2.87-.91,4.31-1,4.7-1.89,9.41-3,14-.37,1.6-.79,3.16-1.21,4.74,1.15-1.22,3.27-3.4,3.48-3.56,3.25-2.66,11.09-5.85,15-3.24a5.69,5.69,0,0,1,1,8.32c-2.09,2.6-6.09,3.33-9.21,3.22s-8.91-2.89-10.53-3.7c-.71,2.61-1.47,5.18-2.34,7.68-.39,1.06-.73,2.18-1.17,3.18l-.66,1.6c.58-.07.91-.09.91-.09s.06,1.48-.08,3.9c3.44-2.49,8.39-4.63,11.62-3.13a5.68,5.68,0,0,1,2.22,8.07,7.13,7.13,0,0,1-.72,1,22,22,0,0,1-4.44,10.05c-.18.21-2.51,2.4-3.73,3.49,1.18-.65,2.35-1.29,3.56-2,1.76-1,3.58-2.09,5.35-3.15l2.73-1.77c.93-.58,1.76-1.25,2.66-1.88,1.3-.95,2.59-2,3.88-3-1.1-1.75-4.23-7-4.69-10s-.21-7.27,2.1-9.67a5.48,5.48,0,0,1,8.24.06c3,3.64.78,11.91-1.45,15.51-.07.11-.62.82-1.28,1.66,1.23-1.06,2.46-2.11,3.67-3.22,3.44-3.16,6.84-6.48,10.27-9.79l2.15-2.06c-.93-1.47-4.38-7.08-4.85-10.26s-.21-7.27,2.09-9.67a5.48,5.48,0,0,1,8.24.06c3,3.64.78,11.91-1.44,15.51-.08.13-.74,1-1.48,1.91,1.89-1.77,3.79-3.52,5.73-5.19a97.71,97.71,0,0,1,10.47-8c-.34-.52-4.51-7-5-10.55-.47-3.13-.21-7.26,2.09-9.66a5.48,5.48,0,0,1,8.24.05c3,3.65.78,11.92-1.44,15.51-.16.26-2.56,3.3-3.45,4.36l.13-.09a72.18,72.18,0,0,1,11.49-5.82A98.93,98.93,0,0,1,253,270.43c3.43-1,6.61-1.64,9.44-2.21,1.53-.3,2.94-.55,4.26-.76l-.08-.06c-.07-.06,4.7-3.2,5-3.36,3.75-1.89,12.07-3.31,15.33.1a5.67,5.67,0,0,1-.77,8.33c-2.59,2.09-6.65,1.94-9.67,1.15s-8.33-4.94-9.62-6c-1.36.25-2.81.53-4.41.88-2.81.63-6,1.37-9.36,2.41-.9.28-1.86.61-2.8.92,1.69-.18,4-.4,4.23-.4,4.17.08,12.2,2.72,13.56,7.27a5.64,5.64,0,0,1-4.47,7c-3.24.64-6.78-1.4-9.11-3.52s-5.24-8.48-5.84-9.86c-2.06.71-4.16,1.49-6.31,2.43a70.26,70.26,0,0,0-11.22,6c-.21.14-.4.3-.61.44.82-.23,5.39-1.21,5.72-1.24,4.16-.39,12.42,1.34,14.26,5.72a5.64,5.64,0,0,1-3.68,7.49c-3.15,1-6.89-.63-9.43-2.48-2.92-2.12-6.86-9.12-7-9.39a99.42,99.42,0,0,0-9.95,7.94c-2.34,2.1-4.62,4.33-6.89,6.59,1.07-.28,5.32-1.18,5.63-1.21,4.16-.39,12.43,1.34,14.26,5.71a5.64,5.64,0,0,1-3.68,7.49c-3.15,1-6.89-.63-9.42-2.47-2.86-2.08-6.66-8.77-7-9.33l-3.09,3.08c-3.34,3.39-6.69,6.8-10.09,10.06-1.17,1.13-2.37,2.2-3.57,3.27,1.61-.37,4.57-1,4.83-1,4.16-.39,12.42,1.34,14.26,5.72a5.64,5.64,0,0,1-3.68,7.49c-3.15,1-6.89-.63-9.43-2.48s-5.86-7.4-6.78-9c-2,1.78-4,3.49-6.11,5.09-.91.66-1.8,1.4-2.71,2l-2.68,1.83c-1.88,1.18-3.62,2.28-5.4,3.34-.89.54-1.75,1-2.62,1.54,1.58-.63,4.1-1.58,4.34-1.64,4.06-1,12.48-.59,14.95,3.45a5.66,5.66,0,0,1-2.52,8c-3,1.47-6.9.43-9.69-1-3.07-1.58-7.68-7.39-8.25-8.1-2.14,1.24-4.24,2.43-6.23,3.51-5.3,2.88-9.93,5.18-13.52,6.9-11.67,10.25-28.09,11.38-28.09,11.38s-.86-20,10.72-33.14A40.48,40.48,0,0,1,152.53,306.17Zm20.83,19.49c-.36-.82-3.16-7.17-3.35-10.75-.65-.12-1.3-.26-1.93-.41a46.73,46.73,0,0,1-7.25,17.6c2.12-1,4.42-2.16,6.86-3.42C169.5,327.75,171.41,326.73,173.36,325.66Z" style="fill:#fff"></path><path d="M66.49,302.35s19.67.61,31.72,13.33S110.1,348.4,110.1,348.4s-19.67-.61-31.72-13.33S66.49,302.35,66.49,302.35Z" style="fill:#fff"></path></g><g style="opacity:0.2"><polygon points="117.88 315.23 98.55 297.57 99.38 296.63 117.89 313.55 117.99 290.4 117.89 290.47 101.54 266.18 102.56 265.47 118 288.4 118.23 232.72 119.47 232.72 119.31 270.52 131.61 259.7 132.43 260.65 119.3 272.19 119.19 299.22 137.84 282.45 138.66 283.39 119.18 300.9 119.08 325.51 133.09 314.33 133.86 315.32 119.07 327.12 119 342.96 117.76 342.95 117.88 315.23 117.88 315.23"></polygon><polygon points="135.68 322.05 136.91 321.9 138.47 335.89 146.77 326.46 146.76 326.46 148.86 309.53 150.09 309.69 148.21 324.83 168.83 301.4 169.76 302.24 155.76 318.14 164.62 318.25 164.61 319.51 154.67 319.38 144.85 330.53 158.71 330.55 158.71 331.81 143.75 331.79 134.82 341.93 144.6 342.53 144.52 343.78 133.77 343.13 127.83 349.88 126.9 349.04 137.37 337.15 135.68 322.05"></polygon><polygon points="88.98 327.03 72.53 323.64 72.78 322.4 87.5 325.44 66.04 302.79 66.93 301.91 81.49 317.28 82.26 308.31 83.49 308.42 82.63 318.49 92.84 329.26 93.89 315.22 95.13 315.32 93.99 330.48 103.27 340.28 104.59 330.42 105.81 330.59 104.37 341.44 110.55 347.96 109.66 348.84 98.77 337.34 83.83 337.93 83.78 336.67 97.62 336.13 88.99 327.01 88.98 327.03"></polygon></g></g><g id="freepik--Ground--inject-30"><polygon points="169.87 352.36 47.33 371.91 273.09 411.02 458 379.02 169.87 352.36" style="fill:#92E3A9"></polygon></g><g id="freepik--Shadow--inject-30"><ellipse cx="247.84" cy="375.38" rx="62.38" ry="7.43" style="opacity:0.15"></ellipse></g><g id="freepik--Character--inject-30"><path d="M242.64,294.8s-5.2,1.49-21.16,1.12-39-7.8-47.9-7.8S155,291.46,151.3,298.89s-7.06,16.71,14.48,25.25,37.87,11.14,68.69,18.93,43.07,8.17,59,4.09,26.73-14.48,25.25-29-4.83-23.39-12.62-25.62S242.64,294.8,242.64,294.8Z" style="fill:#263238;stroke:#263238;stroke-linecap:round;stroke-linejoin:round"></path><path d="M267.55,176.53s.56,7.06-1.41,11-9.89,7.91-16.67,11.58-16.38,3.11-20.33,9.32-3.67,16.66-3.67,16.66-6.22,9.61-11.3,18.08-7.91,17.23-1.41,22,14.4-2.26,18.64-9,8.19-14.4,8.19-14.4S245,268,243.54,275.09s-4.8,13.84-4.8,17,2.54,5.37,6.5,6.21,17.51,2,26.83,1.42,35.87-2.26,37-5.94,2.82-29.09,2.82-29.09,16.66,5.65,21.75-4.51,5.36-33,1.69-44.35-13-15.53-18.64-18.35-21.18-10.17-24-13.28S289,165.79,289,160.71s-.56-.28-5.93,3.67S267.55,176.53,267.55,176.53Z" style="fill:#fff"></path><g style="clip-path:url(#freepik--clip-path--inject-30)"><path d="M335.33,215.78c-3.67-11.29-13-15.53-18.64-18.35s-21.18-10.17-24-13.28S289,165.79,289,160.71s-.56-.28-5.93,3.67-15.53,12.15-15.53,12.15a36.85,36.85,0,0,1,0,4.81c3.21,1.39,7.46,3,9.83,3,4.13,0,5.37,2.89,7,5.78s-1.24,6.19-1.24,6.19,13.21.83,17.75,2.06,16.51,2.89,23.94,9.09c5.87,4.88,9.93,13.87,12.6,19.68A54,54,0,0,0,335.33,215.78Z" style="fill:#92E3A9"></path><path d="M335.33,215.78c-3.67-11.29-13-15.53-18.64-18.35s-21.18-10.17-24-13.28S289,165.79,289,160.71s-.56-.28-5.93,3.67-15.53,12.15-15.53,12.15a36.85,36.85,0,0,1,0,4.81c3.21,1.39,7.46,3,9.83,3,4.13,0,5.37,2.89,7,5.78s-1.24,6.19-1.24,6.19,13.21.83,17.75,2.06,16.51,2.89,23.94,9.09c5.87,4.88,9.93,13.87,12.6,19.68A54,54,0,0,0,335.33,215.78Z" style="fill:#fff;opacity:0.6000000000000001"></path></g><path d="M267.55,176.53s.56,7.06-1.41,11-9.89,7.91-16.67,11.58-16.38,3.11-20.33,9.32-3.67,16.66-3.67,16.66-6.22,9.61-11.3,18.08-7.91,17.23-1.41,22,14.4-2.26,18.64-9,8.19-14.4,8.19-14.4S245,268,243.54,275.09s-4.8,13.84-4.8,17,2.54,5.37,6.5,6.21,17.51,2,26.83,1.42,35.87-2.26,37-5.94,2.82-29.09,2.82-29.09,16.66,5.65,21.75-4.51,5.36-33,1.69-44.35-13-15.53-18.64-18.35-21.18-10.17-24-13.28S289,165.79,289,160.71s-.56-.28-5.93,3.67S267.55,176.53,267.55,176.53Z" style="fill:none;stroke:#263238;stroke-linecap:round;stroke-linejoin:round"></path><path d="M307.09,143.48c2.26-4.23,5.65-11.58,1.13-16.66s-7.34-2-7.91-7.06-1.69-10.45-6.78-10.45-8.75,2-11.86,0-5.65-7.63-13.56-7.63-7.9,12.15-9.32,13.56a7.28,7.28,0,0,1-2.31,1.11,2.06,2.06,0,0,1-1.36-1.11c-1.41-2.82,2.54-2.54,4.24-6.78s-3.11-7.06-6.5-4.52,3.67,2.26-.28,6.5S246.37,119.76,250,126s7.91,2.54,7.91,2.54c.84-.56,1.6,2.62,9.13,4,7.17,1.31,12.07-1,12.64,6.88s7.6,12.29,9.58,13.42-3.11,7.35-2,10.17,4.8,2.54,7.06,2.26.85-3.67,5.65-4.24,6.49-2,8.47-7.34S304.83,147.72,307.09,143.48Z" style="fill:#263238;stroke:#263238;stroke-linecap:round;stroke-linejoin:round"></path><path d="M306.12,135.87a3.52,3.52,0,0,0,2.44-.62" style="fill:none;stroke:#fff;stroke-linecap:round;stroke-linejoin:round"></path><path d="M288.77,124.37s5-4,7.92,1c1.79,3,4.12,7,6.66,9.14" style="fill:none;stroke:#fff;stroke-linecap:round;stroke-linejoin:round"></path><path d="M286.3,138.22a35.83,35.83,0,0,1,9.4-.5c4.45.5,4,4,8.9,4" style="fill:none;stroke:#fff;stroke-linecap:round;stroke-linejoin:round"></path><path d="M265.65,119.47a9.24,9.24,0,0,0,1.4,1.38" style="fill:none;stroke:#fff;stroke-linecap:round;stroke-linejoin:round"></path><path d="M286.1,119.52s-1.28,4.35-6.23-1.58-8.38-12.8-14-6.91a5.75,5.75,0,0,0-1.88,4.85" style="fill:none;stroke:#fff;stroke-linecap:round;stroke-linejoin:round"></path><path d="M253.16,121.13a11.41,11.41,0,0,1-1-3.19" style="fill:none;stroke:#fff;stroke-linecap:round;stroke-linejoin:round"></path><path d="M262.06,125.85s-4.75.56-7.74-2.95" style="fill:none;stroke:#fff;stroke-linecap:round;stroke-linejoin:round"></path><path d="M316.69,197.43c-4.4-2.21-14.82-7.16-20.53-10.7-1.88,5.64-7.4,18.6-18.44,18.6-10.18,0-13.17-9.52-14-14.85-3.38,3-9.11,5.88-14.21,8.64-6.77,3.67-16.38,3.11-20.33,9.32s-3.67,16.66-3.67,16.66-2.1,3.25-4.85,7.62c11.41-.57,19,9.05,19,9.05S245,268,243.54,275.09s-4.8,13.84-4.8,17,2.54,5.37,6.5,6.21,17.51,2,26.83,1.42,35.87-2.26,37-5.94,2.82-29.09,2.82-29.09l-1.69-22.31c14.19-9.38,24.11-2.81,27.36,0,.7-9.59-.1-20-2.23-26.56C331.66,204.49,322.34,200.25,316.69,197.43Z" style="fill:#92E3A9"></path><g style="clip-path:url(#freepik--clip-path-2--inject-30)"><path d="M335.33,215.78c-3.67-11.29-13-15.53-18.64-18.35s-21.18-10.17-24-13.28S289,165.79,289,160.71s-.56-.28-5.93,3.67-15.53,12.15-15.53,12.15a36.85,36.85,0,0,1,0,4.81c3.21,1.39,7.46,3,9.83,3,4.13,0,5.37,2.89,7,5.78s-1.24,6.19-1.24,6.19,13.21.83,17.75,2.06,16.51,2.89,23.94,9.09c5.87,4.88,9.93,13.87,12.6,19.68A54,54,0,0,0,335.33,215.78Z" style="opacity:0.15"></path><path d="M296.77,198s-4.13,7.84-12,10.32a27.38,27.38,0,0,1-14,.83s5.78,3.3,14.45,1.24S296.77,198,296.77,198Z" style="opacity:0.15"></path><path d="M308.33,236.79s.41,13.21-4.54,16.51-20.64,6.19-26.83,4.54-12-10.32-17.75-8.67-15.69,12.39-15.69,12.39l.41,7.43,17.75-8.67s12,7,25.18,15.68.83,10.74.83,10.74l-16.51,6.19s10.73-4.13,19-4.13,2.89,1.65,2.89,1.65h15.68l.33,3.28,3-20.2-.83-24.36S310.4,232.66,308.33,236.79Z" style="opacity:0.15"></path></g><path d="M316.69,197.43c-4.4-2.21-14.82-7.16-20.53-10.7-1.88,5.64-7.4,18.6-18.44,18.6-10.18,0-13.17-9.52-14-14.85-3.38,3-9.11,5.88-14.21,8.64-6.77,3.67-16.38,3.11-20.33,9.32s-3.67,16.66-3.67,16.66-2.1,3.25-4.85,7.62c11.41-.57,19,9.05,19,9.05S245,268,243.54,275.09s-4.8,13.84-4.8,17,2.54,5.37,6.5,6.21,17.51,2,26.83,1.42,35.87-2.26,37-5.94,2.82-29.09,2.82-29.09l-1.69-22.31c14.19-9.38,24.11-2.81,27.36,0,.7-9.59-.1-20-2.23-26.56C331.66,204.49,322.34,200.25,316.69,197.43Z" style="fill:none;stroke:#263238;stroke-linecap:round;stroke-linejoin:round"></path><path d="M239.59,241.77s-4.37-13.43-2.52-20.49" style="fill:none;stroke:#263238;stroke-linecap:round;stroke-linejoin:round"></path><path d="M310.2,242.33a33,33,0,0,1,.76-15.85" style="fill:none;stroke:#263238;stroke-linecap:round;stroke-linejoin:round"></path><path d="M245.24,298.25s13.74-2,23-4.19" style="fill:none;stroke:#263238;stroke-linecap:round;stroke-linejoin:round"></path><path d="M212.38,249s-2.79,1.48-5,6.87-5,15.4-2.23,18.56,9.1.37,15-.37,30.63-15.22,34.71-17.64,7.43-3.34,8.73-5.57.93-10.21,1.11-14.11-.74-21.35-.74-21.35-1.3-4.27-3.53-3.9c0,0-2.6-1.48-3.15,0l-1.12,3s-2.41-.74-3,.56a16.49,16.49,0,0,0-.74,3.9s-2.78,1.3-2.78,3,.55,11.7.55,14.48-.37,7.06.56,8.91,1.86,3.53,1.86,3.53-13.56,1.86-19.31,1.86-15.78.18-17.64,1.11" style="fill:#fff"></path><g style="clip-path:url(#freepik--clip-path-3--inject-30)"><path d="M263.62,250.8c.65-1.12.89-3.7,1-6.49l-8.92,1.94s.91,4.08-4.09,7.26-32.21,12.25-34,12.7,17.25-8.16,10-7.71-15.89,8.17-20.88,8.17a8.19,8.19,0,0,1-2.36-.33c-.55,3.42-.51,6.52.83,8,2.78,3.16,9.1.37,15-.37s30.63-15.22,34.71-17.64S262.32,253,263.62,250.8Z" style="fill:#92E3A9"></path><path d="M263.62,250.8c.65-1.12.89-3.7,1-6.49l-8.92,1.94s.91,4.08-4.09,7.26-32.21,12.25-34,12.7,17.25-8.16,10-7.71-15.89,8.17-20.88,8.17a8.19,8.19,0,0,1-2.36-.33c-.55,3.42-.51,6.52.83,8,2.78,3.16,9.1.37,15-.37s30.63-15.22,34.71-17.64S262.32,253,263.62,250.8Z" style="fill:#fff;opacity:0.6000000000000001"></path></g><path d="M212.38,249s-2.79,1.48-5,6.87-5,15.4-2.23,18.56,9.1.37,15-.37,30.63-15.22,34.71-17.64,7.43-3.34,8.73-5.57.93-10.21,1.11-14.11-.74-21.35-.74-21.35-1.3-4.27-3.53-3.9c0,0-2.6-1.48-3.15,0l-1.12,3s-2.41-.74-3,.56a16.49,16.49,0,0,0-.74,3.9s-2.78,1.3-2.78,3,.55,11.7.55,14.48-.37,7.06.56,8.91,1.86,3.53,1.86,3.53-13.56,1.86-19.31,1.86-15.78.18-17.64,1.11" style="fill:none;stroke:#263238;stroke-linecap:round;stroke-linejoin:round"></path><path d="M325.26,258c-8.91-5.75-27.48-1.3-33.42-1.67s-22.46-9.47-22.46-9.47,3.34-3.34,3.52-5.38,0-7.61,0-10.77.93-6.31,1.12-8.72-3-.75-3.53,0-1.86,8.16-1.86,8.16-1.67-5-1.67-5.56-.37-7.43-1.3-10.22-3.15,0-3.15,0c-.19-1.67-.75-3-2.05-3s-2.41,4.65-2.41,4.65c0-2.79-.93-2.6-1.86-1.68s-.92,7.06-.92,7.06l-1.12-1.67c-1.3-.37-2,1.67-2,3.53s.74,7.42.74,12.06a34.75,34.75,0,0,0,.56,7.06,28.46,28.46,0,0,0,4.08,9.1c3.16,4.64,13.74,10.39,20.24,15.4s25.62,13.37,35.09,14.86,16,5,18.19.93,6.31-24.14,4.27-30.82" style="fill:#fff"></path><g style="clip-path:url(#freepik--clip-path-4--inject-30)"><path d="M312.82,281.81c9.47,1.48,16,5,18.19.93,1.58-2.89,4.07-13.74,4.69-22.22-1.89,3.75-7.11,13.58-10.44,14.25-4.13.82-21.88-4.13-23.95-4.54s26-1.24,15.69-3.72-18.16-.83-31-4.54-23.24-6.4-28.55-10.42c3.16,4.64,13.74,10.39,20.24,15.4S303.35,280.32,312.82,281.81Z" style="fill:#92E3A9"></path><path d="M312.82,281.81c9.47,1.48,16,5,18.19.93,1.58-2.89,4.07-13.74,4.69-22.22-1.89,3.75-7.11,13.58-10.44,14.25-4.13.82-21.88-4.13-23.95-4.54s26-1.24,15.69-3.72-18.16-.83-31-4.54-23.24-6.4-28.55-10.42c3.16,4.64,13.74,10.39,20.24,15.4S303.35,280.32,312.82,281.81Z" style="fill:#fff;opacity:0.6000000000000001"></path></g><path d="M325.26,258c-8.91-5.75-27.48-1.3-33.42-1.67s-22.46-9.47-22.46-9.47,3.34-3.34,3.52-5.38,0-7.61,0-10.77.93-6.31,1.12-8.72-3-.75-3.53,0-1.86,8.16-1.86,8.16-1.67-5-1.67-5.56-.37-7.43-1.3-10.22-3.15,0-3.15,0c-.19-1.67-.75-3-2.05-3s-2.41,4.65-2.41,4.65c0-2.79-.93-2.6-1.86-1.68s-.92,7.06-.92,7.06l-1.12-1.67c-1.3-.37-2,1.67-2,3.53s.74,7.42.74,12.06a34.75,34.75,0,0,0,.56,7.06,28.46,28.46,0,0,0,4.08,9.1c3.16,4.64,13.74,10.39,20.24,15.4s25.62,13.37,35.09,14.86,16,5,18.19.93,6.31-24.14,4.27-30.82" style="fill:none;stroke:#263238;stroke-linecap:round;stroke-linejoin:round"></path><path d="M268.63,230.19a19.51,19.51,0,0,1,1.49,7.62" style="fill:none;stroke:#263238;stroke-linecap:round;stroke-linejoin:round"></path><path d="M262.51,214.41a46.13,46.13,0,0,1,1.11,7.24c0,2.42.37,8,.37,8" style="fill:none;stroke:#263238;stroke-linecap:round;stroke-linejoin:round"></path><path d="M258.05,216.09s.74,4.27,1.11,7a49.65,49.65,0,0,1,.19,7.05" style="fill:none;stroke:#263238;stroke-linecap:round;stroke-linejoin:round"></path><path d="M255.27,221.47s.55,3.34.92,4.83a40,40,0,0,1,.38,5.94" style="fill:none;stroke:#263238;stroke-linecap:round;stroke-linejoin:round"></path><path d="M243.38,329a21.34,21.34,0,0,1-5.57-3.71c-2.22-2.23,0-7.8-3-10s-8.91-3-10,.38-1.86,5.57-4.09,6.31-4.82.74-8.91,2.6-4.08,8.54-4.08,8.54a113,113,0,0,1,23,5.57c10.77,4.08,15.59,1.85,15.59,1.85S246.73,333.05,243.38,329Z" style="fill:#fff"></path><g style="clip-path:url(#freepik--clip-path-5--inject-30)"><path d="M238.89,332.92s-6.35-.91-7.71-3.18.9-6.35-2.73-6.35-3.17,2.72-6.35,3.63-8.17-.46-5.9,2.27,11.35,8.16,16.79,9.07S242.52,336.09,238.89,332.92Z" style="fill:#92E3A9"></path><path d="M238.89,332.92s-6.35-.91-7.71-3.18.9-6.35-2.73-6.35-3.17,2.72-6.35,3.63-8.17-.46-5.9,2.27,11.35,8.16,16.79,9.07S242.52,336.09,238.89,332.92Z" style="fill:#fff;opacity:0.6000000000000001"></path></g><path d="M243.38,329a21.34,21.34,0,0,1-5.57-3.71c-2.22-2.23,0-7.8-3-10s-8.91-3-10,.38-1.86,5.57-4.09,6.31-4.82.74-8.91,2.6-4.08,8.54-4.08,8.54a113,113,0,0,1,23,5.57c10.77,4.08,15.59,1.85,15.59,1.85S246.73,333.05,243.38,329Z" style="fill:none;stroke:#263238;stroke-linecap:round;stroke-linejoin:round"></path><path d="M271,339.93a123.83,123.83,0,0,0,16.57-5.54c7.1-2.88,14.28-5.71,21.13-9.14,10.4-5.2,14.11-13,11.51-22.65s-7.05-17.08-26-13.74-24.95,14.74-33,23.39c-9.95,10.65-18.15,16.13-21.91,15.6-4.29-.6-5.2,7.42.74,10.4C249.64,343.05,260.59,342.49,271,339.93Z" style="fill:#263238;stroke:#263238;stroke-linecap:round;stroke-linejoin:round"></path><path d="M242.52,327.47s9.07-1.81,18.6-12.7S272,302.06,272,302.06" style="fill:none;stroke:#fff;stroke-linecap:round;stroke-linejoin:round"></path><path d="M310.66,324.55a35.34,35.34,0,0,0,4.46-4.34" style="fill:none;stroke:#fff;stroke-linecap:round;stroke-linejoin:round"></path><path d="M281.09,339.27s14.06-4.06,25.28-11.54" style="fill:none;stroke:#fff;stroke-linecap:round;stroke-linejoin:round"></path><path d="M168.38,289a35.3,35.3,0,0,0-10-.46c-8.91.74-14.85,6.31-16.33,11.14s3.71,17.08,15.22,25.25,23.39,10,39.36,14.48c14.15,3.95,29,8.6,28,8.34a10.48,10.48,0,0,1-3.15-7.6c.21-3.42,2.51-6.09,4.43-7.75-3-1.38-7.93-4.5-15.57-11.56-12.3-11.34-24.86-22.69-32.23-27.91" style="fill:#263238;stroke:#263238;stroke-linecap:round;stroke-linejoin:round"></path><path d="M174.15,293.6c-2.06-1-3.32-1.52-3.32-1.52" style="fill:none;stroke:#fff;stroke-linecap:round;stroke-linejoin:round"></path><path d="M212.57,321.12s-19.51-15.43-27.22-20.87a82.23,82.23,0,0,0-7.59-4.76" style="fill:none;stroke:#fff;stroke-linecap:round;stroke-linejoin:round"></path><path d="M270.49,338.25c-4.83-1.12-5.2,0-16.71-.38s-24.13-4.45-24.13-4.45-1.08.16-3.74-1.07c-1.92,1.66-4.22,4.33-4.43,7.75a10.48,10.48,0,0,0,3.15,7.6c2,.53,3.93,1,5.76,1.31,8.17,1.49,18.19,5.2,23.39,7.43a32.42,32.42,0,0,0,13.37,3c4.08,0,2.49.61,5.47-.14s1.95-2.83,1.95-2.83a13.07,13.07,0,0,0,3.72-.74c2.22-.75,1.48-3.72,1.48-3.72a11.14,11.14,0,0,0,4.28-.69c2.27-1.19,2.27-3.69,1.29-6C283.86,341.82,275.32,339.36,270.49,338.25Z" style="fill:#fff"></path><g style="clip-path:url(#freepik--clip-path-6--inject-30)"><path d="M272.62,359.27c1.85-.46,2.15-1.45,2.12-2.13a23.78,23.78,0,0,1-3.18.28c-5.9,0-12.7-5-24.05-6.81-6.21-1-16.09-2.66-23.76-4,.29.38.58.74.88,1.07,2,.53,3.93,1,5.76,1.31,8.17,1.49,18.19,5.2,23.39,7.43a32.42,32.42,0,0,0,13.37,3C271.23,359.41,269.64,360,272.62,359.27Z" style="fill:#92E3A9"></path><path d="M272.62,359.27c1.85-.46,2.15-1.45,2.12-2.13a23.78,23.78,0,0,1-3.18.28c-5.9,0-12.7-5-24.05-6.81-6.21-1-16.09-2.66-23.76-4,.29.38.58.74.88,1.07,2,.53,3.93,1,5.76,1.31,8.17,1.49,18.19,5.2,23.39,7.43a32.42,32.42,0,0,0,13.37,3C271.23,359.41,269.64,360,272.62,359.27Z" style="fill:#fff;opacity:0.6000000000000001"></path></g><path d="M270.49,338.25c-4.83-1.12-5.2,0-16.71-.38s-24.13-4.45-24.13-4.45-1.08.16-3.74-1.07c-1.92,1.66-4.22,4.33-4.43,7.75a10.48,10.48,0,0,0,3.15,7.6c2,.53,3.93,1,5.76,1.31,8.17,1.49,18.19,5.2,23.39,7.43a32.42,32.42,0,0,0,13.37,3c4.08,0,2.49.61,5.47-.14s1.95-2.83,1.95-2.83a13.07,13.07,0,0,0,3.72-.74c2.22-.75,1.48-3.72,1.48-3.72a11.14,11.14,0,0,0,4.28-.69c2.27-1.19,2.27-3.69,1.29-6C283.86,341.82,275.32,339.36,270.49,338.25Z" style="fill:none;stroke:#263238;stroke-linecap:round;stroke-linejoin:round"></path><path d="M279.77,352a28.61,28.61,0,0,0-5.61-3.91" style="fill:none;stroke:#263238;stroke-linecap:round;stroke-linejoin:round"></path><path d="M274.57,356.44s-3.34-2.23-4.08-3.71" style="fill:none;stroke:#263238;stroke-linecap:round;stroke-linejoin:round"></path><path d="M269.38,359A8.4,8.4,0,0,1,266,355.7" style="fill:none;stroke:#263238;stroke-linecap:round;stroke-linejoin:round"></path><path d="M264.92,359.41a7.82,7.82,0,0,1-4.46-2.6" style="fill:none;stroke:#263238;stroke-linecap:round;stroke-linejoin:round"></path><path d="M261.05,124s-7.06,6.49-6.49,13.55-1.7,11-.85,16.1,2,15,4,17.51,2.26,5.37,4.24,6.78,8.76,1.41,10.17-.85,16.38-11,17.51-14.12.85-3.95.85-3.95,9.88-5.93,8.47-11-5.37-7.06-7.63-5.36-2.54,2.54-2.54,2.54-5.91-3.89-4.78-7.56,4.66-4.93,3.53-9.17-9.58-2.12-18.57-1.43C261.87,127.56,264.2,121.4,261.05,124Z" style="fill:#fff"></path><g style="clip-path:url(#freepik--clip-path-7--inject-30)"><path d="M298.9,148c-1.41-5.08-5.37-7.06-7.63-5.36s-2.54,2.54-2.54,2.54-5.91-3.89-4.78-7.56,4.66-4.93,3.53-9.17-6.7-8.82-15.69-8.13c-2.07.16-3.57.32-4.74.53,3.75-.3,10.23-.28,13.62,2.82,5,4.54.42,9.08-.82,13.63s1.65,10.73.82,15.27-4.95,7.84-4.95,13.62.41,7.85-5,11.56l-1.06.76a4,4,0,0,0,2.37-1.42c1.41-2.26,16.38-11,17.51-14.12s.85-3.95.85-3.95S300.31,153.09,298.9,148Z" style="fill:#92E3A9"></path><path d="M298.9,148c-1.41-5.08-5.37-7.06-7.63-5.36s-2.54,2.54-2.54,2.54-5.91-3.89-4.78-7.56,4.66-4.93,3.53-9.17-6.7-8.82-15.69-8.13c-2.07.16-3.57.32-4.74.53,3.75-.3,10.23-.28,13.62,2.82,5,4.54.42,9.08-.82,13.63s1.65,10.73.82,15.27-4.95,7.84-4.95,13.62.41,7.85-5,11.56l-1.06.76a4,4,0,0,0,2.37-1.42c1.41-2.26,16.38-11,17.51-14.12s.85-3.95.85-3.95S300.31,153.09,298.9,148Z" style="fill:#fff;opacity:0.6000000000000001"></path></g><path d="M261.05,124s-7.06,6.49-6.49,13.55-1.7,11-.85,16.1,2,15,4,17.51,2.26,5.37,4.24,6.78,8.76,1.41,10.17-.85,16.38-11,17.51-14.12.85-3.95.85-3.95,9.88-5.93,8.47-11-5.37-7.06-7.63-5.36-2.54,2.54-2.54,2.54-5.91-3.89-4.78-7.56,4.66-4.93,3.53-9.17-9.58-2.12-18.57-1.43C261.87,127.56,264.2,121.4,261.05,124Z" style="fill:none;stroke:#263238;stroke-linecap:round;stroke-linejoin:round"></path><path d="M268,148.87s3.09,4.23,8.16,0" style="fill:none;stroke:#263238;stroke-linecap:round;stroke-linejoin:round"></path><path d="M255.4,148.28a3,3,0,0,0,4.52.29" style="fill:none;stroke:#263238;stroke-linecap:round;stroke-linejoin:round"></path><path d="M265.57,161c-2.26.57-5.36-.28-5.65-1.13S261.34,148,261.34,148l-2-3.39s-1.7-2.54-4-.84" style="fill:none;stroke:#263238;stroke-linecap:round;stroke-linejoin:round"></path><line x1="260.49" y1="166.08" x2="267.17" y2="166.05" style="fill:none;stroke:#263238;stroke-linecap:round;stroke-linejoin:round"></line><path d="M278,144.33a12.19,12.19,0,0,0-12.71-.28" style="fill:none;stroke:#263238;stroke-linecap:round;stroke-linejoin:round"></path><path d="M296.71,149s-1.18-3.06-3.54-2.12-2.83,4-2.83,4,1.89-.71,1.89,1.65-2.12,1.41-2.12,1.41" style="fill:none;stroke:#263238;stroke-linecap:round;stroke-linejoin:round"></path></g></svg>