<svg xmlns="http://www.w3.org/2000/svg" viewBox="0 0 700 500"><g id="freepik--background-simple--inject-36"><path d="M84.42,452.22H650.24a62.93,62.93,0,0,0,4.57-10.31c5.21-14.58,9.23-35,10.28-40.59,9.48-50.38,6.85-109.69-11.09-157.82-9.81-26.3-29.33-47.16-49.09-65.43-21-19.39-41.67-38.66-62.66-58C499.7,81,446.56,38,387.87,35.19c-62-3-108.56,30-146.63,78.08-37.64,47.56-92.83,84.58-144,113.44-45.3,25.54-75.76,75.62-69.39,131C32.21,395.62,55.47,429.69,84.42,452.22Z" style="fill:#92E3A9"></path><path d="M84.42,452.22H650.24a62.93,62.93,0,0,0,4.57-10.31c5.21-14.58,9.23-35,10.28-40.59,9.48-50.38,6.85-109.69-11.09-157.82-9.81-26.3-29.33-47.16-49.09-65.43-21-19.39-41.67-38.66-62.66-58C499.7,81,446.56,38,387.87,35.19c-62-3-108.56,30-146.63,78.08-37.64,47.56-92.83,84.58-144,113.44-45.3,25.54-75.76,75.62-69.39,131C32.21,395.62,55.47,429.69,84.42,452.22Z" style="fill:#fff;opacity:0.7000000000000001"></path></g><g id="freepik--Plants--inject-36"><path d="M47.17,231.31s-4.19,11.53-13.1,13.1S9.44,228.69,19.4,219.78,43,225,47.17,231.31Z" style="fill:#92E3A9;stroke:#263238;stroke-linecap:round;stroke-linejoin:round"></path><path d="M60.8,174.71s-13.1,32-7.86,47.69,37.73,27.25,47.16,6.81S88.57,180,80.71,173.66,63.42,169.47,60.8,174.71Z" style="fill:#92E3A9;stroke:#263238;stroke-linecap:round;stroke-linejoin:round"></path><path d="M137.31,188.33s-22.54,20.44-25.16,40.88,12.58,27.78,28.3,25.15,23.58-42.44,18.87-60.79S137.31,188.33,137.31,188.33Z" style="fill:#92E3A9;stroke:#263238;stroke-linecap:round;stroke-linejoin:round"></path><path d="M141.5,301.53s-25.15,1.05-26.2,13.1,11,14.67,23.06,4.19S152,302.05,141.5,301.53Z" style="fill:#92E3A9;stroke:#263238;stroke-linecap:round;stroke-linejoin:round"></path><path d="M79.14,326.68s-2.62,12.58-12,17.3-26.21-5.24-17.3-20.44S74.42,320.4,79.14,326.68Z" style="fill:#92E3A9;stroke:#263238;stroke-linecap:round;stroke-linejoin:round"></path><path d="M57.13,287.38s-4.72-10.48-23.06-3.67-25.68,17.3-14.15,21S57.13,287.38,57.13,287.38Z" style="fill:#92E3A9;stroke:#263238;stroke-linecap:round;stroke-linejoin:round"></path><path d="M109.53,161.61s3.15,7.33,9.44,5.76,7.86-11,17.81-8.38,18.35,14.15,18.35,8.91S142.55,149,128.4,149,110.06,154.8,109.53,161.61Z" style="fill:#92E3A9;stroke:#263238;stroke-linecap:round;stroke-linejoin:round"></path><line x1="73.53" y1="192.01" x2="72.04" y2="184.84" style="fill:none;stroke:#263238;stroke-linecap:round;stroke-linejoin:round"></line><path d="M96.92,371.53s2.35-43.85,0-71.25-13.31-59.52-13.31-59.52l-9.39-45.42" style="fill:none;stroke:#263238;stroke-linecap:round;stroke-linejoin:round"></path><line x1="142.01" y1="206.45" x2="144.09" y2="201.74" style="fill:none;stroke:#263238;stroke-linecap:round;stroke-linejoin:round"></line><path d="M102.4,371.53s.79-36,3.92-59.51S122,251.73,122,251.73l18.79-42.47" style="fill:none;stroke:#263238;stroke-linecap:round;stroke-linejoin:round"></path><line x1="133.57" y1="311.3" x2="137.14" y2="310.06" style="fill:none;stroke:#263238;stroke-linecap:round;stroke-linejoin:round"></line><path d="M107.1,372.32c3.13-53.25,8.61-54.82,8.61-54.82l15-5.22" style="fill:none;stroke:#263238;stroke-linecap:round;stroke-linejoin:round"></path><path d="M60.42,331c-1.07.57-2.16,1.2-3.28,1.92" style="fill:none;stroke:#263238;stroke-linecap:round;stroke-linejoin:round"></path><path d="M89.09,370.75s1.57-28.19-1.57-38.37-8.38-5.7-8.38-5.7-6.41-1.14-15.53,2.79" style="fill:none;stroke:#263238;stroke-linecap:round;stroke-linejoin:round"></path><path d="M92.69,321.64C96.78,344.59,93,370,93,370" style="fill:none;stroke:#263238;stroke-linecap:round;stroke-linejoin:round"></path><path d="M29.69,294.4c-1.17.54-2.29,1.13-3.36,1.75" style="fill:none;stroke:#263238;stroke-linecap:round;stroke-linejoin:round"></path><path d="M91.45,315.78a70.57,70.57,0,0,0-2.36-7.67c-9.4-25.06-32-20.73-32-20.73a106.44,106.44,0,0,0-22.46,5" style="fill:none;stroke:#263238;stroke-linecap:round;stroke-linejoin:round"></path><path d="M151.3,263.11s4.72-10.49,23.06-3.67,25.68,17.29,14.15,21S151.3,263.11,151.3,263.11Z" style="fill:#92E3A9;stroke:#263238;stroke-linecap:round;stroke-linejoin:round"></path><path d="M131.24,267.69c-4.53,3.11-8.89,8.12-11.9,16.14-9.4,25.06-8.32,86.92-8.32,86.92" style="fill:none;stroke:#263238;stroke-linecap:round;stroke-linejoin:round"></path><path d="M135.68,265.23a29.05,29.05,0,0,1,15.62-2.12s8-3.88,22.61,6.7" style="fill:none;stroke:#263238;stroke-linecap:round;stroke-linejoin:round"></path><path d="M71.88,247.29a74,74,0,0,1,13.3,24c12.52,36,17.22,82.22,14.87,99.45" style="fill:none;stroke:#263238;stroke-linecap:round;stroke-linejoin:round"></path><line x1="28.38" y1="229.81" x2="25.34" y2="229.57" style="fill:none;stroke:#263238;stroke-linecap:round;stroke-linejoin:round"></line><path d="M69.16,244.31c-11.06-11.3-22-13-22-13L31.3,230" style="fill:none;stroke:#263238;stroke-linecap:round;stroke-linejoin:round"></path><path d="M103.7,281c-.76,45.46-1.3,90.53-1.3,90.53" style="fill:none;stroke:#263238;stroke-linecap:round;stroke-linejoin:round"></path><path d="M133.48,154a25.64,25.64,0,0,1,6.14,2.49" style="fill:none;stroke:#263238;stroke-linecap:round;stroke-linejoin:round"></path><path d="M103.8,275.35c.52-30.06,1.13-59.48,1.73-75.31,1.57-40.72,4-38.43,4-38.43s7.38-8.13,18.17-8.28" style="fill:none;stroke:#263238;stroke-linecap:round;stroke-linejoin:round"></path><path d="M125,451.41H79.05a9.55,9.55,0,0,1-9.51-8.64L62.47,370h79.09l-7.07,72.8A9.57,9.57,0,0,1,125,451.41Z" style="fill:#263238;stroke:#263238;stroke-linecap:round;stroke-linejoin:round"></path><polygon points="64.82 394.24 65.66 402.86 138.36 402.86 139.2 394.24 64.82 394.24" style="fill:#fff;stroke:#263238;stroke-linecap:round;stroke-linejoin:round"></polygon><polygon points="136.54 421.65 136.99 416.95 67.03 416.95 67.48 421.65 136.54 421.65" style="fill:#fff;stroke:#263238;stroke-linecap:round;stroke-linejoin:round"></polygon><path d="M124.33,384.06a6.27,6.27,0,1,0,6.26-6.26A6.27,6.27,0,0,0,124.33,384.06Z" style="fill:#fff;stroke:#263238;stroke-linecap:round;stroke-linejoin:round"></path><path d="M74.21,390.33A6.27,6.27,0,1,0,68,384.06,6.27,6.27,0,0,0,74.21,390.33Z" style="fill:#fff;stroke:#263238;stroke-linecap:round;stroke-linejoin:round"></path><circle cx="93.01" cy="384.06" r="6.26" style="fill:#fff;stroke:#263238;stroke-linecap:round;stroke-linejoin:round"></circle><path d="M105.53,384.06a6.27,6.27,0,1,0,6.27-6.26A6.27,6.27,0,0,0,105.53,384.06Z" style="fill:#fff;stroke:#263238;stroke-linecap:round;stroke-linejoin:round"></path></g><g id="freepik--Graphics--inject-36"><g style="opacity:0.2"><circle cx="143.9" cy="69.87" r="21.73" style="fill:none;stroke:#000;stroke-linecap:round;stroke-linejoin:round"></circle><ellipse cx="143.9" cy="69.87" rx="9.56" ry="21.73" style="fill:none;stroke:#000;stroke-linecap:round;stroke-linejoin:round"></ellipse><path d="M128.93,54.27a21.74,21.74,0,0,0,30-.07" style="fill:none;stroke:#000;stroke-linecap:round;stroke-linejoin:round"></path><path d="M128.93,85.62a21.74,21.74,0,0,1,30,.07" style="fill:none;stroke:#000;stroke-linecap:round;stroke-linejoin:round"></path><line x1="122.17" y1="69.87" x2="165.62" y2="69.87" style="fill:none;stroke:#000;stroke-linecap:round;stroke-linejoin:round"></line></g><g style="opacity:0.2"><rect x="332.5" y="54.58" width="38.45" height="28.45" rx="4.02" style="fill:none;stroke:#000;stroke-linecap:round;stroke-linejoin:round"></rect><polyline points="371.05 74.11 384.22 81.72 384.22 55.9 371.02 63.52" style="fill:none;stroke:#000;stroke-linecap:round;stroke-linejoin:round"></polyline></g><g style="opacity:0.2"><path d="M462.92,74.29h0a6.05,6.05,0,0,1-6.05-6.05V56.85a6.05,6.05,0,0,1,6.05-6.05h0A6.05,6.05,0,0,1,469,56.85V68.24A6.05,6.05,0,0,1,462.92,74.29Z" style="fill:none;stroke:#000;stroke-linecap:round;stroke-linejoin:round"></path><path d="M453.31,68.46a9.61,9.61,0,1,0,19.22,0" style="fill:none;stroke:#000;stroke-linecap:round;stroke-linejoin:round;stroke-width:2px"></path><line x1="462.92" y1="78.07" x2="462.92" y2="86.26" style="fill:none;stroke:#000;stroke-linecap:round;stroke-linejoin:round;stroke-width:2px"></line><line x1="456.02" y1="86.81" x2="469.99" y2="86.81" style="fill:none;stroke:#000;stroke-linecap:round;stroke-linejoin:round;stroke-width:2px"></line></g><g style="opacity:0.2"><path d="M577.83,60.87a7.69,7.69,0,0,0-7.69-7.69H535.53a7.7,7.7,0,0,0-7.69,7.69V74.72a7.7,7.7,0,0,0,7.69,7.69h34.61a7.67,7.67,0,0,0,1.45-.14l6.24,9.85V75h0c0-.1,0-.2,0-.3Z" style="fill:none;stroke:#000;stroke-linecap:round;stroke-linejoin:round"></path><line x1="538.54" y1="62.75" x2="568.77" y2="62.75" style="fill:none;stroke:#000;stroke-linecap:round;stroke-linejoin:round"></line><line x1="538.54" y1="68.17" x2="568.77" y2="68.17" style="fill:none;stroke:#000;stroke-linecap:round;stroke-linejoin:round"></line><line x1="538.54" y1="73.58" x2="568.77" y2="73.58" style="fill:none;stroke:#000;stroke-linecap:round;stroke-linejoin:round"></line></g><g style="opacity:0.2"><path d="M221.06,60.87a7.7,7.7,0,0,1,7.7-7.69h34.6a7.69,7.69,0,0,1,7.69,7.69V74.72a7.69,7.69,0,0,1-7.69,7.69h-34.6a7.77,7.77,0,0,1-1.46-.14l-6.24,9.85V75h0c0-.1,0-.2,0-.3Z" style="fill:none;stroke:#000;stroke-linecap:round;stroke-linejoin:round"></path><line x1="260.36" y1="62.75" x2="230.12" y2="62.75" style="fill:none;stroke:#000;stroke-linecap:round;stroke-linejoin:round"></line><line x1="260.36" y1="68.17" x2="230.12" y2="68.17" style="fill:none;stroke:#000;stroke-linecap:round;stroke-linejoin:round"></line><line x1="260.36" y1="73.58" x2="230.12" y2="73.58" style="fill:none;stroke:#000;stroke-linecap:round;stroke-linejoin:round"></line></g></g><g id="freepik--Device--inject-36"><line x1="22" y1="452.22" x2="687" y2="452.22" style="fill:none;stroke:#263238;stroke-linecap:round;stroke-linejoin:round"></line><path d="M165.91,117H626a10.46,10.46,0,0,1,10.46,10.46V429.24a0,0,0,0,1,0,0h-481a0,0,0,0,1,0,0V127.46A10.46,10.46,0,0,1,165.91,117Z" style="fill:#636363;stroke:#263238;stroke-linecap:round;stroke-linejoin:round"></path><circle cx="395.88" cy="126.44" r="4.22" style="fill:#263238"></circle><path d="M160,204.87h0a1.21,1.21,0,0,1-1.2-1.21v-35a1.2,1.2,0,0,1,1.2-1.2h0a1.21,1.21,0,0,1,1.21,1.2v35A1.21,1.21,0,0,1,160,204.87Z" style="fill:#263238"></path><rect x="174.97" y="141.39" width="442.01" height="249.79" style="fill:#263238;stroke:#263238;stroke-linecap:round;stroke-linejoin:round"></rect><rect x="231.78" y="424.21" width="330.6" height="6.29" style="fill:#263238;stroke:#263238;stroke-linecap:round;stroke-linejoin:round"></rect><path d="M116.56,440.15s5.43,6.64,21.72,12.07H655.89s12.07-3,17.5-11.47Z" style="fill:#263238;stroke:#263238;stroke-linecap:round;stroke-linejoin:round"></path><rect x="115.45" y="428.26" width="559.1" height="12.68" rx="1.89" style="fill:#636363;stroke:#263238;stroke-linecap:round;stroke-linejoin:round"></rect></g><g id="freepik--character-6--inject-36"><rect x="472.14" y="268.59" width="139.1" height="115.11" style="fill:#fff"></rect><polygon points="527.78 345.45 516.12 354.86 515.92 383.81 567.87 383.81 565.21 352.2 553.14 343.82 527.78 345.45" style="fill:#263238;stroke:#263238;stroke-linecap:round;stroke-linejoin:round"></polygon><path d="M527,333.8s-.81,13.5,0,15.75,3.89,10,14.53,11C554,361.82,557,347.5,557,347.5l-.82-13.7s-8,1.84-14.72,1S526.76,333,526.76,333" style="fill:#fff;stroke:#263238;stroke-linecap:round;stroke-linejoin:round"></path><path d="M543.4,338.63l-11.56-5-5.08-.64.2.82s-.42,7-.35,11.79l16.79-2.84Z" style="fill:#263238;stroke:#263238;stroke-linecap:round;stroke-linejoin:round"></path><path d="M515.72,309.66s-1.44,4.5-.62,8,7.77,6.34,7.77,6.34.62,7.57,2.46,9.61,10,8.59,13.5,9.62,6.34,1,8.59-.41,10.63-7.16,11.86-10.23a88.38,88.38,0,0,0,2.66-9s4.09-.61,5.73-3.89,1.84-8.18,1.84-9.61-4.09-4.5-6.75-6.54-18.82-11.87-21.68-12.07-6.55.82-7.77,2S515.72,309.66,515.72,309.66Z" style="fill:#fff;stroke:#263238;stroke-linecap:round;stroke-linejoin:round"></path><path d="M538.07,324.39a7,7,0,0,0,4.71,1.63c2.66-.2,3.47-1.63,3.47-1.63" style="fill:none;stroke:#263238;stroke-linecap:round;stroke-linejoin:round"></path><path d="M536.44,328.89s4.91,3.27,11.86,0" style="fill:none;stroke:#263238;stroke-linecap:round;stroke-linejoin:round"></path><path d="M537.25,315s-3.88-4.91-9-1.64" style="fill:none;stroke:#263238;stroke-linecap:round;stroke-linejoin:round"></path><path d="M548.1,315.18a6.38,6.38,0,0,1,7.56-2.45" style="fill:none;stroke:#263238;stroke-linecap:round;stroke-linejoin:round"></path><path d="M535,313.75a1.43,1.43,0,1,0-1.43,1.43A1.43,1.43,0,0,0,535,313.75Z" style="fill:#263238"></path><path d="M553,313.75a1.43,1.43,0,1,0-1.43,1.43A1.43,1.43,0,0,0,553,313.75Z" style="fill:#263238"></path><path d="M539,309.87a11.21,11.21,0,0,0-11.45.61" style="fill:none;stroke:#263238;stroke-linecap:round;stroke-miterlimit:10;stroke-width:2px"></path><path d="M557.85,309.87a11.21,11.21,0,0,0-11.45.61" style="fill:none;stroke:#263238;stroke-linecap:round;stroke-miterlimit:10;stroke-width:2px"></path><path d="M538.42,294.93s-2.86,6.55-5.52,9.21-7.78,4.29-7.78,4.29a29.52,29.52,0,0,1-2.25,3.69c-.61.61-.4,7.15-.4,7.77s-2.46-1.84-2.46-3.27a22.05,22.05,0,0,0-.41-3.48,14.33,14.33,0,0,1-3.27-1.84c-.82-.82-1.84-.62-1.84-2.66v-3.48s-4.5-.61-3.68-4.91,9.61-19,17.59-22.09,13.09.21,13.09.21a22.07,22.07,0,0,1,13.09-2.66c7.56.82,17.79,15.13,19.84,21.88s0,12.07-1,12.28a32.86,32.86,0,0,1-3.88.2s-.21.61-1.84,1.84a13.91,13.91,0,0,1-4.5,1.84,11.62,11.62,0,0,1-.21,4.5,10.73,10.73,0,0,1-1.22,2.46l-.82-10.84a32.57,32.57,0,0,1-10-5.32,28,28,0,0,1-6.35-7s1.85,4.09,1,4.5S539.24,299,538.42,294.93Z" style="fill:#263238;stroke:#263238;stroke-linecap:round;stroke-linejoin:round"></path><path d="M526.56,347.91,524.1,383.7h-45s7.37-17.38,10.43-19.22,28-11.46,28-11.46,1.63-2.45,3.68-4.91S526.15,346.27,526.56,347.91Z" style="fill:#92E3A9;stroke:#263238;stroke-linecap:round;stroke-linejoin:round"></path><path d="M517.56,353a104.19,104.19,0,0,1-3.28,12.89c-1.63,4.29-3.68,6.75-3.47,7.57s2.86,1,4.5-1.23,5.72-8.18,7-8.18,2.25,8.59,2.25,8.59" style="fill:none;stroke:#263238;stroke-linecap:round;stroke-linejoin:round"></path><path d="M556.83,347.91l2.45,35.79h45s-7.36-17.38-10.43-19.22-28-11.46-28-11.46-1.64-2.45-3.69-4.91S557.24,346.27,556.83,347.91Z" style="fill:#92E3A9;stroke:#263238;stroke-linecap:round;stroke-linejoin:round"></path><path d="M565.83,353s1.63,8.59,3.27,12.89,3.68,6.75,3.48,7.57-2.87,1-4.5-1.23-5.73-8.18-7-8.18-2.25,8.59-2.25,8.59" style="fill:none;stroke:#263238;stroke-linecap:round;stroke-linejoin:round"></path></g><g id="freepik--character-5--inject-36"><rect x="325.95" y="268.59" width="139.1" height="115.11" style="fill:#fff"></rect><path d="M455,377.85s-.94-6.16-1.25-7.09-4.41-2.77-11-6.78-29.56-17.25-29.56-17.25H375.71S352.75,360,346.15,364s-10.69,5.86-11,6.78-1.26,7.09-1.26,7.09l-.31,5.85H455.28Z" style="fill:#263238;stroke:#263238;stroke-linecap:round;stroke-linejoin:round"></path><path d="M377.94,337.18s-5.24,1.54-5.55,3.69-3.69,9.56-3.69,9.56,3.69,6.47,6.47,12,2.77,7.09,3.69,7.09,10.48-12.33,11.4-13.25,6.78.62,6.78.62,9.55,14.79,11.1,14.79,8.93-18.8,8.93-23.42-6.16-10.48-6.16-10.48Z" style="fill:#fff;stroke:#263238;stroke-linecap:round;stroke-linejoin:round"></path><path d="M377,333.17s-.92,6.78.31,10.17,12.33,21,16.33,21,14.79-17,16.64-18.79,2.16-11.1,2.16-11.1-12,5.86-21.88,2.78S377,333.17,377,333.17Z" style="fill:#b8b8b8;stroke:#263238;stroke-linecap:round;stroke-linejoin:round"></path><path d="M387,336.06c-7.15-2.19-9.94-2.89-9.94-2.89s-.92,6.78.31,10.17a32.62,32.62,0,0,0,2.2,4.18L394.36,342Z" style="fill:#263238;stroke:#263238;stroke-linecap:round;stroke-linejoin:round"></path><path d="M374.55,304.82s-3.7-8.93-6.16-1.85,3.69,12,5.24,12.95S374.55,304.82,374.55,304.82Z" style="fill:#b8b8b8;stroke:#263238;stroke-linecap:round;stroke-linejoin:round"></path><path d="M415.53,304.82s3.7-8.93,6.16-1.85-3.69,12-5.24,12.95S415.53,304.82,415.53,304.82Z" style="fill:#b8b8b8;stroke:#263238;stroke-linecap:round;stroke-linejoin:round"></path><path d="M416.45,307.6s1.24-12.64-.3-22.5S401.36,270,391.5,271.85s-16.33,7.09-17.57,16-.3,36.35.31,40.67S385,341.8,396.73,341.8s18.18-11.4,19.11-14.79S416.45,307.6,416.45,307.6Z" style="fill:#b8b8b8;stroke:#263238;stroke-linecap:round;stroke-linejoin:round"></path><path d="M393.69,317.58s-12.69,3.69-15.46,4.84-4.38,3.23-4.38,7.84,5.53,9.46,8.3,11.31,11.31,5.53,18,3.69,14.07-6.69,16.61-11.07-.7-7.85-1.39-8.77-11.53-7.84-15-7.84Z" style="fill:#fff;stroke:#263238;stroke-linecap:round;stroke-linejoin:round"></path><path d="M390.69,313.65s-.92,2.54,0,3.23a11.22,11.22,0,0,0,6.23,1.62c3,0,3.46-1.39,4.15-2.31s-.46-2.54-.46-2.54" style="fill:#b8b8b8;stroke:#263238;stroke-linecap:round;stroke-linejoin:round"></path><path d="M386.77,324a26,26,0,0,0,8.53,2.54c4.62.46,9.92-2.54,9.92-2.54s.46,1.39-2.07,3.93-3.69,2.62-6.93,2.76C391.15,331,387.46,326.57,386.77,324Z" style="fill:#b8b8b8;stroke:#263238;stroke-linecap:round;stroke-linejoin:round"></path><path d="M386.77,324s4.61,0,7.61-.23,10.84.23,10.84.23S397.38,329.8,386.77,324Z" style="fill:#b8b8b8;stroke:#263238;stroke-linecap:round;stroke-linejoin:round"></path><path d="M387.46,304.31a1.42,1.42,0,1,1-1.39-1.73A1.58,1.58,0,0,1,387.46,304.31Z" style="fill:#263238"></path><ellipse cx="405.22" cy="304.31" rx="1.38" ry="1.73" style="fill:#263238"></ellipse><path d="M390.92,306.5a14.71,14.71,0,0,1-7.61,3.46" style="fill:none;stroke:#263238;stroke-linecap:round;stroke-linejoin:round"></path><path d="M400.84,307.66a11,11,0,0,0,7.84,3.23" style="fill:none;stroke:#263238;stroke-linecap:round;stroke-linejoin:round"></path><path d="M390.69,296.58a11.43,11.43,0,0,0-11.77,1.62" style="fill:none;stroke:#263238;stroke-linecap:round;stroke-linejoin:round;stroke-width:2px"></path><path d="M400.38,296.81a9.55,9.55,0,0,1,10.38,1.62" style="fill:none;stroke:#263238;stroke-linecap:round;stroke-linejoin:round;stroke-width:2px"></path></g><g id="freepik--character-4--inject-36"><rect x="179.75" y="268.59" width="139.1" height="115.11" style="fill:#fff"></rect><path d="M244.33,277.63s-5.32-3.93-12,.47-6.94,6.94-7.41,13.19-.46,7.63-4.16,11.57-9,8.09-8.1,16.89,13,11.57,16.43,11.57,15.5.69,15.5.69,15.74,3,25,.23a28.41,28.41,0,0,0,13.89-9s9.95-.7,9.26-13.42-9-12.73-13-16.66S277,277.63,268.4,273,244.56,267.68,244.33,277.63Z" style="fill:#263238;stroke:#263238;stroke-linecap:round;stroke-linejoin:round"></path><path d="M303.8,363.8c-4.16-5.55-9.72-5.78-19.67-8.33s-19.43-6-20.36-9-3-18.28-3-18.28L249.65,328v0H249v0l-11.11.22s-2.08,15.27-3,18.28-10.41,6.48-20.36,9-15.5,2.78-19.67,8.33-6.48,19.9-6.48,19.9H310.28S308,369.36,303.8,363.8Z" style="fill:#fff;stroke:#263238;stroke-linecap:round;stroke-linejoin:round"></path><path d="M250.38,338.93l-12.53-10.76s-1.34,9.81-2.34,15.25Z" style="fill:#263238;stroke:#263238;stroke-linecap:round;stroke-linejoin:round"></path><path d="M303.8,363.8c-4.16-5.55-9.72-5.78-19.67-8.33-.57-.14-1.14-.29-1.7-.45a49.17,49.17,0,0,1-32.31,13c-19.36.57-30.61-9.48-33.91-13l-1.73.45c-9.95,2.55-15.5,2.78-19.67,8.33s-6.48,19.9-6.48,19.9H310.28S308,369.36,303.8,363.8Z" style="fill:#92E3A9;stroke:#263238;stroke-linecap:round;stroke-linejoin:round"></path><path d="M245.49,290.82a27.57,27.57,0,0,1-6.48,7.41c-4.17,3.24-6.25,2.54-8.1,4.86s-.23,14.58.23,19.2,9.49,13.42,12,15.51,5.79,4.63,8.1,3.47,6.25-3,14.12-13c2.15-2.72,1.62-5.79,2.08-7.4a10.21,10.21,0,0,0,.47-2.55s-2.09,1.16-3.48-2.31.24-9.72-2.77-12-8.56-4.39-12-5.78S245.49,290.82,245.49,290.82Z" style="fill:#fff;stroke:#263238;stroke-linecap:round;stroke-linejoin:round"></path><path d="M246.65,321.83a5,5,0,0,0,3.93,2.31,2.78,2.78,0,0,0,2.78-2.54" style="fill:none;stroke:#263238;stroke-linecap:round;stroke-linejoin:round"></path><path d="M244.79,326.46s5.79,3.93,10.42,0" style="fill:none;stroke:#263238;stroke-linecap:round;stroke-linejoin:round"></path><path d="M242.25,311c0,1.28-.52,2.32-1.16,2.32s-1.15-1-1.15-2.32.51-2.31,1.15-2.31S242.25,309.68,242.25,311Z" style="fill:#263238"></path><path d="M259.84,311c0,1.28-.52,2.32-1.16,2.32s-1.16-1-1.16-2.32.52-2.31,1.16-2.31S259.84,309.68,259.84,311Z" style="fill:#263238"></path><circle cx="241.09" cy="310.49" r="6.94" style="fill:none;stroke:#263238;stroke-linecap:round;stroke-linejoin:round"></circle><circle cx="259.14" cy="310.49" r="6.94" style="fill:none;stroke:#263238;stroke-linecap:round;stroke-linejoin:round"></circle><path d="M248.27,309.1s2.54-1.85,3.93,0" style="fill:none;stroke:#263238;stroke-linecap:round;stroke-linejoin:round"></path><line x1="234.15" y1="310.49" x2="229.98" y2="310.49" style="fill:none;stroke:#263238;stroke-linecap:round;stroke-linejoin:round"></line><path d="M235.77,304a9.13,9.13,0,0,1,8.79-1.39" style="fill:none;stroke:#263238;stroke-linecap:round;stroke-linejoin:round"></path><path d="M254,303.43a9.13,9.13,0,0,1,8.9-.23" style="fill:none;stroke:#263238;stroke-linecap:round;stroke-linejoin:round"></path></g><g id="freepik--character-3--inject-36"><rect x="472.14" y="147.54" width="139.1" height="115.11" style="fill:#fff"></rect><path d="M605.81,262.65c-.14-1.86-.93-12-2.22-14.6-1.43-2.85-8-5.91-13.67-9.17s-23.86-14.48-26.51-16.11a39.66,39.66,0,0,0-7.14-3.06L542,218.92v0l-.31,0-.3,0v0l-14.28.79a39.66,39.66,0,0,0-7.14,3.06c-2.65,1.63-20.8,12.84-26.51,16.11s-12.24,6.32-13.66,9.17c-1.3,2.6-2.09,12.74-2.23,14.6Z" style="fill:#263238;stroke:#263238;stroke-linecap:round;stroke-linejoin:round"></path><path d="M539.34,262.65h6.44c4.46-7.34,12.2-20.17,13.35-22.75,1.63-3.67,1.83-13.46.41-17.34s-3.68-4.28-3.68-4.28l-27.93-.41s-4.08,5.71-4.08,8.16,5.3,19,7.75,23.66C533.05,252.47,536.65,258.33,539.34,262.65Z" style="fill:#fff;stroke:#263238;stroke-linecap:round;stroke-linejoin:round"></path><path d="M537.64,259.91l1.7,2.74h6.44l2.17-3.59-3.51-6.32,5.71-8-8.56-6.93-5.3,8.36,4.48,7.14Z" style="fill:#92E3A9;stroke:#263238;stroke-linecap:round;stroke-linejoin:round"></path><path d="M559.13,239.9c1.63-3.67,1.83-13.46.41-17.34s-3.68-4.28-3.68-4.28l-27.93-.41s-4.08,5.71-4.08,8.16,5.3,19,7.75,23.66c.3.58.71,1.31,1.17,2.13l9.64-9.07,10.07,8.78C555.62,246.26,558.47,241.39,559.13,239.9Z" style="fill:#fff;stroke:#263238;stroke-linecap:round;stroke-linejoin:round"></path><path d="M526.5,212s2,13.25,3.26,16.52,10.81,14.27,12.65,14.27,13.25-13.25,14.27-15.29,2.86-14.08,2.86-14.08-10,3.68-15.5,3.68S526.5,212,526.5,212Z" style="fill:#fff;stroke:#263238;stroke-linecap:round;stroke-linejoin:round"></path><path d="M543.75,223.91l-13.12-10.33c-2.42-.9-4.13-1.62-4.13-1.62s1.06,6.89,2.11,11.95Z" style="fill:#263238;stroke:#263238;stroke-linecap:round;stroke-linejoin:round"></path><path d="M522.83,192s-1.84-3.87-4.69-.61-.62,6.73,1.22,10.2,3.88,4.69,4.69,4.08S522.83,192,522.83,192Z" style="fill:none;stroke:#263238;stroke-linecap:round;stroke-linejoin:round"></path><path d="M564.28,192s1.84-3.87,4.69-.61.61,6.73-1.22,10.2-3.88,4.69-4.69,4.08S564.28,192,564.28,192Z" style="fill:#fff;stroke:#263238;stroke-linecap:round;stroke-linejoin:round"></path><path d="M530.78,165.66s-8.16,5.92-9.58,11,2,29.36,2.44,32.63,12,13.66,15.71,15.29,8.77.82,10.6,0,10.4-10.2,12-12.85,4.29-25.08,4.29-30.18-3.47-12.44-8-15.5-11-5.5-17.33-4.28A29.48,29.48,0,0,0,530.78,165.66Z" style="fill:#fff;stroke:#263238;stroke-linecap:round;stroke-linejoin:round"></path><path d="M537.91,203.8s-1.22.2.61,1.43,4.08,3.06,6.93,2.24,5.1-1.63,4.7-4.49" style="fill:none;stroke:#263238;stroke-linecap:round;stroke-linejoin:round"></path><path d="M536.07,211.14a24.39,24.39,0,0,0,15.71-.61" style="fill:none;stroke:#263238;stroke-linecap:round;stroke-linejoin:round"></path><ellipse cx="534.34" cy="193.81" rx="1.12" ry="1.84" style="fill:#263238"></ellipse><path d="M553.71,193.81c0,1-.5,1.83-1.12,1.83s-1.12-.82-1.12-1.83.5-1.84,1.12-1.84S553.71,192.79,553.71,193.81Z" style="fill:#263238"></path><path d="M530,188.5a9.16,9.16,0,0,1,8.16-1.63" style="fill:none;stroke:#263238;stroke-linecap:round;stroke-linejoin:round"></path><path d="M548.73,186.87s5.5-1.63,9.17,2.45" style="fill:none;stroke:#263238;stroke-linecap:round;stroke-linejoin:round"></path><path d="M521.2,176.68s2.24.4,2.65,5.91.81,12.64-.21,13-1-1-2.85-4.89S520,177.29,521.2,176.68Z" style="fill:#263238;stroke:#263238;stroke-linecap:round;stroke-linejoin:round"></path><path d="M565.25,177.08s-2,5.1-2.25,7.55-.41,11,1,11.42,1.84-1.63,2.86-9.38S566.06,176.27,565.25,177.08Z" style="fill:#263238;stroke:#263238;stroke-linecap:round;stroke-linejoin:round"></path><path d="M517.12,224.6a8.33,8.33,0,0,0-2.36,3.27c-1.86,8.08-1.86,15.53-3.72,23.6,3.1,3.11,8.07,1.86,12,4.13-2.64,1.81-2.77-.81,0,0L515.12,261" style="fill:none;stroke:#6b6b6b;stroke-linecap:round;stroke-linejoin:round"></path><path d="M566.27,224.4s5.71,8.15,6.73,13,4.28,14.28,4.28,14.28L563.82,256l11,5.3" style="fill:none;stroke:#6b6b6b;stroke-linecap:round;stroke-linejoin:round"></path></g><g id="freepik--character-2--inject-36"><rect x="325.95" y="147.54" width="139.1" height="115.11" style="fill:#fff"></rect><path d="M390,166.71s-3.73-5.28-8.38-.93-14.6,17.7-14,24.84,5.9,16.45,5.9,19.87-2.17,13,1.24,16.76,15.84,3.11,15.84,3.11l6.21-.31s14,3.72,20.8,0,4-21.12,3.11-23.91l-.94-2.79s2.18-14-1.86-22.36-9.62-12.42-15.21-13.35A93,93,0,0,0,390,166.71Z" style="fill:#263238;stroke:#263238;stroke-linecap:round;stroke-linejoin:round"></path><path d="M447.73,249.61c-3.42-3.73-11.8-5.59-23.29-11.18s-16.14-8.38-16.14-8.38c-4.82-1.78-11.3-.65-13.51-.18-2.21-.47-8.68-1.6-13.51.18,0,0-4.65,2.79-16.14,8.38s-19.87,7.45-23.29,11.18-4,13-4,13H451.76S451.14,253.33,447.73,249.61Z" style="fill:#92E3A9;stroke:#263238;stroke-linecap:round;stroke-linejoin:round"></path><path d="M386.25,225.39s-2.17-2.79-4.65-1.55-7.46,10.86-7.46,10.86.62,16.77,3.11,18,4.35-9.62,5-10.86,11.48,5.27,11.48,5.27l9.32-4.34s4,11.17,5.9,11.49,2.48-15.84,1.86-19.57-5-9.62-9-9.93a16.93,16.93,0,0,0-8.08,1.86Z" style="fill:#fff;stroke:#263238;stroke-linecap:round;stroke-linejoin:round"></path><path d="M383.46,215.77s.31,14.9,1.24,18.31,6.83,14,9.63,14.6,10.86-15.53,10.86-15.53l1.55-18.63S399.6,218.87,383.46,215.77Z" style="fill:#fff;stroke:#263238;stroke-linecap:round;stroke-linejoin:round"></path><path d="M395.7,219.27l-3.5-2.44a60.13,60.13,0,0,1-8.74-1.06s.13,6.31.48,11.65L398,223.14Z" style="fill:#263238;stroke:#263238;stroke-linecap:round;stroke-linejoin:round"></path><path d="M389.67,169.19s4-9,13.35-9.31,16.45,6.52,18.63,12.73,10.24,32,14,42.85,3.41,20.8-2.79,31-21.12,13-26.71,7.77-8.07-21.43-4.34-29.5,3.72-12.42,3.41-20.8-13.35-22.36-14.9-26.39A16.63,16.63,0,0,1,389.67,169.19Z" style="fill:#263238;stroke:#263238;stroke-linecap:round;stroke-linejoin:round"></path><path d="M376.94,196.52s-4.66-2.49-4.35,1.86,4,8.07,5.28,8.69l1.24.62Z" style="fill:none;stroke:#263238;stroke-linecap:round;stroke-linejoin:round"></path><path d="M390,172s-9,8.38-11.18,13.35a24.71,24.71,0,0,0-1.86,11.18,150.78,150.78,0,0,0,3.1,18.31c.93,3.11,7.55,9.31,14.91,9.94,8.1.69,14.28-10.25,14.28-10.25s2.17-16.76,2.17-18.63S392.77,186.89,390,172Z" style="fill:#fff;stroke:#263238;stroke-linecap:round;stroke-linejoin:round"></path><path d="M395.57,193.1s1.24,9,1.24,10.87-5.59.93-5.59.93" style="fill:none;stroke:#263238;stroke-linecap:round;stroke-linejoin:round"></path><path d="M389.67,208.62s5.59,3.11,8.07-.31" style="fill:none;stroke:#263238;stroke-linecap:round;stroke-linejoin:round"></path><path d="M388.12,194.19a1.43,1.43,0,1,1-1.4-1.71A1.57,1.57,0,0,1,388.12,194.19Z" style="fill:#263238"></path><path d="M402.4,194.19a1.43,1.43,0,1,1-1.4-1.71A1.57,1.57,0,0,1,402.4,194.19Z" style="fill:#263238"></path><path d="M382.84,190.31s.93-3.42,7.76-1.87" style="fill:none;stroke:#263238;stroke-linecap:round;stroke-linejoin:round"></path><path d="M397.12,189.37s4.35-3.72,9.62.94" style="fill:none;stroke:#263238;stroke-linecap:round;stroke-linejoin:round"></path></g><g id="freepik--character-1--inject-36"><rect x="179.75" y="147.54" width="139.1" height="115.11" style="fill:#fff"></rect><path d="M308.42,254c-3.52-8.69-7.87-12.62-7.87-12.62l-33.95-18L251.29,221v-.12l-.42.06-.41-.06V221l-15.32,2.36-33.94,18s-4.35,3.93-7.87,12.62l-3.52,8.7H311.94Z" style="fill:#fff;stroke:#263238;stroke-linecap:round;stroke-linejoin:round"></path><line x1="251.91" y1="234.5" x2="251.91" y2="260.79" style="fill:none;stroke:#263238;stroke-linecap:round;stroke-linejoin:round"></line><path d="M204.72,244.85s5,12,5.38,17.59" style="fill:none;stroke:#263238;stroke-linecap:round;stroke-linejoin:round"></path><path d="M296.62,244.64s-6.63,10.56-8.9,17.8" style="fill:none;stroke:#263238;stroke-linecap:round;stroke-linejoin:round"></path><ellipse cx="251.7" cy="178.51" rx="32.91" ry="30.53" style="fill:#263238;stroke:#263238;stroke-linecap:round;stroke-linejoin:round"></ellipse><polygon points="237 206.76 237.83 218.97 251.7 233.88 265.57 220.01 265.57 207.59 250.87 210.69 237 206.76" style="fill:#b8b8b8;stroke:#263238;stroke-linecap:round;stroke-linejoin:round"></polygon><polygon points="244.7 208.94 237 206.76 237.83 218.97 238.18 219.35 251.94 215.84 244.7 208.94" style="fill:#263238;stroke:#263238;stroke-linecap:round;stroke-linejoin:round"></polygon><path d="M234.93,187.49s-3.78-2.7-3.78,2.43a11,11,0,0,0,3.78,8.11Z" style="fill:#b8b8b8;stroke:#263238;stroke-linecap:round;stroke-linejoin:round"></path><path d="M267.35,187.49s3.78-2.7,3.78,2.43a11,11,0,0,1-3.78,8.11Z" style="fill:#b8b8b8;stroke:#263238;stroke-linecap:round;stroke-linejoin:round"></path><path d="M234.93,182.44s-.54,20,1.08,24.32,10.81,10,14.32,10.8,14.59-5.67,16.48-10,1.08-28.37,1.08-28.37-1.89-11.35-15.67-11.89S235.47,175.69,234.93,182.44Z" style="fill:#b8b8b8;stroke:#263238;stroke-linecap:round;stroke-linejoin:round"></path><path d="M247.36,199.73s-.54.81,1.08,1.89,5.4,2.16,7.56-1.35" style="fill:none;stroke:#263238;stroke-linecap:round;stroke-linejoin:round"></path><path d="M245.47,204.59s6.21,2.44,12.15,0" style="fill:none;stroke:#263238;stroke-linecap:round;stroke-linejoin:round"></path><path d="M244.88,189.06c0,1.11-.58,2-1.31,2s-1.31-.9-1.31-2,.59-2,1.31-2S244.88,188,244.88,189.06Z" style="fill:#263238"></path><path d="M260.16,189.06c0,1.11-.58,2-1.31,2s-1.31-.9-1.31-2,.59-2,1.31-2S260.16,188,260.16,189.06Z" style="fill:#263238"></path><path d="M248,185.68H237.36s-2.15.47-1.08,5.14c.72,3.15,8.42,2.43,10,2.43,3.11,0,3.62-4,3.12-6.39A1.49,1.49,0,0,0,248,185.68Z" style="fill:none;stroke:#263238;stroke-linecap:round;stroke-linejoin:round"></path><path d="M254.57,185.68h10.61s2.16.47,1.08,5.14c-.72,3.15-8.41,2.43-10,2.43-3.11,0-3.63-4-3.13-6.39A1.5,1.5,0,0,1,254.57,185.68Z" style="fill:none;stroke:#263238;stroke-linecap:round;stroke-linejoin:round"></path><line x1="248.47" y1="185.85" x2="253.84" y2="185.85" style="fill:none;stroke:#263238;stroke-linecap:round;stroke-linejoin:round"></line><path d="M249.66,187.88s1.19-2,3.34,0" style="fill:none;stroke:#263238;stroke-linecap:round;stroke-linejoin:round"></path><line x1="237.36" y1="185.68" x2="234.97" y2="187.05" style="fill:none;stroke:#263238;stroke-linecap:round;stroke-linejoin:round"></line><line x1="265.66" y1="185.97" x2="268.17" y2="187.4" style="fill:none;stroke:#263238;stroke-linecap:round;stroke-linejoin:round"></line><path d="M255.22,184.61s3.11-2.27,9.11,0" style="fill:none;stroke:#263238;stroke-linecap:round;stroke-linejoin:round;stroke-width:2px"></path><path d="M248.18,184.61s-5-2.27-9.73,0" style="fill:none;stroke:#263238;stroke-linecap:round;stroke-linejoin:round;stroke-width:2px"></path><polygon points="237.63 215.66 251.7 233.88 244.66 242.16 233.28 224.56 237.63 215.66" style="fill:#fff;stroke:#263238;stroke-linecap:round;stroke-linejoin:round"></polygon><polygon points="251.91 234.5 260.39 242.99 270.95 224.36 265.98 217.32 251.91 234.5" style="fill:#fff;stroke:#263238;stroke-linecap:round;stroke-linejoin:round"></polygon></g></svg>