<svg xmlns="http://www.w3.org/2000/svg" xmlns:xlink="http://www.w3.org/1999/xlink" viewBox="0 0 500 500"><defs><clipPath id="freepik--clip-path--inject-161"><path d="M197.46,117.3c-.34,13.44-1.5,31-5.1,38.5-7.14,14.92-28,23.21-29,12.17,0-.35-.05-.7-.06-1.06-.16-11.15,11.78-29.29,15.19-46.5,3.51-17.75,8-21.42,19-20.5C197.51,99.91,197.7,107.52,197.46,117.3Z" style="fill:#fff"></path></clipPath><clipPath id="freepik--clip-path-2--inject-161"><path d="M197.51,99.91s37.41-1.37,44.23,4.52c19.06,16.45-8.69,35.28-4.91,78.23L189,175.06s11.86-18.13,1.59-43C184.4,117,187.89,102.84,197.51,99.91Z" style="fill:#92E3A9"></path></clipPath><clipPath id="freepik--clip-path-3--inject-161"><path d="M230.63,277.5s-3,84.31-2.11,142.5a56.14,56.14,0,0,0,2.75,16.75c2.13,6.47,8.76,10.91,16.18,10.91h86.93A16.83,16.83,0,0,0,348.07,441c4.15-5.74,8.85-14.52,7.37-23.43C352.9,402.39,230.63,277.5,230.63,277.5Z" style="fill:#92E3A9"></path></clipPath><clipPath id="freepik--clip-path-4--inject-161"><path d="M181.25,203.67c-.19,1.42-.46,2.87-.8,4.36-5,22.1-11.06,36.16-11.06,36.16s1.89,14.06-16.57,14.32-22.53-20.4-16.58-40.68c0,0,3.52-18.74,11.3-31.08,3.08-4.91,6.84-8.8,11.31-10.12C173.52,172.31,184,184.13,181.25,203.67Z" style="fill:#757575"></path></clipPath><clipPath id="freepik--clip-path-5--inject-161"><path d="M164.37,191.45c16.34-39.17,16.08-73.59,30.39-91.68,0,0,3.45-1,5.87,0,0,0-9.84,15.33-13.13,27.89s-9.82,49-18.11,65.05" style="fill:#757575"></path></clipPath><clipPath id="freepik--clip-path-6--inject-161"><path d="M169.31,173.55a9.54,9.54,0,0,1-1.64-.14,5.57,5.57,0,0,1-4.8-5.39c0-.37-.05-.73-.06-1.1-.09-6,3.31-14.08,6.9-22.62,3.3-7.84,6.71-15.94,8.3-24,3.4-17.2,7.78-21.89,19.54-20.9a.5.5,0,0,1,.46.49c0,.07.19,7.73,0,17.41h0c-.34,13.46-1.51,31.1-5.15,38.71C187.86,166.37,176.53,173.55,169.31,173.55Zm25.2-73.28c-8.08,0-12.27,3.79-15.52,20.24-1.61,8.14-5,16.3-8.36,24.18-3.55,8.44-6.9,16.41-6.82,22.21,0,.35,0,.69.06,1a4.52,4.52,0,0,0,4,4.49c6.62,1.19,19-6.34,24.06-16.84,3.56-7.44,4.71-24.93,5.05-38.29.2-8.32.1-15.14.06-16.92C196.15,100.31,195.31,100.27,194.51,100.27Zm3,17h0Z" style="fill:#263238;clip-path:url(#freepik--clip-path--inject-161)"></path></clipPath><clipPath id="freepik--clip-path-7--inject-161"><path d="M236.83,183.16h-.08L189,175.55a.52.52,0,0,1-.38-.29.51.51,0,0,1,0-.48c.12-.18,11.59-18.21,1.55-42.49-3.81-9.2-4.2-18.67-1.06-25.33a13.51,13.51,0,0,1,8.25-7.53l.13,0c1.54-.06,37.69-1.31,44.58,4.64,10.47,9,7.13,18.85,2.5,32.42-4,11.74-9,26.34-7.25,46.15a.49.49,0,0,1-.15.41A.55.55,0,0,1,236.83,183.16Zm-47-8.48,46.42,7.39c-1.59-19.69,3.36-34.22,7.35-45.92,4.67-13.69,7.76-22.74-2.2-31.35-6.46-5.57-42.06-4.46-43.83-4.4a12.58,12.58,0,0,0-7.57,7c-3,6.41-2.63,15.57,1.07,24.52C200.26,154.09,191.81,171.19,189.85,174.68Z" style="fill:#263238;clip-path:url(#freepik--clip-path-2--inject-161)"></path></clipPath><clipPath id="freepik--clip-path-8--inject-161"><path d="M334.38,448.16H247.45c-7.62,0-14.47-4.62-16.65-11.25A56.41,56.41,0,0,1,228,420c-.85-57.53,2.08-141.68,2.11-142.52a.5.5,0,0,1,.86-.33c5,5.1,122.41,125.18,124.94,140.38,1.51,9.06-3.22,18-7.46,23.81A17.28,17.28,0,0,1,334.38,448.16ZM231.09,278.68c-.35,10.4-2.87,87.5-2.07,141.31a55.47,55.47,0,0,0,2.73,16.61c2,6.22,8.5,10.56,15.7,10.56h86.93a16.26,16.26,0,0,0,13.28-6.41c4.12-5.7,8.73-14.34,7.28-23.06C352.57,403.45,241.77,289.63,231.09,278.68Z" style="fill:#263238;clip-path:url(#freepik--clip-path-3--inject-161)"></path></clipPath><clipPath id="freepik--clip-path-9--inject-161"><path d="M152.48,259c-6.14,0-11-2.25-14.33-6.69-5.58-7.35-6.5-20.62-2.39-34.63,0-.14,3.62-18.93,11.36-31.21,3.53-5.62,7.43-9.1,11.59-10.33,6.29-1.85,12.12-.83,16.41,2.87,5.72,4.93,8.13,13.94,6.63,24.72-.19,1.4-.46,2.84-.81,4.4a235.52,235.52,0,0,1-11,36.12,13.2,13.2,0,0,1-3,9.54c-2.9,3.37-7.63,5.12-14.07,5.21Zm12.19-82.76a20,20,0,0,0-5.68.86c-3.92,1.16-7.63,4.49-11,9.91-7.64,12.11-11.19,30.72-11.23,30.9-4,13.76-3.18,26.69,2.22,33.8,3.23,4.25,7.87,6.38,13.86,6.29s10.63-1.72,13.34-4.86a12.33,12.33,0,0,0,2.74-8.89.63.63,0,0,1,0-.27c.06-.14,6.07-14.28,11-36.07.35-1.53.61-2.94.79-4.32h0c1.46-10.44-.83-19.12-6.28-23.82A14.69,14.69,0,0,0,164.67,176.25Z" style="fill:#263238;clip-path:url(#freepik--clip-path-4--inject-161)"></path></clipPath><clipPath id="freepik--clip-path-10--inject-161"><path d="M169.39,193.21a.46.46,0,0,1-.22-.06.49.49,0,0,1-.22-.67c6.21-12,11.54-36.06,15.06-51.95,1.18-5.31,2.2-9.89,3-13,2.93-11.17,11.09-24.66,12.85-27.49a10.44,10.44,0,0,0-4.82.17c-7.64,9.75-11.16,24.62-15.24,41.81-3.52,14.87-7.51,31.72-15,49.62a.5.5,0,0,1-.92-.38c7.44-17.83,11.42-34.64,14.93-49.47,4.12-17.39,7.68-32.4,15.53-42.33a.49.49,0,0,1,.25-.17c.15,0,3.65-1.06,6.2,0a.51.51,0,0,1,.23.73c-.1.15-9.83,15.41-13.06,27.75-.81,3.08-1.83,7.66-3,13-3.54,15.94-8.88,40-15.15,52.19A.5.5,0,0,1,169.39,193.21Z" style="fill:#263238;clip-path:url(#freepik--clip-path-5--inject-161)"></path></clipPath></defs><g id="freepik--background-simple--inject-161"><path d="M67.93,167.09s-27.88,72,11.3,144.5S199.11,422.39,263.7,455.14s131.66,16.8,163.53-36.84-11.84-91.93-11.9-168.42,11.45-96.74-30-161.36-143.06-78.93-219.9-31S67.93,167.09,67.93,167.09Z" style="fill:#fff;opacity:0.7000000000000001"></path><path d="M131,436c23.6,24.91,81.54,15.79,106.63,0,81.46-51.26,224.25-136.57,230.71-260.17,2.75-52.54-43.58-80.12-62.93-88.22-46.48-19.43-97.48-25.26-147.81-27.52-52.57-2.35-109-.52-156.31,25.13-17.93,9.72-34.85,22.18-46.44,39.19C43.05,141.67,36.28,162.24,34.48,183c-2.89,33.5,6.12,67.09,19.75,97.83s31.81,59.21,48.49,88.4C113.6,388.29,111.07,415,131,436Z" style="fill:#92E3A9"></path><path d="M131,436c23.6,24.91,81.54,15.79,106.63,0,81.46-51.26,224.25-136.57,230.71-260.17,2.75-52.54-43.58-80.12-62.93-88.22-46.48-19.43-97.48-25.26-147.81-27.52-52.57-2.35-109-.52-156.31,25.13-17.93,9.72-34.85,22.18-46.44,39.19C43.05,141.67,36.28,162.24,34.48,183c-2.89,33.5,6.12,67.09,19.75,97.83s31.81,59.21,48.49,88.4C113.6,388.29,111.07,415,131,436Z" style="fill:#fff;opacity:0.7000000000000001"></path></g><g id="freepik--Clouds--inject-161"><path d="M415,355.83a.41.41,0,0,1-.19,0c-1.07-.44-107.41-43.58-204.46-28.06a.51.51,0,0,1-.49-.22c-.21-.32-21.19-31.53-45.3-23.73a.49.49,0,0,1-.45-.08.52.52,0,0,1-.2-.43c0-.2.87-20.52-21.39-30.4s-41,4.87-41.23,5a.5.5,0,0,1-.8-.26c-.06-.23-6.63-23-21.88-29.74-6.69-2.93-14.13-2.37-22.1,1.67a.5.5,0,0,1-.45-.89c8.25-4.19,16-4.76,22.95-1.69,14.16,6.22,21,25.77,22.23,29.69,3.39-2.43,21-13.89,41.69-4.72s21.92,26.91,22,30.67c23.33-6.9,43.47,21,45.59,24.07,88.29-14,184.11,20.29,201.8,27.05l-13.46-11.21a.5.5,0,0,1-.15-.55c0-.11,3.74-10.87-4.63-19.25-5-5-7.39-5.31-8.38-5.08a1.52,1.52,0,0,0-1.08.87.49.49,0,0,1-.53.34.51.51,0,0,1-.44-.46c0-.21-1.65-20.92-9.63-22.19-8.24-1.31-18,2.67-18.06,2.71a.5.5,0,0,1-.36,0c-33.45-11.88-132.63-8.63-133.63-8.6a.52.52,0,0,1-.51-.44.5.5,0,0,1,.39-.55c48.42-10.69,127.5-10.17,133.56-10.11.47-1.31,2.45-6.24,8.53-16,6.53-10.47,22.16-6.34,25.34-5.36.67-3.9,5.34-25.66,26.27-28.89,22.83-3.53,31.39,9.23,31.47,9.36a.5.5,0,1,1-.83.54c-.09-.12-8.33-12.34-30.48-8.92s-25.49,28.37-25.53,28.62a.48.48,0,0,1-.23.37.5.5,0,0,1-.43,0c-.18-.06-17.9-6.18-24.73,4.77-7,11.21-8.53,16.08-8.55,16.13a.5.5,0,0,1-.48.35h0c-.8,0-77.88-.89-128.22,8.95,21.52-.49,99.09-1.49,128.21,8.75,1.42-.57,10.43-4,18.42-2.71,7.65,1.22,9.88,17.24,10.36,21.88a2.63,2.63,0,0,1,.94-.42c2.13-.5,5.27,1.3,9.32,5.34,8,8,5.54,18,5,20l15.57,13a.51.51,0,0,1,.1.65A.49.49,0,0,1,415,355.83Z" style="fill:#263238"></path><path d="M385,195.15a34.13,34.13,0,0,1-3.58-.19c-7.94-.88-12.18-2.86-13.17-3.37-1.07.41-5.67,1.83-12.93-.06-7.6-2-11.93-10.6-12.7-12.25l-42.48-5.74a.49.49,0,0,1-.43-.53.49.49,0,0,1,.49-.46H334.8c.83-1.07,4.78-5.87,10.11-7.6s11.63,1.91,13.25,2.91c1.62-1.83,9.72-10.13,20.32-6.05s12.16,14.23,12.41,16.53c2.52.13,15,1.41,36.09,13.94a.5.5,0,0,1-.51.86c-22.94-13.64-35.91-13.82-36-13.82a.5.5,0,0,1-.5-.48c0-.11-.66-11.8-11.81-16.09s-19.39,6-19.47,6.08a.51.51,0,0,1-.68.1c-.07-.05-7.25-4.81-12.75-3s-9.73,7.39-9.77,7.44a.49.49,0,0,1-.4.21H307.63L343,178.33a.51.51,0,0,1,.4.29c0,.1,4.39,9.92,12.14,11.94s12.47.05,12.51,0a.48.48,0,0,1,.45,0s4.28,2.39,13,3.35c13.31,1.47,21.42-5.93,21.5-6a.49.49,0,0,1,.7,0,.5.5,0,0,1,0,.71A29.19,29.19,0,0,1,385,195.15Z" style="fill:#263238"></path><path d="M47,185.66a.5.5,0,0,1-.48-.37.52.52,0,0,1,.35-.62c19.4-5.21,65.77-12,87.37-15.07L103,171.17a.5.5,0,0,1-.43-.2c-6-8.31-17.7-2.08-17.82-2a.5.5,0,0,1-.38,0,.53.53,0,0,1-.3-.25c-2.46-4.61-8.21-7.25-14-6.42A13.17,13.17,0,0,0,58.8,173.15a.5.5,0,1,1-1-.21,14.11,14.11,0,0,1,12.11-11.6c6-.86,12,1.81,14.76,6.52,2.26-1.08,12.65-5.45,18.5,2.3L145.75,168a.5.5,0,0,1,.09,1c-.73.1-73.15,9.78-98.67,16.63Z" style="fill:#263238"></path></g><g id="freepik--Floor--inject-161"><path d="M426.72,408.3a.51.51,0,0,1-.28-.09c-.79-.54-80-54.19-177.61-54.19s-180.14,47.43-181,47.9a.51.51,0,0,1-.69-.18.49.49,0,0,1,.18-.68c.83-.48,83.6-48,181.47-48S426.21,406.84,427,407.39a.51.51,0,0,1,.13.69A.52.52,0,0,1,426.72,408.3Z" style="fill:#263238"></path></g><g id="freepik--Plane--inject-161"><path d="M328.05,94.44a.54.54,0,0,1-.22,0c-.13-.06-12.75-6.16-16-6.52-3.89-.44-5.18.41-5.19.42a.55.55,0,0,1-.37.09c-2.31-.39-4.68-.41-5,0,0,0,0,.07.11.19a.51.51,0,0,1-.11.7.5.5,0,0,1-.7-.12,1.09,1.09,0,0,1-.16-1.29c.7-1.12,4.18-.71,5.84-.45.53-.28,2.13-.89,5.69-.48,3.25.36,14.57,5.77,16.16,6.53l3.78-1a.5.5,0,0,1,.61.35.49.49,0,0,1-.35.61l-4,1.07A.32.32,0,0,1,328.05,94.44Z" style="fill:#263238"></path><path d="M358.83,113.26l-.13,0C332.06,106.11,305.22,92,305,91.88a.49.49,0,0,1-.2-.67.49.49,0,0,1,.67-.21c.27.14,27,14.17,53.54,21.27a.51.51,0,0,1,.36.62A.52.52,0,0,1,358.83,113.26Z" style="fill:#263238"></path><path d="M357,108.68a.45.45,0,0,1-.2,0l-18.36-8a.5.5,0,0,1,0-.91l22.47-10.85-4.4-1.3a5.65,5.65,0,0,0-3,0l-14.8,3.5a.52.52,0,0,1-.61-.37.52.52,0,0,1,.37-.61l14.8-3.49a6.56,6.56,0,0,1,3.49,0l5.64,1.67a.5.5,0,0,1,.07.93L339.83,100.2l17.09,7.41,6-4.46a.5.5,0,0,1,.51-.05l2.6,1.2a.49.49,0,0,1,.25.63l-1,2.68a.5.5,0,0,1-.93-.35l.84-2.25-1.9-.88-5.95,4.45A.49.49,0,0,1,357,108.68Z" style="fill:#263238"></path><path d="M347.21,98.53a5.43,5.43,0,0,1-1.18-.2,91.59,91.59,0,0,1-11-3.64c-3.77-1.5-3.93-2-4-2.32a2.48,2.48,0,0,1,.92-2.25c.86-.86,2.21-1.67,3.05-1.46a.5.5,0,0,1,.37.6.51.51,0,0,1-.61.37,3.46,3.46,0,0,0-2.09,1.19c-.49.5-.75,1-.68,1.28h0a8.5,8.5,0,0,0,2,1.07.48.48,0,0,1-.12-.22.5.5,0,0,1,.37-.61c2.28-.55,2.45-2.09,2.45-2.15a.51.51,0,0,1,.28-.41.52.52,0,0,1,.5,0s1.17.78,2.73,1.86A76.72,76.72,0,0,1,347.24,97c.4.4.75.78.59,1.2a.61.61,0,0,1-.56.38Zm-12.9-5.2,1,.43a93.26,93.26,0,0,0,10.82,3.58c-1.12-1-3.38-2.63-6.59-4.85L337.44,91a4.06,4.06,0,0,1-3,2.29Z" style="fill:#263238"></path><path d="M322.22,107.57a5.66,5.66,0,0,1-.94-.13l-1.18-.25c-2.37-.55-5.88-1.58-8.35-2.45h-.05c-3.31-1.16-3.45-1.61-3.54-1.88a2.17,2.17,0,0,1,.72-2c.59-.65,1.77-1.55,2.62-1.38a.49.49,0,0,1,.38.58.5.5,0,0,1-.58.4,3.17,3.17,0,0,0-1.69,1.09c-.42.47-.55.86-.5,1h0a13.25,13.25,0,0,0,2.9,1.23l.05,0c2.44.86,5.92,1.88,8.27,2.42l.77.17c-1.44-1.09-4.1-2.78-5.56-3.7l-1.19-.74-1.2-.74a.5.5,0,1,1,.52-.85l1.21.74,1.19.75c1.48.92,4.2,2.65,5.66,3.77.24.18.44.34.61.49.35.32.68.66.54,1.07a.58.58,0,0,1-.53.39Zm0-1h0Z" style="fill:#263238"></path><path d="M337.05,101.81c-2.1,0-9.34-3.63-10.58-5.13a.94.94,0,0,1-.24-1,.52.52,0,0,1,.67-.25.5.5,0,0,1,.28.53c.61,1.12,8.77,5.12,9.91,4.84a.51.51,0,0,1,.6.37.5.5,0,0,1-.37.6A1.06,1.06,0,0,1,337.05,101.81Z" style="fill:#263238"></path><path d="M306.22,111.82a.5.5,0,0,1-.24-.06c-.74-.39-3.17-1.75-3.5-2.75-.16-.48-.31-.9,7.11-5.87a.49.49,0,0,1,.69.13.5.5,0,0,1-.13.7c-5,3.37-6.32,4.49-6.64,4.86a11.19,11.19,0,0,0,2.76,2l22.93-7.46a.49.49,0,0,1,.63.32.5.5,0,0,1-.32.63l-23.14,7.53Zm-2.79-3.13Z" style="fill:#263238"></path><path d="M311.29,103.15a.5.5,0,0,1-.5-.5.51.51,0,0,1,.5-.5c1.25,0,1.63-1.48,1.64-1.5a.45.45,0,0,1,.21-.29,21.45,21.45,0,0,1,4.18-2.23.5.5,0,1,1,.34.94,21.73,21.73,0,0,0-3.82,2A2.81,2.81,0,0,1,311.29,103.15Z" style="fill:#263238"></path><path d="M360,112.84a.5.5,0,0,1-.49-.38.5.5,0,0,1,.37-.6l8.25-2.09c-1.26-.45-2.35-.82-2.57-.85l-10,.35a.5.5,0,0,1,0-1c.39,0,9.7-.35,10.08-.35a36.2,36.2,0,0,1,4.41,1.47.51.51,0,0,1,.32.5.49.49,0,0,1-.38.45l-9.82,2.49Z" style="fill:#263238"></path><path d="M349.28,115.5a.37.37,0,0,1-.15,0c-2.11-.67-3.3-1.19-3.56-1.56a.7.7,0,0,1-.08-.47c.05-.21.2-.78,4.59-3a.5.5,0,1,1,.46.89,35.6,35.6,0,0,0-3.83,2.21c.53.25,1.61.65,2.58,1l6.73-1.75a.51.51,0,0,1,.61.36.5.5,0,0,1-.36.61l-6.87,1.78Z" style="fill:#263238"></path><path d="M309.21,88.73h-.09l-.47-.08a.49.49,0,0,1-.42-.56.5.5,0,0,1,.56-.43l.51.09a.51.51,0,0,1,.4.59A.49.49,0,0,1,309.21,88.73Z" style="fill:#263238"></path><path d="M322.06,93.4a.54.54,0,0,1-.22-.05L321,93a.5.5,0,0,1-.24-.67.51.51,0,0,1,.67-.24l.82.4a.5.5,0,0,1,.24.67A.52.52,0,0,1,322.06,93.4Zm-2.49-1.15a.65.65,0,0,1-.2,0l-.83-.37a.5.5,0,0,1-.27-.65.51.51,0,0,1,.66-.27l.84.37a.5.5,0,0,1-.2,1Zm-2.52-1.07a.58.58,0,0,1-.19,0l-.84-.33a.5.5,0,1,1,.35-.93l.86.33a.5.5,0,0,1-.18,1Zm-2.57-1a.51.51,0,0,1-.17,0c-.29-.11-.58-.2-.85-.29a.5.5,0,0,1-.32-.64.49.49,0,0,1,.63-.31l.87.29a.51.51,0,0,1,.31.64A.49.49,0,0,1,314.48,90.23Zm-2.61-.84-.14,0-.87-.24a.5.5,0,0,1,.25-1l.9.25a.51.51,0,0,1,.34.62A.49.49,0,0,1,311.87,89.39Z" style="fill:#263238"></path><path d="M324.15,94.44a.64.64,0,0,1-.23,0l-.44-.23a.5.5,0,1,1,.45-.89l.45.22a.51.51,0,0,1,.21.68A.5.5,0,0,1,324.15,94.44Z" style="fill:#263238"></path></g><g id="freepik--Character--inject-161"><path d="M169.13,199.15s18.07-18.4,23.09-61.91h3.36s-5.11,48.38-22.86,66.87" style="fill:#757575"></path><path d="M172.72,204.61a.49.49,0,0,1-.34-.14.5.5,0,0,1,0-.71c16.41-17.1,22-60.61,22.66-66h-2.35c-5.06,42.87-23,61.58-23.18,61.76a.5.5,0,1,1-.71-.7c.18-.18,18-18.81,22.94-61.62a.51.51,0,0,1,.5-.44h3.36a.51.51,0,0,1,.37.16.56.56,0,0,1,.13.39c-.06.49-5.34,48.76-23,67.17A.51.51,0,0,1,172.72,204.61Z" style="fill:#263238"></path><path d="M197.46,117.3c-.34,13.44-1.5,31-5.1,38.5-7.14,14.92-28,23.21-29,12.17,0-.35-.05-.7-.06-1.06-.16-11.15,11.78-29.29,15.19-46.5,3.51-17.75,8-21.42,19-20.5C197.51,99.91,197.7,107.52,197.46,117.3Z" style="fill:#fff"></path><path d="M169.31,173.55a9.54,9.54,0,0,1-1.64-.14,5.57,5.57,0,0,1-4.8-5.39c0-.37-.05-.73-.06-1.1-.09-6,3.31-14.08,6.9-22.62,3.3-7.84,6.71-15.94,8.3-24,3.4-17.2,7.78-21.89,19.54-20.9a.5.5,0,0,1,.46.49c0,.07.19,7.73,0,17.41h0c-.34,13.46-1.51,31.1-5.15,38.71C187.86,166.37,176.53,173.55,169.31,173.55Zm25.2-73.28c-8.08,0-12.27,3.79-15.52,20.24-1.61,8.14-5,16.3-8.36,24.18-3.55,8.44-6.9,16.41-6.82,22.21,0,.35,0,.69.06,1a4.52,4.52,0,0,0,4,4.49c6.62,1.19,19-6.34,24.06-16.84,3.56-7.44,4.71-24.93,5.05-38.29.2-8.32.1-15.14.06-16.92C196.15,100.31,195.31,100.27,194.51,100.27Zm3,17h0Z" style="fill:#263238"></path><g style="clip-path:url(#freepik--clip-path-6--inject-161)"><path d="M197.46,117.3c-.34,13.44-1.5,31-5.1,38.5-7.14,14.92-28,23.21-29,12.17,0-.35-.05-.7-.06-1.06,18.38-9.12,25.16-46.68,25.16-46.68Z" style="fill:#92E3A9;opacity:0.4"></path></g><path d="M180.45,162.78a.5.5,0,0,1-.36-.85c0-.05,5.38-5.52,5.38-9.65,0-4.44,5.34-17.57,5.57-18.13a.51.51,0,0,1,.65-.27.5.5,0,0,1,.28.65c-.06.14-5.5,13.51-5.5,17.75,0,4.54-5.43,10.12-5.67,10.35A.47.47,0,0,1,180.45,162.78Z" style="fill:#263238"></path><path d="M197.51,99.91s37.41-1.37,44.23,4.52c19.06,16.45-8.69,35.28-4.91,78.23L189,175.06s11.86-18.13,1.59-43C184.4,117,187.89,102.84,197.51,99.91Z" style="fill:#92E3A9"></path><path d="M236.83,183.16h-.08L189,175.55a.52.52,0,0,1-.38-.29.51.51,0,0,1,0-.48c.12-.18,11.59-18.21,1.55-42.49-3.81-9.2-4.2-18.67-1.06-25.33a13.51,13.51,0,0,1,8.25-7.53l.13,0c1.54-.06,37.69-1.31,44.58,4.64,10.47,9,7.13,18.85,2.5,32.42-4,11.74-9,26.34-7.25,46.15a.49.49,0,0,1-.15.41A.55.55,0,0,1,236.83,183.16Zm-47-8.48,46.42,7.39c-1.59-19.69,3.36-34.22,7.35-45.92,4.67-13.69,7.76-22.74-2.2-31.35-6.46-5.57-42.06-4.46-43.83-4.4a12.58,12.58,0,0,0-7.57,7c-3,6.41-2.63,15.57,1.07,24.52C200.26,154.09,191.81,171.19,189.85,174.68Z" style="fill:#263238"></path><g style="clip-path:url(#freepik--clip-path-7--inject-161)"><path d="M236.83,182.66,189,175.06s6.69-10.23,5.67-25.85c2.26.72,6.4,1.39,12.36-.2a126.41,126.41,0,0,0,12.85-4.26,1.49,1.49,0,0,1,1.6,2.45c-4,4-9.85,9.1-14.45,10.15-7.85,1.78,5,5.74,8.44,3.63s13.81,4.45,13.81,4.45-2.1-5.31-2.36-5.54,4.78,0,4.78,0,9.78-16.58,7.09-18.7-6.21-12.42-7.09-16.11-22.27-8.18-27.64-15.2,0,7.29,0,7.29-11.12,1.74-16.54-1.62c.47-7.86,4.06-13.87,9.95-15.67,0,0,37.41-1.37,44.23,4.52C260.8,120.88,233.05,139.71,236.83,182.66Z" style="opacity:0.15"></path></g><path d="M242.4,105.9c11.48-4.91,15.2,20.83,15.73,26.27s8.18,15.29,10,24.54,7.07,40.81,13.78,46.08-19.95,7.44-19.18,2.65c2.63-16.22-16.79-38.37-17.48-44.4s-.93-15.33-.93-15.33S228.58,111.81,242.4,105.9Z" style="fill:#fff"></path><path d="M270.73,208.6a21.08,21.08,0,0,1-6.27-.76c-2-.7-2.32-1.73-2.2-2.48,1.73-10.72-6.28-24-12.13-33.71-2.86-4.73-5.11-8.47-5.35-10.56-.65-5.64-.91-14.23-.94-15.26-.85-1.87-10.82-24-6.57-35.08a9,9,0,0,1,4.94-5.31,6.66,6.66,0,0,1,6.31.28c7.89,4.67,10,25.52,10.11,26.4.24,2.45,2,5.88,4,9.85,2.33,4.52,5,9.66,6,14.65.2,1,.45,2.35.74,3.88,2.29,12.11,7.05,37.33,12.86,41.89,1.51,1.19,1.41,2.22,1.05,2.87C282.09,207.48,276,208.6,270.73,208.6ZM242.6,106.36a8.09,8.09,0,0,0-4.4,4.75c-4.19,11,6.48,34.16,6.59,34.39a.46.46,0,0,1,.05.2c0,.09.25,9.34.93,15.28.21,1.87,2.53,5.71,5.21,10.16,5.93,9.83,14.06,23.3,12.27,34.38-.11.67.78,1.11,1.54,1.37,4.8,1.64,16.34.27,17.62-2.1.1-.17.38-.69-.79-1.61-6.11-4.79-10.91-30.26-13.22-42.5l-.74-3.87c-1-4.85-3.58-9.92-5.87-14.39-2.09-4-3.9-7.56-4.16-10.2-.71-7.33-3.65-22.11-9.62-25.64a5.65,5.65,0,0,0-5.41-.22Zm-.2-.46h0Z" style="fill:#263238"></path><path d="M224.85,367.59a14.13,14.13,0,0,1,0,6.19c-.76,3.53,1.84,9.47-1.21,9.77s-10.75,1.4-11.43-2.42,1.34-9.77,1.34-9.77-2.19-7.05,1-8.72S225.28,362.57,224.85,367.59Z" style="fill:#92E3A9"></path><path d="M218.34,384.42c-3.1,0-6.16-.6-6.62-3.21-.64-3.6,1-8.87,1.3-9.85-.32-1.11-2-7.45,1.34-9.16,2.27-1.17,6.22-.8,8.62.8a4.88,4.88,0,0,1,2.37,4.54,14.71,14.71,0,0,1,0,6.35,15.09,15.09,0,0,0,.1,4.47c.25,2.12.47,3.95-.36,5a1.93,1.93,0,0,1-1.4.7l-.76.08A45.3,45.3,0,0,1,218.34,384.42Zm-.7-21.91a6.28,6.28,0,0,0-2.82.58c-2.34,1.2-1.37,6.27-.8,8.13a.51.51,0,0,1,0,.3c0,.06-2,5.87-1.32,9.52.55,3.08,7,2.41,10.12,2.08l.77-.07a1,1,0,0,0,.71-.34c.57-.7.36-2.5.15-4.24a15.51,15.51,0,0,1-.09-4.79,14.06,14.06,0,0,0,0-6,.37.37,0,0,1,0-.18,4,4,0,0,0-1.93-3.71A9,9,0,0,0,217.64,362.51Z" style="fill:#263238"></path><path d="M244.63,215.8c0,1.12,0,2.24,0,3.38-.82,34.08-13.33,74.88-15.3,83.17-2.26,9.53.73,19.52-.83,31.17-1.5,11.29-5.89,34.07-5.89,34.07s-6.91,2.51-7.41-2.48c0,0,2.14-7.8-1.19-30.54-1.63-11.2,2.89-24.09,1.39-31.3-1.27-6.07-2.58-41.29-6.65-57.64-.29.71-.57,1.44-.81,2.17-6.28,18.17,0,41.79-3.55,66.58,0,0,2,27.5,0,35.65-3.84,15.91-.23,54.13-.23,54.13l-16.58,1.37s-9.2-50.62-9.86-64c-.75-15.21,4-25.32,2.77-38.63-1.46-15.69-8.27-53-9-62.4-3.33-44,19.39-69,19.39-69s11.94-4.13,23.24-2.62c13.73,1.83,22,6.89,22,6.89C241.05,181,246.13,200.64,244.63,215.8Z" style="fill:#263238"></path><path d="M220.59,381.24a16.93,16.93,0,0,1-5.85-1.14.5.5,0,0,1-.28-.65.51.51,0,0,1,.66-.27s5.81,2.33,9.71,0a.5.5,0,0,1,.68.17.51.51,0,0,1-.17.69A9.27,9.27,0,0,1,220.59,381.24Z" style="fill:#263238"></path><path d="M219.28,373.72a11.52,11.52,0,0,1-6-2,.51.51,0,0,1-.11-.7.49.49,0,0,1,.69-.11s4.7,3.26,8.88.85a.52.52,0,0,1,.69.19.51.51,0,0,1-.19.68A7.78,7.78,0,0,1,219.28,373.72Z" style="fill:#263238"></path><path d="M229.29,302.35c-2.26,9.53.73,19.52-.83,31.17-1.5,11.29-5.89,34.07-5.89,34.07s-6.91,2.51-7.41-2.48c0,0,2.14-7.8-1.19-30.54-1.63-11.2,2.89-24.09,1.39-31.3-1.27-6.07-2.58-41.29-6.65-57.64-.29.71-.57,1.44-.81,2.17V236.93s2.71-4.4,2.68-6.15a19,19,0,0,1,1.13-4.89s20.75,6.77,32.88-6.71C243.77,253.26,231.26,294.06,229.29,302.35Z" style="opacity:0.30000000000000004"></path><path d="M184.26,417.61c-4.11-10.93-5.51-25.65-1-33.39,0,0-3.12-2.41-.29-7.46,1.68-3,15.68-6.18,19.14-2.06s-.72,7.12-.72,7.12,4.69-.69,4.69,20C206.09,417.31,184.26,417.61,184.26,417.61Z" style="fill:#92E3A9"></path><path d="M184.26,418.11a.5.5,0,0,1-.47-.32c-4-10.58-5.6-25.37-1.15-33.49-.77-.84-2.52-3.44-.09-7.78,1.14-2,6.62-3.76,11-4.17,2.5-.24,7-.29,8.92,2a5.32,5.32,0,0,1,1.45,4.15,5.48,5.48,0,0,1-1.56,3.07,2.85,2.85,0,0,1,.44.32c1.72,1.48,3.76,6.13,3.76,19.86,0,15.84-22.1,16.33-22.33,16.33Zm11.55-44.87c-.67,0-1.39,0-2.14.1-5.1.48-9.5,2.32-10.25,3.67-2.57,4.58,0,6.72.16,6.81a.52.52,0,0,1,.12.65c-4.49,7.68-2.95,22.15.9,32.63,2.77-.13,21-1.52,21-15.32s-2.07-17.83-3.31-19a1.34,1.34,0,0,0-.83-.46.46.46,0,0,1-.52-.31.49.49,0,0,1,.18-.59,5,5,0,0,0,1.85-3,4.4,4.4,0,0,0-1.23-3.38C200.76,373.86,198.65,373.24,195.81,373.24Z" style="fill:#263238"></path><path d="M186.57,391.6c7.1-10.42,17.59-6.63,19.19,2.8s2.23,16.55,3.32,28-2.85,13.11-12.33,14.33S177.54,404.86,186.57,391.6Z" style="fill:#757575"></path><path d="M196.23,437.27c-2.45,0-5-2-7.28-5.76-5.69-9.28-9.71-30-2.79-40.19h0c3.36-4.93,7.78-7.21,12.15-6.26,4,.88,7.14,4.51,7.94,9.26,1.51,8.85,2.15,15.64,3.13,25.92l.2,2.11c1.12,11.78-3.24,13.65-12.76,14.88A5.85,5.85,0,0,1,196.23,437.27Zm.13-51.42c-3.37,0-6.71,2.13-9.38,6h0c-6.69,9.84-2.74,30.05,2.82,39.11,2.25,3.66,4.7,5.53,6.89,5.25,9.27-1.2,12.95-2.78,11.89-13.79l-.2-2.12c-1-10.25-1.62-17-3.11-25.84-.75-4.41-3.5-7.65-7.18-8.45A8.41,8.41,0,0,0,196.36,385.85Zm-9.79,5.75h0Z" style="fill:#263238"></path><path d="M187,399.22a.5.5,0,0,1-.11-1c.11,0,11.35-2.62,17.19-3.11a.52.52,0,0,1,.54.46.5.5,0,0,1-.46.54c-5.77.48-16.93,3.06-17,3.08Z" style="fill:#263238"></path><path d="M186,408.24a.5.5,0,0,1-.49-.41.49.49,0,0,1,.4-.58c.57-.11,14-2.54,18.1-3a.5.5,0,0,1,.55.45.52.52,0,0,1-.45.55c-4.11.41-17.88,2.91-18,2.94Z" style="fill:#263238"></path><path d="M187,416a.5.5,0,0,1-.06-1c6.9-.95,17.62-2.72,18.86-3.71a.5.5,0,0,1,.62.79c-1.85,1.47-17.56,3.66-19.35,3.91Z" style="fill:#263238"></path><path d="M188.11,424.08a.5.5,0,0,1-.07-1c4.63-.72,17.09-2.83,19-4a.51.51,0,0,1,.69.18.51.51,0,0,1-.18.69c-2.5,1.46-18.7,4-19.39,4.08Z" style="fill:#263238"></path><path d="M191.5,429.35a.49.49,0,0,1-.49-.41.51.51,0,0,1,.41-.58c.13,0,12.6-2.08,15.72-3.36a.5.5,0,0,1,.65.27.51.51,0,0,1-.27.66c-3.22,1.32-15.42,3.33-15.93,3.42Z" style="fill:#263238"></path><path d="M195.07,434.06a.5.5,0,0,1-.11-1c.11,0,10.95-2.55,12.26-2.83a.5.5,0,0,1,.6.38.51.51,0,0,1-.39.6c-1.3.28-12.14,2.8-12.25,2.82Z" style="fill:#263238"></path><path d="M186,381.63a.49.49,0,0,1-.41-.22.51.51,0,0,1,.13-.7c.38-.25,9.16-6,15.15-1.47a.51.51,0,0,1,.1.7.5.5,0,0,1-.7.1c-5.42-4.12-13.9,1.45-14,1.5A.49.49,0,0,1,186,381.63Z" style="fill:#263238"></path><path d="M182.09,397.58H182a.5.5,0,0,1-.44-.55c0-.13,1.56-12.19,10.76-14s10.45,2.83,10.49,3a.5.5,0,0,1-.38.6.52.52,0,0,1-.6-.39c0-.15-1-3.86-9.32-2.25-8.48,1.64-9.94,13-10,13.09A.5.5,0,0,1,182.09,397.58Z" style="fill:#263238"></path><path d="M225.07,249.61a.48.48,0,0,1-.28-.08c-11.48-7.54-14.55-15.62-14.68-16a.5.5,0,0,1,.3-.64.49.49,0,0,1,.64.29c0,.08,3.1,8.13,14.29,15.48a.49.49,0,0,1-.27.91Z" style="fill:#fff"></path><path d="M218.63,312.55h0a.5.5,0,0,1-.5-.5A11,11,0,0,1,225,301.6a.51.51,0,0,1,.63.32.5.5,0,0,1-.31.63,9.83,9.83,0,0,0-6.21,9.5A.5.5,0,0,1,218.63,312.55Z" style="fill:#fff"></path><path d="M184.09,311.37a.52.52,0,0,1-.27-.07.51.51,0,0,1-.16-.69c.05-.08,4.81-7.44,11.8-5.49a.51.51,0,0,1,.35.62.5.5,0,0,1-.62.34c-6.27-1.75-10.64,5-10.68,5.06A.51.51,0,0,1,184.09,311.37Z" style="fill:#fff"></path><path d="M197,298.29a.49.49,0,0,1-.49-.41c-1.2-6.61-8.64-10.47-8.71-10.5a.5.5,0,0,1-.22-.68.49.49,0,0,1,.67-.21c.32.16,8,4.12,9.24,11.21a.5.5,0,0,1-.4.58Z" style="fill:#fff"></path><path d="M207.07,244.69a.5.5,0,0,1-.33-.12c-.09-.08-9-7.73-24.61-8.44a.5.5,0,1,1,.05-1c16,.73,25.13,8.61,25.22,8.69a.5.5,0,0,1,0,.7A.46.46,0,0,1,207.07,244.69Z" style="fill:#fff"></path><path d="M228.22,232.48c-6,0-12.05-2.67-16.62-6-15.33,3.8-26.49,2.27-34.12-4.65a.5.5,0,1,1,.67-.74c7.4,6.71,18.34,8.14,33.44,4.37a.48.48,0,0,1,.42.08c6.89,5.17,17.26,8.72,25.71,3.22a.5.5,0,1,1,.54.83A18.05,18.05,0,0,1,228.22,232.48Z" style="fill:#fff"></path><path d="M211.84,217.52h-.11a.5.5,0,0,1-.38-.6c2.71-11.62,0-30,0-30.16a.5.5,0,0,1,.43-.56.49.49,0,0,1,.56.42c0,.18,2.75,18.72,0,30.53A.5.5,0,0,1,211.84,217.52Z" style="fill:#fff"></path><path d="M191.5,206.77a.5.5,0,0,1-.26-.08l-9-5.73a.52.52,0,0,1-.23-.42c0-.23,0-5.72,1.63-9.3a.5.5,0,0,1,.67-.24.49.49,0,0,1,.24.66c-1.37,3-1.52,7.46-1.54,8.6l8.51,5.42,8.66-5.45,2.06-13.15c-10.67-2-16,0-16.07.06a.51.51,0,0,1-.65-.27.5.5,0,0,1,.28-.65c.23-.1,5.79-2.29,17.11,0a.5.5,0,0,1,.39.57l-2.17,13.85a.49.49,0,0,1-.23.35l-9.12,5.73A.5.5,0,0,1,191.5,206.77Z" style="fill:#fff"></path><path d="M233.68,210.58a.47.47,0,0,1-.28-.09l-8.62-6a.5.5,0,0,1-.2-.51c.53-2.5-2.1-12.53-3.16-16.19a.51.51,0,0,1,.35-.62.5.5,0,0,1,.61.35c.16.53,3.64,12.61,3.23,16.33l8,5.55,4.7-4.65c-.28-3.77-1.38-13.15-3.51-15.42a75.16,75.16,0,0,0-9.63-1.17.51.51,0,0,1-.5-.5.5.5,0,0,1,.5-.5,76.59,76.59,0,0,1,10,1.22.48.48,0,0,1,.26.12c3,2.83,3.89,15.86,3.93,16.41a.48.48,0,0,1-.15.39L234,210.44A.5.5,0,0,1,233.68,210.58Z" style="fill:#fff"></path><path d="M231.74,177.64a.58.58,0,0,1-.18,0c-16.75-6.62-39.72-1.71-39.95-1.66a.5.5,0,0,1-.59-.38.5.5,0,0,1,.38-.6c.23-.05,23.5-5,40.53,1.71a.5.5,0,0,1-.19,1Z" style="fill:#fff"></path><path d="M284.48,204.83c3,3.16,6.15,15.46.87,15s-20.8-10.49-20.8-10.49Z" style="fill:#fff"></path><path d="M285.61,220.38h-.3c-5.36-.44-20.4-10.15-21-10.57a.49.49,0,0,1-.22-.5.48.48,0,0,1,.38-.4l19.93-4.56a.52.52,0,0,1,.47.15c2.36,2.46,5,10.74,3.33,14.24A2.7,2.7,0,0,1,285.61,220.38ZM265.83,209.6c3.51,2.22,15.22,9.42,19.56,9.77a1.73,1.73,0,0,0,1.87-1.07c1.43-3-.83-10.41-2.95-12.92Z" style="fill:#263238"></path><path d="M249.43,450.8s.83,7.63-1.12,12.44h-7.67s-2.51-4-1.1-12.44Z" style="fill:#757575"></path><path d="M248.31,463.74h-7.67a.51.51,0,0,1-.43-.23c-.1-.17-2.59-4.22-1.17-12.8a.5.5,0,0,1,.5-.41h9.89a.5.5,0,0,1,.5.44c0,.32.82,7.82-1.15,12.69A.5.5,0,0,1,248.31,463.74Zm-7.38-1h7c1.47-4,1.14-9.8,1-11.44h-9C238.92,458.07,240.47,461.81,240.93,462.74Z" style="fill:#263238"></path><path d="M342.76,450.8a15.89,15.89,0,0,1-1.12,12.44h-7s-3.16-4-1.75-12.44Z" style="fill:#757575"></path><path d="M341.64,463.74h-7a.49.49,0,0,1-.39-.19c-.14-.16-3.28-4.23-1.85-12.84a.49.49,0,0,1,.49-.41h9.9a.48.48,0,0,1,.46.32,16.22,16.22,0,0,1-1.15,12.87A.49.49,0,0,1,341.64,463.74Zm-6.77-1h6.47a15.52,15.52,0,0,0,1.05-11.44h-9.1C332.25,458.16,334.32,461.89,334.87,462.74Z" style="fill:#263238"></path><path d="M334.83,461.86h-.08a.5.5,0,0,1-.42-.57,27.25,27.25,0,0,0-.7-9.88.5.5,0,0,1,1-.27,27.54,27.54,0,0,1,.73,10.31A.5.5,0,0,1,334.83,461.86Z" style="fill:#263238"></path><path d="M345.17,453.18H236.87a4.57,4.57,0,0,1-4.55-4.48l-.06-4.2a4.4,4.4,0,0,1,4.41-4.49H345a4.57,4.57,0,0,1,4.55,4.49l.06,4.2A4.4,4.4,0,0,1,345.17,453.18Z" style="fill:#999"></path><path d="M345.17,453.68H236.87a5.07,5.07,0,0,1-5.05-5l-.06-4.2a4.88,4.88,0,0,1,4.91-5H345a5.08,5.08,0,0,1,5,5l.06,4.2a4.9,4.9,0,0,1-4.91,5Zm-108.5-13.17a3.89,3.89,0,0,0-3.91,4l.06,4.2a4.07,4.07,0,0,0,4.05,4h108.3a3.89,3.89,0,0,0,3.91-4l-.06-4.2a4.07,4.07,0,0,0-4-4Z" style="fill:#263238"></path><path d="M230.63,277.5s-3,84.31-2.11,142.5a56.14,56.14,0,0,0,2.75,16.75c2.13,6.47,8.76,10.91,16.18,10.91h86.93A16.83,16.83,0,0,0,348.07,441c4.15-5.74,8.85-14.52,7.37-23.43C352.9,402.39,230.63,277.5,230.63,277.5Z" style="fill:#92E3A9"></path><path d="M334.38,448.16H247.45c-7.62,0-14.47-4.62-16.65-11.25A56.41,56.41,0,0,1,228,420c-.85-57.53,2.08-141.68,2.11-142.52a.5.5,0,0,1,.86-.33c5,5.1,122.41,125.18,124.94,140.38,1.51,9.06-3.22,18-7.46,23.81A17.28,17.28,0,0,1,334.38,448.16ZM231.09,278.68c-.35,10.4-2.87,87.5-2.07,141.31a55.47,55.47,0,0,0,2.73,16.61c2,6.22,8.5,10.56,15.7,10.56h86.93a16.26,16.26,0,0,0,13.28-6.41c4.12-5.7,8.73-14.34,7.28-23.06C352.57,403.45,241.77,289.63,231.09,278.68Z" style="fill:#263238"></path><g style="clip-path:url(#freepik--clip-path-8--inject-161)"><path d="M230.63,277.5s-3,84.31-2.11,142.5a56.14,56.14,0,0,0,2.75,16.75c2.13,6.47,8.76,10.91,16.18,10.91h86.93A16.83,16.83,0,0,0,348.07,441c4.15-5.74,8.85-14.52,7.37-23.43C352.9,402.39,230.63,277.5,230.63,277.5Z" style="opacity:0.30000000000000004"></path><path d="M336.16,437.86H246.64a15.33,15.33,0,0,1-13.38-7.53.5.5,0,0,1,.87-.49,14.3,14.3,0,0,0,12.51,7h89.52A13.85,13.85,0,0,0,347.75,431l1.13-1.67a.5.5,0,1,1,.82.56l-1.12,1.67A14.86,14.86,0,0,1,336.16,437.86Z" style="fill:#263238"></path></g><polygon points="304.54 298.61 295.17 216.02 253.97 216.02 255.34 305.6 251.04 301.12 249.67 211.53 299.44 211.53 308.82 294.12 304.54 298.61" style="fill:#bfbfbf"></polygon><path d="M255.86,306.87l-5.32-5.55L249.16,211h50.73l.05.44,9.4,82.82-5.17,5.44-9.45-83.21H254.48Zm-4.33-6,3.29,3.43-1.36-88.82h42.15l.05.44,9.26,81.53,3.37-3.55L299,212H250.18Z" style="fill:#263238"></path><path d="M249.73,215.66A4.64,4.64,0,0,1,254,216h41.2s3-1.25,4.7-.71l.56-1.61a2.37,2.37,0,0,0-2.23-3.13H251.13A2.29,2.29,0,0,0,249,213.7Z" style="fill:#757575"></path><path d="M295.17,216.52H254a.5.5,0,0,1-.26-.08,4.15,4.15,0,0,0-3.76-.33.51.51,0,0,1-.4,0,.53.53,0,0,1-.28-.29l-.75-2a2.82,2.82,0,0,1,.31-2.61,2.76,2.76,0,0,1,2.3-1.2H298.2a2.86,2.86,0,0,1,2.33,1.21,2.82,2.82,0,0,1,.37,2.59l-.56,1.61a.51.51,0,0,1-.62.31c-1.25-.4-3.57.36-4.36.69A.65.65,0,0,1,295.17,216.52Zm-41.07-1h41a10.23,10.23,0,0,1,4.47-.79l.42-1.19a1.84,1.84,0,0,0-.24-1.68,1.85,1.85,0,0,0-1.52-.79H251.13a1.79,1.79,0,0,0-1.67,2.45L250,215A5.2,5.2,0,0,1,254.1,215.52Z" style="fill:#263238"></path><path d="M346.17,427.72H242.23c-6.25,0-11.34-5.7-11.37-12.6l-.6-135.31c0-4.42,3.93-8,8.82-8h81.29c4.89,0,9.5,3.54,10.3,8l24.54,135.31C356.46,422,352.42,427.72,346.17,427.72Z" style="fill:#92E3A9"></path><path d="M346.17,428.22H242.23c-6.51,0-11.84-5.88-11.87-13.1l-.6-135.31a8,8,0,0,1,2.38-5.67,9.81,9.81,0,0,1,6.94-2.79h81.29c5.12,0,10,3.76,10.79,8.37L355.7,415a12,12,0,0,1-2.24,9.85A9.31,9.31,0,0,1,346.17,428.22ZM239.08,272.35a8.83,8.83,0,0,0-6.23,2.49,7,7,0,0,0-2.09,5l.6,135.31c0,6.67,4.9,12.1,10.87,12.1H346.17a8.34,8.34,0,0,0,6.53-3,10.94,10.94,0,0,0,2-9L330.18,279.9c-.76-4.16-5.15-7.55-9.81-7.55Z" style="fill:#263238"></path><g style="opacity:0.2"><path d="M245.48,280.2h0c-1,0-1.84,1.1-1.8,2.46l3.55,127.07c.06,2,1.14,3.72,2.41,3.72h0c1.27,0,2.25-1.67,2.18-3.72l-4.38-127.07A2.32,2.32,0,0,0,245.48,280.2Z"></path><path d="M267.8,280.2h0c-1,0-1.79,1.1-1.7,2.46l8.54,127.07c.14,2,1.28,3.72,2.56,3.72h0c1.27,0,2.18-1.67,2-3.72l-9.38-127.07A2.44,2.44,0,0,0,267.8,280.2Z"></path><path d="M290.88,280.2h0c-1,0-1.75,1.1-1.61,2.46L303,409.73c.22,2,1.43,3.72,2.71,3.72h0c1.27,0,2.11-1.67,1.88-3.72L293,282.66A2.57,2.57,0,0,0,290.88,280.2Z"></path><path d="M313.19,280.2h0c-1,0-1.7,1.1-1.5,2.46l18.7,127.07c.3,2,1.58,3.72,2.85,3.72h0c1.28,0,2.05-1.67,1.74-3.72L315.44,282.66A2.69,2.69,0,0,0,313.19,280.2Z"></path></g><path d="M246.7,391.14a.5.5,0,0,1-.5-.48l-1.43-51.08a.51.51,0,0,1,.49-.51.5.5,0,0,1,.51.49l1.43,51.07a.49.49,0,0,1-.49.51Z" style="fill:#263238"></path><path d="M251,418.11a4.41,4.41,0,0,1-4.18-4.44l-.22-7.92a.5.5,0,0,1,.49-.51.52.52,0,0,1,.51.49l.22,7.92a3.4,3.4,0,0,0,3.18,3.46,2.79,2.79,0,0,0,2-.86,3.59,3.59,0,0,0,.93-2.57l-.27-7a.51.51,0,0,1,.48-.52.52.52,0,0,1,.52.48l.27,7a4.57,4.57,0,0,1-1.21,3.3A3.76,3.76,0,0,1,251,418.11Z" style="fill:#263238"></path><path d="M254.1,405.29a.5.5,0,0,1-.5-.48l-1.42-37.2a.5.5,0,0,1,1,0l1.42,37.2a.51.51,0,0,1-.48.52Z" style="fill:#263238"></path><path d="M252.29,357.81a.5.5,0,0,1-.5-.48L249,282.7a2.12,2.12,0,0,0-.74-1.48,2.7,2.7,0,0,0-3.49.08,1.91,1.91,0,0,0-.55,1.37l.27,9.67a.49.49,0,0,1-.48.51.52.52,0,0,1-.52-.48l-.27-9.68a2.87,2.87,0,0,1,.84-2.09,3.7,3.7,0,0,1,4.85-.13,3,3,0,0,1,1.08,2.19l2.84,74.63a.5.5,0,0,1-.48.52Z" style="fill:#263238"></path><path d="M244.14,299.37a.49.49,0,0,1-.5-.49l-.11-3.85a.5.5,0,0,1,.49-.51.51.51,0,0,1,.51.48l.11,3.86a.51.51,0,0,1-.49.51Z" style="fill:#263238"></path><path d="M245.05,332.18a.51.51,0,0,1-.5-.49L243.67,300a.5.5,0,0,1,.48-.52.52.52,0,0,1,.52.49l.88,31.73a.5.5,0,0,1-.48.51Z" style="fill:#263238"></path><path d="M279.18,418.11a4.61,4.61,0,0,1-4.33-4.42l-.6-8.87a.5.5,0,0,1,1-.07l.6,8.88a3.59,3.59,0,0,0,3.33,3.48,2.62,2.62,0,0,0,1.94-.85,3.4,3.4,0,0,0,.83-2.56l-3-38.4a.5.5,0,0,1,.46-.54.49.49,0,0,1,.54.46l3,38.4a4.41,4.41,0,0,1-1.08,3.32A3.65,3.65,0,0,1,279.18,418.11Z" style="fill:#263238"></path><path d="M278.92,369a.5.5,0,0,1-.5-.46l-4.62-59.27a.5.5,0,0,1,.46-.54.49.49,0,0,1,.54.46l4.62,59.27a.5.5,0,0,1-.46.54Z" style="fill:#263238"></path><path d="M274.07,306.73a.5.5,0,0,1-.5-.46l-1.84-23.55a2.18,2.18,0,0,0-.8-1.49,2.68,2.68,0,0,0-3.48.06,1.79,1.79,0,0,0-.49,1.35l.4,5.83a.5.5,0,0,1-1,.07l-.4-5.83a2.81,2.81,0,0,1,.76-2.11,3.71,3.71,0,0,1,4.85-.14,3.18,3.18,0,0,1,1.16,2.18l1.84,23.55a.5.5,0,0,1-.46.54Z" style="fill:#263238"></path><path d="M268.86,318.51a.5.5,0,0,1-.5-.46l-1.15-16.94a.49.49,0,0,1,.47-.53.5.5,0,0,1,.53.46L269.36,318a.5.5,0,0,1-.47.53Z" style="fill:#263238"></path><path d="M273.67,389.44a.5.5,0,0,1-.5-.46l-4.35-64.22a.49.49,0,0,1,.46-.53.5.5,0,0,1,.53.46l4.36,64.22a.5.5,0,0,1-.46.53Z" style="fill:#263238"></path><path d="M291.94,308.23a.51.51,0,0,1-.5-.45l-2.7-25a2.73,2.73,0,0,1,.68-2.12,3.71,3.71,0,0,1,4.85-.15,3.27,3.27,0,0,1,1.23,2.16l.46,3.85a.51.51,0,0,1-.44.56.5.5,0,0,1-.55-.44l-.46-3.85a2.28,2.28,0,0,0-.87-1.5,2.67,2.67,0,0,0-3.47,0,1.65,1.65,0,0,0-.43,1.34l2.7,25.06a.51.51,0,0,1-.45.55Z" style="fill:#263238"></path><path d="M297.42,359.1a.51.51,0,0,1-.5-.45l-3.26-30.31a.5.5,0,0,1,1-.11l3.27,30.32a.5.5,0,0,1-.45.55Z" style="fill:#263238"></path><path d="M307.35,418.11a4.82,4.82,0,0,1-4.49-4.4l-4.46-41.4a.5.5,0,0,1,.44-.56.51.51,0,0,1,.55.45l4.46,41.41a3.81,3.81,0,0,0,3.5,3.5,2.52,2.52,0,0,0,1.89-.84,3.27,3.27,0,0,0,.72-2.55L295.52,291.28a.5.5,0,0,1,.44-.55.49.49,0,0,1,.55.43L311,413.6a4.24,4.24,0,0,1-1,3.33A3.47,3.47,0,0,1,307.35,418.11Z" style="fill:#263238"></path><path d="M319.25,332.18a.5.5,0,0,1-.49-.43l-7.24-49a2.62,2.62,0,0,1,.61-2.14,3.67,3.67,0,0,1,4.83-.16,3.46,3.46,0,0,1,1.32,2.15l.4,2.56a.49.49,0,0,1-.41.57.5.5,0,0,1-.57-.41l-.41-2.56a2.45,2.45,0,0,0-.94-1.52,2.69,2.69,0,0,0-3.47,0,1.7,1.7,0,0,0-.37,1.35l7.24,49a.5.5,0,0,1-.42.56Z" style="fill:#263238"></path><path d="M321.25,345.69a.51.51,0,0,1-.5-.43l-.62-4.24a.5.5,0,0,1,1-.14l.62,4.24a.49.49,0,0,1-.42.56Z" style="fill:#263238"></path><path d="M329.61,402.28a.51.51,0,0,1-.5-.43L321.31,349a.5.5,0,0,1,.42-.57.51.51,0,0,1,.57.42l7.8,52.84a.5.5,0,0,1-.42.57Z" style="fill:#263238"></path><path d="M335.51,418.11a5,5,0,0,1-4.64-4.38l-.75-5.05a.5.5,0,1,1,1-.14l.75,5a4,4,0,0,0,3.65,3.52,2.36,2.36,0,0,0,1.84-.83,3.13,3.13,0,0,0,.61-2.54l-5-31.85a.49.49,0,0,1,.41-.57.51.51,0,0,1,.58.41l5,31.85a4.15,4.15,0,0,1-.84,3.35A3.36,3.36,0,0,1,335.51,418.11Z" style="fill:#263238"></path><path d="M332.31,375.19a.5.5,0,0,1-.5-.42L321,306.31a.5.5,0,0,1,.41-.57.51.51,0,0,1,.58.42l10.8,68.45a.51.51,0,0,1-.41.58Z" style="fill:#263238"></path><path d="M320.85,302.58a.51.51,0,0,1-.5-.42L319,293.77a.5.5,0,0,1,.41-.57.51.51,0,0,1,.58.41l1.32,8.39a.5.5,0,0,1-.42.57Z" style="fill:#263238"></path><path d="M250.47,283.82l-5.79,18.33a2.8,2.8,0,0,0,3.39,3.39l20.63-4.2a2.45,2.45,0,0,0,1.18-4.29l-14.83-14.13A2.81,2.81,0,0,0,250.47,283.82Z" style="fill:#fff"></path><path d="M247.47,306.1a3.5,3.5,0,0,1-2.59-1.14,3,3,0,0,1-.68-3L250,283.67a3,3,0,0,1,2.14-1.95,3.52,3.52,0,0,1,3.26.84l14.84,14.12a3.07,3.07,0,0,1,.9,3.07,3,3,0,0,1-2.33,2.08L248.17,306A3.39,3.39,0,0,1,247.47,306.1ZM253,282.61a2.57,2.57,0,0,0-.62.08A2,2,0,0,0,251,284h0l-5.8,18.33a2,2,0,0,0,.47,2,2.48,2.48,0,0,0,2.35.76l20.63-4.2a2,2,0,0,0,1.57-1.37,2.07,2.07,0,0,0-.63-2.07L254.7,283.28A2.48,2.48,0,0,0,253,282.61Zm-2.53,1.21h0Z" style="fill:#263238"></path><path d="M247.69,304.1a1.32,1.32,0,0,1-1.2-.36,1.13,1.13,0,0,1-.3-1.14l5.75-18.36a1.1,1.1,0,0,1,.86-.73,1.3,1.3,0,0,1,1.16.33L268.8,298a1.12,1.12,0,0,1,.34,1.12,1.09,1.09,0,0,1-.87.77Z" style="fill:#fff"></path><path d="M247.4,304.62a1.82,1.82,0,0,1-1.27-.53,1.63,1.63,0,0,1-.42-1.64l5.75-18.36A1.59,1.59,0,0,1,252.7,283a1.8,1.8,0,0,1,1.61.46l14.83,14.17a1.62,1.62,0,0,1,.48,1.62,1.58,1.58,0,0,1-1.25,1.13l-20.58,4.19h0Zm.29-.52h0ZM253.06,284l-.16,0a.62.62,0,0,0-.49.39l-5.75,18.36a.6.6,0,0,0,.18.63.8.8,0,0,0,.75.23l20.58-4.19a.56.56,0,0,0,.48-.42.57.57,0,0,0-.2-.62l-14.83-14.17A.81.81,0,0,0,253.06,284Z" style="fill:#263238"></path><path d="M253.29,302.58a.51.51,0,0,1-.48-.64l.86-3.09-.17-.6a.45.45,0,0,1,.06-.39.5.5,0,0,1,.32-.23l5.49-1.11a.5.5,0,0,1,.57.36l.13.42,2.48,2.42a.5.5,0,0,1,0,.71.49.49,0,0,1-.7,0l-2.59-2.52a.45.45,0,0,1-.13-.22l0-.1-4.5.9.06.21a.62.62,0,0,1,0,.27l-.68,2.44.3-.06a4,4,0,0,1,2.79-2.8c2.21-.44,4.14,1.53,4.22,1.61a.5.5,0,0,1,0,.71.48.48,0,0,1-.7,0s-1.65-1.66-3.31-1.33-2.11,2.35-2.11,2.37a.49.49,0,0,1-.39.37l-1.39.29Z" style="fill:#263238"></path><path d="M254.64,297.78h0a.5.5,0,0,1-.45-.55l.16-1.81-.13-.47a.54.54,0,0,1,.06-.39.49.49,0,0,1,.33-.23l2.37-.48a.5.5,0,0,1,.58.36l.17.58,1.2,1.38a.48.48,0,0,1,0,.7.5.5,0,0,1-.71,0l-1.28-1.47a.44.44,0,0,1-.1-.19l-.07-.25-1.4.28v0a.52.52,0,0,1,0,.18l-.18,1.9A.5.5,0,0,1,254.64,297.78Z" style="fill:#263238"></path><path d="M254.94,294.24a.51.51,0,0,1-.49-.4l-.88-4.52a.49.49,0,0,1,.39-.58l.56-.11a.5.5,0,0,1,.56.3l1.73,4.34a.5.5,0,1,1-.92.37l-.89-2.21.43,2.21a.49.49,0,0,1-.39.59Z" style="fill:#263238"></path><path d="M253.19,289a.51.51,0,0,1-.49-.4.5.5,0,0,1,.39-.59l1.91-.38a.49.49,0,0,1,.59.39.5.5,0,0,1-.39.59l-1.91.38Z" style="fill:#263238"></path><path d="M253.92,288a.51.51,0,0,1-.49-.36l-.12-.44a.51.51,0,0,1,.35-.62.49.49,0,0,1,.61.35l.13.43a.5.5,0,0,1-.35.62Z" style="fill:#263238"></path><path d="M263.55,300s-3.09-2.79-3.3-3.56l-.92-.49a9.9,9.9,0,0,1-1.29-2.27c-.25-.86-1.22-1.19-1.45-2.58a2.73,2.73,0,0,0-.93-1.85l.57-.84s-1.65-.56-1.7-1.21-.14-1.13-.74-1.08-.75,1.44-.75,1.44-.87,1.22-.73,1.63a1.61,1.61,0,0,0,.71.7,27.5,27.5,0,0,1,.67,4.21,4.27,4.27,0,0,0-.33,1.79c0,.79-.3,1.93-.72,2s-.85,4.55-.85,4.55l-2.59.45a1,1,0,0,1-1.14-1.11L252.5,285a.8.8,0,0,1,1.33-.28l13.26,13.2a.83.83,0,0,1-.42,1.44Z" style="fill:#92E3A9;opacity:0.6000000000000001"></path><path d="M316.11,304.73l-18.34-3.38a2.77,2.77,0,0,1-2.35-2.83l1.38-13.44a2.19,2.19,0,0,1,2.73-1.78l17.79,3.17a2.81,2.81,0,0,1,2.4,2.72l-.84,13.64A2.2,2.2,0,0,1,316.11,304.73Z" style="fill:#fff"></path><path d="M316.63,305.27a3.2,3.2,0,0,1-.61,0l-18.34-3.38a3.28,3.28,0,0,1-2.76-3.37L296.3,285a2.43,2.43,0,0,1,1-1.71,3,3,0,0,1,2.35-.51L317.41,286a3.33,3.33,0,0,1,2.81,3.24l-.84,13.64a2.52,2.52,0,0,1-1,1.83A2.91,2.91,0,0,1,316.63,305.27Zm-.43-1a2,2,0,0,0,1.61-.33,1.52,1.52,0,0,0,.57-1.11l.84-13.64a2.28,2.28,0,0,0-2-2.18l-17.78-3.18a2.06,2.06,0,0,0-1.58.33,1.41,1.41,0,0,0-.58,1l-1.37,13.44a2.26,2.26,0,0,0,1.94,2.29Z" style="fill:#263238"></path><path d="M316.26,304.24l-18.59-3.42a2,2,0,0,1-1.67-2L297.4,285a1.56,1.56,0,0,1,2-1.26l18,3.22a2,2,0,0,1,1.71,1.93l-.88,14A1.57,1.57,0,0,1,316.26,304.24Z" style="fill:#92E3A9;opacity:0.6000000000000001"></path><path d="M297.91,299.92a1.07,1.07,0,0,1-.92-1.11l1.33-13.46a.87.87,0,0,1,1.08-.7l17.83,3.19a1.09,1.09,0,0,1,.94,1.07l-.87,13.63a.87.87,0,0,1-1.09.74Z" style="fill:#fff"></path><path d="M316.41,303.8a1.36,1.36,0,0,1-.29,0l-18.3-3.36a1.59,1.59,0,0,1-1.33-1.65l1.34-13.46a1.23,1.23,0,0,1,.5-.88,1.5,1.5,0,0,1,1.16-.26l17.83,3.19a1.59,1.59,0,0,1,1.35,1.59l-.88,13.63a1.27,1.27,0,0,1-.49.93A1.41,1.41,0,0,1,316.41,303.8ZM299.2,285.13a.42.42,0,0,0-.27.09.23.23,0,0,0-.11.18l-1.34,13.46a.61.61,0,0,0,.52.57h0l18.3,3.36a.47.47,0,0,0,.39-.08.31.31,0,0,0,.11-.21l.87-13.62a.61.61,0,0,0-.53-.55l-17.83-3.19Z" style="fill:#263238"></path><path d="M298.37,291.63h.86l-.29,2.52,2.22.55.4-5.68-.95-1.29,1.63-.13.13-.88,1.53,1.78-1.17,1-.39,3.78,2.07.58s-1.06-3.45,3.49-2.81l1-1.62.65,1.7a3.56,3.56,0,0,1,2.1,1.26,6.26,6.26,0,0,1,.86,3.06h1.59l.64-3.79s-1.56-.94-1.68-1.36,2.16-.87,2.16-.87,2,1.41,1.52,1.7a3.26,3.26,0,0,0-.95,1l-.53,9.48.73.73-18.08-3.48Z" style="fill:#92E3A9;opacity:0.6000000000000001"></path><path d="M312.35,301.57h0a.5.5,0,0,1-.46-.53l.29-4.05-7.59-1.38-.34,3.93a.51.51,0,0,1-.55.45.5.5,0,0,1-.45-.54l.39-4.48a.55.55,0,0,1,.2-.35.49.49,0,0,1,.39-.09l8.57,1.55a.5.5,0,0,1,.41.53l-.32,4.5A.5.5,0,0,1,312.35,301.57Z" style="fill:#263238"></path><path d="M309,300.45h0a.5.5,0,0,1-.46-.54l.11-1.39-.77-.14-.11,1.29a.51.51,0,0,1-.54.46.5.5,0,0,1-.45-.54l.15-1.84a.52.52,0,0,1,.19-.36.53.53,0,0,1,.39-.09l1.76.32a.51.51,0,0,1,.41.53l-.15,1.84A.5.5,0,0,1,309,300.45Z" style="fill:#263238"></path><path d="M314.15,296.22h-.09l-11.18-2a.5.5,0,0,1-.4-.58.5.5,0,0,1,.58-.4l11.18,2a.5.5,0,0,1,.4.59A.49.49,0,0,1,314.15,296.22Z" style="fill:#263238"></path><path d="M312.52,294.87h-.11a.5.5,0,0,1-.37-.6c.35-1.6-2.51-2.44-2.54-2.45a.47.47,0,0,1-.33-.3l-.38-1-.47.76a.5.5,0,0,1-.49.24c-1.37-.18-2.37,0-2.8.43a1,1,0,0,0-.25.83.5.5,0,0,1-1,.2,2,2,0,0,1,.49-1.7c.63-.68,1.75-.95,3.35-.79l.83-1.35a.53.53,0,0,1,.47-.24.49.49,0,0,1,.42.32l.66,1.71c.84.29,3.48,1.38,3,3.55A.5.5,0,0,1,312.52,294.87Z" style="fill:#263238"></path><path d="M300.81,299h-.05a.5.5,0,0,1-.45-.55l.85-9.18a.57.57,0,0,1,.2-.36.53.53,0,0,1,.39-.09l1.07.19a.51.51,0,0,1,.41.54l-.28,3.08a.52.52,0,0,1-.55.45.5.5,0,0,1-.45-.54l.24-2.62-.08,0-.8,8.65A.51.51,0,0,1,300.81,299Z" style="fill:#263238"></path><path d="M303.9,289h-.09l-3.27-.58a.5.5,0,0,1,.18-1L304,288a.5.5,0,0,1-.09,1Z" style="fill:#263238"></path><path d="M302.38,287.84h0a.5.5,0,0,1-.46-.54l.08-.81a.51.51,0,0,1,.54-.45.5.5,0,0,1,.46.54l-.08.81A.5.5,0,0,1,302.38,287.84Z" style="fill:#263238"></path><path d="M315.18,301.59h0a.51.51,0,0,1-.47-.53l.61-8.82-.09,0-.18,2.54a.51.51,0,0,1-.53.47.5.5,0,0,1-.47-.54l.22-3.1a.52.52,0,0,1,.19-.36.5.5,0,0,1,.4-.09l1.07.19a.49.49,0,0,1,.41.53l-.63,9.27A.5.5,0,0,1,315.18,301.59Z" style="fill:#263238"></path><path d="M317.05,291.37H317l-3.3-.6a.5.5,0,0,1-.41-.58.51.51,0,0,1,.59-.4l3.29.59a.5.5,0,0,1,.41.58A.51.51,0,0,1,317.05,291.37Z" style="fill:#263238"></path><path d="M315.42,290.18h0a.49.49,0,0,1-.46-.53l.06-.81a.5.5,0,1,1,1,.06l-.05.82A.51.51,0,0,1,315.42,290.18Z" style="fill:#263238"></path><path d="M300.09,294.12H300l-1-.18a.5.5,0,0,1-.4-.54l.17-1.76-.26,0a.5.5,0,0,1-.41-.58.51.51,0,0,1,.58-.41l.72.13a.51.51,0,0,1,.41.54l-.17,1.76.57.1a.5.5,0,0,1-.09,1Z" style="fill:#263238"></path><path d="M307,353.69c-.25,8.11-7.12,13.77-15.31,12.46a16.38,16.38,0,0,1-13.62-17,12.86,12.86,0,0,1,15.17-11.83A16.46,16.46,0,0,1,307,353.69Z" style="fill:#fff"></path><path d="M294.06,366.84a15.61,15.61,0,0,1-2.44-.19,16.87,16.87,0,0,1-14-17.52,13.34,13.34,0,0,1,5-9.56,13.74,13.74,0,0,1,10.78-2.73,17.06,17.06,0,0,1,14.18,16.87,13.26,13.26,0,0,1-13.45,13.13Zm-3-29.18a12.56,12.56,0,0,0-7.86,2.69,12.33,12.33,0,0,0-4.59,8.85,15.85,15.85,0,0,0,13.2,16.46A12.7,12.7,0,0,0,302.06,363a12.45,12.45,0,0,0,4.45-9.36h0a16,16,0,0,0-13.33-15.84A14.26,14.26,0,0,0,291,337.66Z" style="fill:#263238"></path><path d="M280.88,351.85s-1-3.36,2.07-8.11,9.68-5.31,14.38-2.45a15.47,15.47,0,0,1,6.92,10.9,5.7,5.7,0,0,1-.66,3.54h-.76l.07-1.71-1.36-.22-.06,1.41-1.72-.43-.48,3.82-1.94-.3.06-1.26-1.66-.85s-1.14-5.54-.44-8.92c0,0,3.81-.58,3.65-2s-3.36-2.28-3.36-2.28.35-1.82-1.16-1.73a1.77,1.77,0,0,0-1.62,1.64s-3.68-.74-3.78.83,4.14,2.65,4.14,2.65l-1.55,8.82-1.52-.43.56-1.73-2.9-2.39-.33,5.53h-1.11l-.09-4.77h-2.44l-.6,1.8Z" style="fill:#92E3A9;opacity:0.6000000000000001"></path><path d="M293.86,365.05a13.27,13.27,0,0,1-2.15-.18h0a14.94,14.94,0,0,1-12.43-15.48,11.82,11.82,0,0,1,4.39-8.49,12.19,12.19,0,0,1,9.57-2.43,15.09,15.09,0,0,1,12.55,15,11.78,11.78,0,0,1-11.93,11.61Zm-2-1.16a11.22,11.22,0,0,0,9-2.31,10.89,10.89,0,0,0,3.91-8.18,14.05,14.05,0,0,0-11.7-13.94,11.19,11.19,0,0,0-8.79,2.22,10.89,10.89,0,0,0-4,7.79,14,14,0,0,0,11.6,14.42Z" style="fill:#263238"></path><path d="M290.6,363.14l-.16,0a.51.51,0,0,1-.31-.64,61.72,61.72,0,0,0,2.68-14.77.49.49,0,0,1,.53-.47.51.51,0,0,1,.47.53,62.59,62.59,0,0,1-2.74,15A.5.5,0,0,1,290.6,363.14Z" style="fill:#263238"></path><path d="M296,363.11a.5.5,0,0,1-.48-.35c-1.39-4.66-1.14-14.38-1.13-14.79a.5.5,0,0,1,.51-.49.51.51,0,0,1,.49.52c0,.1-.26,10,1.09,14.47a.51.51,0,0,1-.34.62A.36.36,0,0,1,296,363.11Z" style="fill:#263238"></path><path d="M295.41,347.19a9.12,9.12,0,0,1-5.19-1.6.5.5,0,0,1,.6-.8,8.33,8.33,0,0,0,6.93,1.06.5.5,0,0,1,.28,1A9.07,9.07,0,0,1,295.41,347.19Z" style="fill:#263238"></path><path d="M299,345.78h-.08L289,344.24a.5.5,0,1,1,.15-1l9.92,1.53a.5.5,0,0,1-.08,1Z" style="fill:#263238"></path><path d="M298,344.74a.47.47,0,0,1-.27-.08c-2.94-1.89-6.93-1.07-7-1.06a.51.51,0,0,1-.59-.39.49.49,0,0,1,.38-.59c.18,0,4.44-.91,7.72,1.2a.5.5,0,0,1,.16.69A.51.51,0,0,1,298,344.74Z" style="fill:#263238"></path><path d="M294.34,343.5h0a.51.51,0,0,1-.48-.53l.11-2a.47.47,0,0,1,.52-.48.51.51,0,0,1,.48.53l-.11,2A.5.5,0,0,1,294.34,343.5Z" style="fill:#263238"></path><path d="M288.16,357.81h-.08l-2.55-.4a.49.49,0,0,1-.42-.53l.28-4.35-.59-.09-.12,1.85a.49.49,0,0,1-.19.35.5.5,0,0,1-.39.11l-2.7-.43a.5.5,0,1,1,.15-1l2.17.34.12-1.85a.48.48,0,0,1,.19-.35.5.5,0,0,1,.39-.11l1.57.25a.49.49,0,0,1,.42.53l-.28,4.35,1.56.25.26-4.27a.5.5,0,0,1,.89-.28l1.11,1.37a.47.47,0,0,1,.11.34l-.09,1.59,1.07.17a.5.5,0,1,1-.15,1l-1.52-.23a.49.49,0,0,1-.42-.53l.1-1.84-.18-.23-.21,3.54a.52.52,0,0,1-.19.36A.51.51,0,0,1,288.16,357.81Z" style="fill:#263238"></path><path d="M299.28,359.1h-.08l-1.94-.31a.5.5,0,0,1-.42-.52l0-.81-.7-.11a.49.49,0,0,1-.41-.57.5.5,0,0,1,.57-.41l1.14.17a.51.51,0,0,1,.42.52l0,.81.94.15.12-2.63a.47.47,0,0,1,.18-.37.5.5,0,0,1,.39-.11l1.49.24.06-1.37a.47.47,0,0,1,.18-.36.5.5,0,0,1,.39-.11l1.36.21a.52.52,0,0,1,.43.51l-.08,2.11.47.08a.49.49,0,0,1,.41.57.51.51,0,0,1-.57.42l-.91-.15a.5.5,0,0,1-.42-.51l.08-2.11-.37-.06-.05,1.37a.53.53,0,0,1-.18.37.47.47,0,0,1-.4.1l-1.49-.23-.11,2.63a.48.48,0,0,1-.19.37A.51.51,0,0,1,299.28,359.1Z" style="fill:#263238"></path><path d="M319,374.52l-12,2.69a3.55,3.55,0,0,0-2.71,2.87l-2.58,13a5.14,5.14,0,0,0,1.33,4.42l10,10.72a4.48,4.48,0,0,0,4.24,1.47l12.55-2.95a3.61,3.61,0,0,0,2.7-3.1l2-13.39a5.16,5.16,0,0,0-1.52-4.33l-10-10.05A4.48,4.48,0,0,0,319,374.52Z" style="fill:#fff"></path><path d="M316.37,410.28a5.2,5.2,0,0,1-3.75-1.73l-10-10.72a5.66,5.66,0,0,1-1.45-4.86l2.57-13a4.09,4.09,0,0,1,3.1-3.26l12-2.68h0a4.93,4.93,0,0,1,4.5,1.47l10,10a5.73,5.73,0,0,1,1.65,4.76l-2,13.4a4.08,4.08,0,0,1-3.09,3.5l-12.55,3A4.49,4.49,0,0,1,316.37,410.28ZM319.08,375l-12,2.69a3.07,3.07,0,0,0-2.33,2.47l-2.58,13a4.65,4.65,0,0,0,1.21,4l10,10.72a4,4,0,0,0,3.75,1.33l12.55-3a3.13,3.13,0,0,0,2.33-2.68l2-13.4a4.72,4.72,0,0,0-1.38-3.9l-10-10.05a3.94,3.94,0,0,0-3.57-1.2Z" style="fill:#263238"></path><path d="M316.58,407.68a2.54,2.54,0,0,1-2.39-.83l-10-10.67a2.91,2.91,0,0,1-.76-2.5l2.54-13a2,2,0,0,1,1.53-1.63l12.05-2.7a2.52,2.52,0,0,1,2.28.76l10,10.08a3,3,0,0,1,.85,2.45L330.63,403a2,2,0,0,1-1.53,1.74Z" style="fill:#fff"></path><path d="M316.11,408.24a3.18,3.18,0,0,1-2.28-1.05l-10-10.67a3.43,3.43,0,0,1-.88-2.94l2.54-13a2.54,2.54,0,0,1,1.92-2l12-2.7a3,3,0,0,1,2.75.9l10,10.08a3.46,3.46,0,0,1,1,2.88l-2.06,13.37a2.52,2.52,0,0,1-1.91,2.15l-12.51,2.94A3,3,0,0,1,316.11,408.24ZM320,376.79a1.45,1.45,0,0,0-.35,0l-12,2.7a1.54,1.54,0,0,0-1.15,1.23l-2.54,13a2.41,2.41,0,0,0,.63,2.06l10,10.67a2.09,2.09,0,0,0,1.91.69h0L329,404.26a1.56,1.56,0,0,0,1.14-1.34l2.06-13.37a2.46,2.46,0,0,0-.72-2l-10-10.08A2.14,2.14,0,0,0,320,376.79Z" style="fill:#263238"></path><path d="M304.9,393.44l2.7-12.87,12.84-3,11.07,10.49-.07,4.76a6,6,0,0,0-3.09-1.16L327,389.92s2-4.12-1.64-5.71-4.78,1.87-3.85,4.74l-2.54,1.7-8.87-4.89-4.42,8.15Z" style="fill:#92E3A9;opacity:0.6000000000000001"></path><line x1="309.86" y1="399.47" x2="330.58" y2="394.68" style="fill:#fff"></line><path d="M309.86,400a.5.5,0,0,1-.11-1l20.71-4.8a.5.5,0,0,1,.6.37.49.49,0,0,1-.37.6L310,400Z" style="fill:#263238"></path><polyline points="306.2 395.39 310.67 386.32 323.94 394.88" style="fill:#fff"></polyline><path d="M306.2,395.89a.44.44,0,0,1-.22-.05.5.5,0,0,1-.23-.67l4.47-9.07a.49.49,0,0,1,.32-.26.48.48,0,0,1,.4.06l13.27,8.56a.5.5,0,0,1-.54.84l-12.8-8.25-4.22,8.57A.51.51,0,0,1,306.2,395.89Z" style="fill:#263238"></path><line x1="307.89" y1="391.96" x2="313.64" y2="390.65" style="fill:#fff"></line><path d="M307.89,392.46a.5.5,0,0,1-.11-1l5.75-1.32a.5.5,0,0,1,.22,1L308,392.45Z" style="fill:#263238"></path><line x1="312.16" y1="393.62" x2="319.15" y2="392.01" style="fill:#fff"></line><path d="M312.16,394.12a.5.5,0,0,1-.11-1l7-1.6a.48.48,0,0,1,.6.37.5.5,0,0,1-.37.6l-7,1.61Z" style="fill:#263238"></path><line x1="308.16" y1="397.29" x2="316.74" y2="395.32" style="fill:#fff"></line><path d="M308.16,397.79a.49.49,0,0,1-.48-.38.5.5,0,0,1,.37-.6l8.57-2a.5.5,0,1,1,.23,1l-8.57,2Z" style="fill:#263238"></path><path d="M320.92,391s1.63-.59,1.81-1.13-.87-3.42-.13-4.18,2.62-.3,2.88-.06a8.65,8.65,0,0,1,1.3,2.75c0,.56-1,.88-1,.88" style="fill:#fff"></path><path d="M320.92,391.51a.52.52,0,0,1-.48-.33.51.51,0,0,1,.31-.64,4.23,4.23,0,0,0,1.51-.83,8.13,8.13,0,0,0-.17-1c-.23-1.24-.5-2.65.15-3.32.95-1,3.12-.5,3.58-.08a8.36,8.36,0,0,1,1.46,3.12c0,.87-1.1,1.28-1.32,1.36a.51.51,0,0,1-.63-.32.5.5,0,0,1,.31-.63,1.3,1.3,0,0,0,.64-.41,9.09,9.09,0,0,0-1.15-2.39c-.23-.14-1.7-.45-2.17,0-.29.3,0,1.75.12,2.44a3.47,3.47,0,0,1,.12,1.55c-.23.71-1.56,1.25-2.12,1.45A.45.45,0,0,1,320.92,391.51Z" style="fill:#263238"></path><path d="M326.43,389s1.55,3.77,1.85,3.7a1.4,1.4,0,0,1,1.88.79" style="fill:#fff"></path><path d="M330.16,393.94a.51.51,0,0,1-.48-.33c-.18-.53-.51-.66-1.22-.49-.5.12-.78.18-2.5-4a.5.5,0,0,1,.93-.39,34,34,0,0,0,1.55,3.36,1.74,1.74,0,0,1,2.19,1.17.51.51,0,0,1-.31.64A.47.47,0,0,1,330.16,393.94Z" style="fill:#263238"></path><path d="M325,391.38s.42,1.53,1.22,1.75,1.18.24,1.41.91" style="fill:#fff"></path><path d="M327.6,394.54a.52.52,0,0,1-.48-.34c-.1-.32-.17-.35-.79-.51l-.27-.07c-1-.29-1.49-1.8-1.58-2.1a.52.52,0,0,1,.35-.62.51.51,0,0,1,.62.35c.14.51.52,1.3.88,1.4l.26.07c.64.17,1.2.31,1.48,1.16a.5.5,0,0,1-.31.63A.45.45,0,0,1,327.6,394.54Z" style="fill:#263238"></path><polygon points="310.73 400.9 330.26 396.3 329.37 403.08 315.67 406.68 310.73 400.9" style="fill:#92E3A9"></polygon><path d="M297.33,322.79l4.1-2a1,1,0,0,0,.38-1.51l-1.34-2.19a1.32,1.32,0,0,0-1.63-.54l-.54.26a1.3,1.3,0,0,1-1.63-.53l-3.91-6.45a1.28,1.28,0,0,0-1.6-.52l-1.5.7h0l-4.72,2.21h0l-7.41,3.46h0l-3.83,1.79a1.05,1.05,0,0,0-.53,1.34l.24.63a3.81,3.81,0,0,0-1.86-.49,4.92,4.92,0,0,0-2.14.53l-1.69.79h0l-6.78,3.17a1.09,1.09,0,0,0-.49,1.53h0a5.44,5.44,0,0,0-2-.39,5,5,0,0,0-1.79.33,5.83,5.83,0,0,0-2.7,2.21,1.15,1.15,0,0,1-1.06.46c-.24,0-.49,0-.73,0a6,6,0,0,0-2.78.64,4.86,4.86,0,0,0-2.6,4l-.34-.66a1.23,1.23,0,0,0-1.61-.56l-2.46,1.14a1.15,1.15,0,0,0-.54,1.58l5.8,11.56a1.27,1.27,0,0,0,1.66.59l2.5-1.21a1.18,1.18,0,0,0,.52-1.62l-.45-.87a1.18,1.18,0,0,1,1.46-1.66,24.15,24.15,0,0,0,5.31,1.19l1.05.12h.14a2,2,0,0,0,1.66-.87l.51-.8c1.75-2.76,3.62-6.77,2.71-10.34a6.89,6.89,0,0,0-1-2.2l.2-.1,4.3,7.91a1.27,1.27,0,0,0,1.64.57l3.48-1.67h0l4.79-2.3h0l4.39-2.11-.1-.25.16.22,4.51-2.16h0l3.45-1.66h0l6.78-3.26Z" style="fill:#fff"></path><path d="M248.81,346.47a1.78,1.78,0,0,1-1.59-1l-5.8-11.56a1.7,1.7,0,0,1-.09-1.29,1.65,1.65,0,0,1,.87-1l2.46-1.15a1.74,1.74,0,0,1,1.93.33,5.2,5.2,0,0,1,2.6-3.1,7,7,0,0,1,3.79-.65.62.62,0,0,0,.6-.25,6.31,6.31,0,0,1,2.93-2.39,5.48,5.48,0,0,1,3.31-.2,2.06,2.06,0,0,1,.07-.32,1.6,1.6,0,0,1,.84-.93l8.47-4a5,5,0,0,1,3.41-.43,1.55,1.55,0,0,1,.88-1.57L291,308.88a1.79,1.79,0,0,1,2.24.72l3.91,6.45a.8.8,0,0,0,1,.34l.55-.26a1.79,1.79,0,0,1,2.26.73l1.35,2.19a1.69,1.69,0,0,1,.19,1.31,1.47,1.47,0,0,1-.78.91l-31.56,15.16a1.77,1.77,0,0,1-2.3-.78l-2.32-4.28c.13,3.26-1.5,6.63-3,9-.2.32-.37.59-.52.81a2.49,2.49,0,0,1-2.07,1.09h-.15l-1.1-.13a24.57,24.57,0,0,1-5.42-1.21.69.69,0,0,0-.76.18.68.68,0,0,0-.08.78l.44.87a1.7,1.7,0,0,1,.11,1.34,1.68,1.68,0,0,1-.86,1l-2.5,1.2A1.69,1.69,0,0,1,248.81,346.47Zm-3.43-15.1a.63.63,0,0,0-.3.07l-2.46,1.15a.65.65,0,0,0-.34.37.63.63,0,0,0,0,.52l5.8,11.56a.76.76,0,0,0,1,.37l2.5-1.2a.69.69,0,0,0,.34-.39.71.71,0,0,0,0-.57l-.44-.87a1.66,1.66,0,0,1,.22-1.89,1.68,1.68,0,0,1,1.85-.46,23,23,0,0,0,5.2,1.16l1,.12h.11a1.46,1.46,0,0,0,1.22-.65c.14-.21.31-.47.5-.78,1.69-2.67,3.52-6.56,2.65-10a6.38,6.38,0,0,0-.93-2l-.34-.48,1.17-.55,4.52,8.32a.77.77,0,0,0,1,.36l12.23-5.87-1.23-3.1,2.08,2.69,18.47-8.88a.47.47,0,0,0,.26-.29.61.61,0,0,0-.09-.5l-1.34-2.2a.8.8,0,0,0-1-.34l-.55.26a1.8,1.8,0,0,1-2.26-.73l-3.92-6.45a.79.79,0,0,0-1-.33L273.91,318a.53.53,0,0,0-.27.7l.73,1.93-1.2-.68a3.7,3.7,0,0,0-3.54,0l-8.48,4a.59.59,0,0,0-.31.35.65.65,0,0,0,.05.49l.65,1.2-1.27-.49a4.55,4.55,0,0,0-3.4-.06,5.27,5.27,0,0,0-2.47,2,1.64,1.64,0,0,1-1.52.68,5.8,5.8,0,0,0-3.23.54,4.39,4.39,0,0,0-2.33,3.61l-.17,1.69L246,331.78A.75.75,0,0,0,245.38,331.37Z" style="fill:#263238"></path><path d="M243.55,333.42l1.66-.78,5.44,10.69-1.69.81Z" style="fill:#263238"></path><path d="M262.1,324.71l5-2.33.81,1.45-1.69.8,4.9,8.9-1.64.79-4.87-8.93-1.69.79Z" style="fill:#263238"></path><path d="M276.9,330.75a3.86,3.86,0,0,1-.87-1.21l-.92-1.63c-.53-1-1.05-1.16-1.79-.81l-.55.26,2.36,4.24-1.62.78-5.73-10.33,2.42-1.13c1.66-.78,2.8-.35,3.68,1.22l.45.79a2.18,2.18,0,0,1,.11,2.56l0,0c1,0,1.68.6,2.29,1.67l.9,1.6a3.78,3.78,0,0,0,.89,1.18Zm-6.7-8,1.75,3.14.63-.3c.6-.28.81-.72.35-1.54l-.56-1c-.41-.73-.84-.93-1.4-.66Z" style="fill:#263238"></path><path d="M284.61,327.06l-1.62.77-1.35-1.74-2,.94.79,2-1.48.71-4.17-11,2.32-1.09Zm-5.52-1.52,1.54-.74-3.7-4.78h0Z" style="fill:#263238"></path><path d="M286.27,323.85l0,0-3.6-8.77,1.43-.68,4.37,10.82-2.37,1.13-7.42-9.4,1.59-.75Z" style="fill:#263238"></path><path d="M288.9,317.5l2.15-1,.85,1.43-2.15,1,1.76,3,2.71-1.3.87,1.45-4.3,2.06L284.86,314l4.25-2,.84,1.41-2.69,1.26Z" style="fill:#263238"></path><path d="M290.07,311.6l1.54-.73,5.14,8.51,2.57-1.22.87,1.43-4.13,2Z" style="fill:#263238"></path><path d="M260.52,327.2c-2.72-1.72-5.09.48-5.6,3-2.43-1.21-5.75-.85-6,2.25-.5,5.31,6.7,6.78,10,7.16l.93.1.48-.76C261.94,336.32,265.14,330.13,260.52,327.2Z" style="fill:#92E3A9"></path><path d="M259.76,340.23h-.05c-.26,0-.57-.06-.94-.11-3.31-.38-10.94-1.91-10.39-7.69a3.42,3.42,0,0,1,1.74-2.84,5.38,5.38,0,0,1,4.46-.07,5,5,0,0,1,2.64-3.15,3.69,3.69,0,0,1,3.56.41h0a5.32,5.32,0,0,1,2.48,3.43c.71,3.2-1.32,7-2.6,9-.19.31-.35.56-.49.77A.49.49,0,0,1,259.76,340.23Zm-7.48-10.15a3.4,3.4,0,0,0-1.67.38,2.47,2.47,0,0,0-1.24,2.06c-.46,4.91,6.5,6.26,9.52,6.61l.61.07c.1-.14.2-.31.32-.49,1.19-1.87,3.1-5.43,2.46-8.29a4.32,4.32,0,0,0-2-2.8h0a2.78,2.78,0,0,0-2.64-.33,4.16,4.16,0,0,0-2.2,3,.5.5,0,0,1-.27.35.52.52,0,0,1-.44,0A5.51,5.51,0,0,0,252.28,330.08Z" style="fill:#263238"></path><path d="M250.11,401.78a5.28,5.28,0,0,1-5-4.71l-2.71-19.4a5,5,0,0,1,.89-3.69,4.51,4.51,0,0,1,3.11-1.88l19.43-2.52a3.69,3.69,0,0,1,.58,0,5.22,5.22,0,0,1,5,4.34l3.53,19.17a5.37,5.37,0,0,1-.73,3.92,4.45,4.45,0,0,1-3.15,2l-20.27,2.75A4.3,4.3,0,0,1,250.11,401.78Z" style="fill:#fff"></path><path d="M250.11,402.28a5.79,5.79,0,0,1-5.53-5.14l-2.71-19.4a5.63,5.63,0,0,1,1-4.06,5.08,5.08,0,0,1,3.46-2.08l19.42-2.52a5.68,5.68,0,0,1,6.11,4.71L275.38,393a5.87,5.87,0,0,1-.81,4.28,4.9,4.9,0,0,1-3.5,2.24l-20.28,2.76A5.07,5.07,0,0,1,250.11,402.28ZM266.38,370a4.53,4.53,0,0,0-.52,0l-19.42,2.53a4,4,0,0,0-2.78,1.67,4.63,4.63,0,0,0-.8,3.33l2.71,19.4a4.72,4.72,0,0,0,5.09,4.25l20.27-2.76a3.93,3.93,0,0,0,2.8-1.8,4.83,4.83,0,0,0,.66-3.55L270.86,374A4.72,4.72,0,0,0,266.38,370Z" style="fill:#263238"></path><path d="M270.65,397l-20.22,2.74a3.28,3.28,0,0,1-3.55-2.93l-2.76-19.39a3,3,0,0,1,2.52-3.51l19.48-2.54a3.25,3.25,0,0,1,3.5,2.72l3.48,19.18A3.06,3.06,0,0,1,270.65,397Z" style="fill:#fff"></path><path d="M250.05,400.29a3.84,3.84,0,0,1-3.67-3.39l-2.75-19.38a3.65,3.65,0,0,1,.7-2.78,3.35,3.35,0,0,1,2.24-1.31l19.48-2.54a3.77,3.77,0,0,1,4.06,3.13l3.48,19.18a3.89,3.89,0,0,1-.63,3,3.3,3.3,0,0,1-2.24,1.35h0l-20.22,2.74Zm16.43-28.43-.3,0-19.48,2.54a2.37,2.37,0,0,0-1.58.93,2.68,2.68,0,0,0-.5,2l2.75,19.38a2.8,2.8,0,0,0,3,2.51l20.21-2.74a2.31,2.31,0,0,0,1.57-.95,2.92,2.92,0,0,0,.46-2.2l-3.49-19.18A2.78,2.78,0,0,0,266.48,371.86ZM270.65,397h0Z" style="fill:#263238"></path><line x1="248.12" y1="391.19" x2="269.74" y2="388.06" style="fill:#fff"></line><path d="M248.12,391.69a.5.5,0,0,1-.07-1l21.62-3.12a.51.51,0,0,1,.56.42.5.5,0,0,1-.42.57l-21.61,3.12Z" style="fill:#263238"></path><path d="M269.18,389.59s-3.55.38-2.9,1.21-.62,1.8-2.87,2.06-2.78,2-3.3,2.26-4.73,1.75-6.12,1.42,1.5-1.42-.07-1.88-5.17-.58-4.77-1.22-1-1.25-1-1.25" style="fill:#fff"></path><path d="M254.46,397.09a2.46,2.46,0,0,1-.58-.06.91.91,0,0,1-.75-.58c-.14-.44.19-.79.49-1.1l.18-.2h0a20.58,20.58,0,0,0-2.14-.39c-1.82-.26-2.71-.41-3-.94a.66.66,0,0,1,0-.64,2.14,2.14,0,0,0-.77-.53.5.5,0,0,1,.4-.91c.19.08,1.12.51,1.33,1.18a1.07,1.07,0,0,1,0,.47,17.58,17.58,0,0,0,2.09.39,20,20,0,0,1,2.27.41,1.1,1.1,0,0,1,.82.68c.13.48-.24.87-.54,1.18l0,0c1.38.12,5-1.12,5.59-1.41a4.13,4.13,0,0,0,.31-.37,4.33,4.33,0,0,1,3.15-1.94c1.65-.19,2.44-.72,2.58-1a.19.19,0,0,0-.05-.21.79.79,0,0,1-.12-.8c.31-.74,2-1.07,3.36-1.22a.51.51,0,0,1,.56.45.5.5,0,0,1-.45.55,8.7,8.7,0,0,0-2.45.56,1.17,1.17,0,0,1,.07,1.06c-.35.83-1.62,1.44-3.39,1.64A3.39,3.39,0,0,0,261,394.9a2.06,2.06,0,0,1-.66.66A21.07,21.07,0,0,1,254.46,397.09Zm-.49-1.87Z" style="fill:#263238"></path><path d="M267.73,385.28s-2-7.23-4.34-8.3" style="fill:#fff"></path><path d="M267.73,385.78a.5.5,0,0,1-.48-.37c-.54-2-2.33-7.18-4.07-8a.5.5,0,0,1-.24-.67.49.49,0,0,1,.66-.24c2.47,1.13,4.4,7.85,4.61,8.61a.5.5,0,0,1-.34.62Z" style="fill:#263238"></path><path d="M262.22,376.81a1.72,1.72,0,0,0-2.11,1.31" style="fill:#fff"></path><path d="M260.11,378.62l-.14,0a.5.5,0,0,1-.34-.62,2.18,2.18,0,0,1,2.71-1.65.49.49,0,0,1,.36.6.5.5,0,0,1-.61.36,1.22,1.22,0,0,0-1.5,1A.5.5,0,0,1,260.11,378.62Z" style="fill:#263238"></path><path d="M262.56,375.61s-2.09-1-3.17-.61" style="fill:#fff"></path><path d="M262.56,376.11a.59.59,0,0,1-.22-.05,4.81,4.81,0,0,0-2.77-.6.49.49,0,0,1-.65-.28.5.5,0,0,1,.28-.64c1.26-.5,3.35.51,3.58.62a.5.5,0,0,1-.22.95Z" style="fill:#263238"></path><path d="M263.32,375.61s.48-1.83,1.82-1.83" style="fill:#fff"></path><path d="M263.32,376.11a.3.3,0,0,1-.13,0,.5.5,0,0,1-.36-.61c0-.09.6-2.2,2.3-2.2a.5.5,0,0,1,0,1c-.92,0-1.33,1.44-1.33,1.46A.5.5,0,0,1,263.32,376.11Z" style="fill:#263238"></path><path d="M264.3,376a3.82,3.82,0,0,1,2.46.72" style="fill:#fff"></path><path d="M266.76,377.26a.49.49,0,0,1-.3-.1,3.31,3.31,0,0,0-2.11-.62.5.5,0,0,1-.1-1,4.28,4.28,0,0,1,2.81.82.5.5,0,0,1,.1.7A.51.51,0,0,1,266.76,377.26Z" style="fill:#263238"></path><path d="M247.47,385.28c.35-.31,2.46-6,3.71-5.62s4.18,3.37,5.18,3.52,3.56,3.05,3.56,3.05" style="fill:#fff"></path><path d="M259.92,386.73a.51.51,0,0,1-.37-.17c-1.17-1.32-2.75-2.8-3.26-2.88a8.24,8.24,0,0,1-2.79-1.82,12.62,12.62,0,0,0-2.47-1.73c-.39.07-1.23,1.45-2.47,4.12a5.25,5.25,0,0,1-.75,1.4.5.5,0,0,1-.7-.72,11.32,11.32,0,0,0,.54-1.1c1.33-2.86,2.45-5,3.67-4.65a11.19,11.19,0,0,1,2.8,1.9,11,11,0,0,0,2.32,1.61c1.1.17,3.23,2.5,3.86,3.21a.49.49,0,0,1-.05.7A.46.46,0,0,1,259.92,386.73Z" style="fill:#263238"></path><path d="M258.66,383.18a3.52,3.52,0,0,1,1-1.34c.63-.37,4.71,3.3,5.37,3.44" style="fill:#fff"></path><path d="M265.08,385.78l-.11,0a8.2,8.2,0,0,1-2.16-1.44,18.33,18.33,0,0,0-2.93-2,3,3,0,0,0-.76,1.06.5.5,0,0,1-.92-.41,3.85,3.85,0,0,1,1.26-1.57c.58-.34,1.41.17,4,2.12a16.2,16.2,0,0,0,1.78,1.26.5.5,0,0,1,.38.59A.51.51,0,0,1,265.08,385.78Z" style="fill:#263238"></path><path d="M246.3,383.54l-.89-6a2.17,2.17,0,0,1,1.81-2.53l12.1-1.45s-1.47,1-1.67,1.71S260,376,260,376s-1.33,1.22-1.12,2.09.95,1.74,1.3,1.52,1.64-2.39,2.5-1.52,3.29,6.1,3.29,6.1-4.15-2.37-5.41-2.93-2.84.94-2.84.94-2.93.11-4.24-1.88-3-2.53-4.27-1.52S246.3,383.54,246.3,383.54Z" style="fill:#92E3A9;opacity:0.6000000000000001"></path><path d="M260.34,373.05a11.79,11.79,0,0,1,2.15,1.28s1.73-1.83,2.83-1.67,1.87,1.49,1.3,1.67a5.7,5.7,0,0,0-1.17.57s2.24.87,2.3,1.86-1.28,1-1.63,1c0,0,2.71,6.2,3,8.46l1.58-.32-2-11.79a2.21,2.21,0,0,0-2.38-1.86Z" style="fill:#92E3A9;opacity:0.6000000000000001"></path><path d="M250.17,391.7l19-3s-3.92,1-3.77,1.5.32,1.56-1.17,1.5-4.3,1.22-4.36,1.8-4,2.46-4.37,2.07.78-1.42-.25-1.81-4.66.17-4.75-.69A6.13,6.13,0,0,0,250.17,391.7Z" style="fill:#92E3A9;opacity:0.6000000000000001"></path><path d="M325.36,345.13l-14.88-9.93a2.51,2.51,0,0,1-1-3.34l1.72-2.75a2.33,2.33,0,0,1,3.3-.49l14.8,9.73a2.63,2.63,0,0,1,1.06,3.4l-1.67,2.87A2.33,2.33,0,0,1,325.36,345.13Z" style="fill:#fff"></path><path d="M326.92,346.12a3.27,3.27,0,0,1-1.83-.58l-14.89-9.93a3,3,0,0,1-1.09-4l1.72-2.75a2.5,2.5,0,0,1,1.61-1.12,3.22,3.22,0,0,1,2.39.48l14.79,9.73a3.15,3.15,0,0,1,1.22,4.08l-1.67,2.86a2.46,2.46,0,0,1-1.61,1.17A2.8,2.8,0,0,1,326.92,346.12Zm-13.86-17.46a1.75,1.75,0,0,0-.4,0,1.55,1.55,0,0,0-1,.67L310,332.12a2,2,0,0,0,.79,2.66l14.89,9.93h0a2.15,2.15,0,0,0,1.69.36,1.49,1.49,0,0,0,1-.7L330,341.5a2.15,2.15,0,0,0-.91-2.74L314.28,329A2.24,2.24,0,0,0,313.06,328.66Z" style="fill:#263238"></path><path d="M311.61,333.09c.79-1.25,1.95-2.84,1.95-2.84s1.65,2,2.16,2.13.82-.23,1.86.26.34.29,1.95,1.68a11.47,11.47,0,0,0,4.35,2.45c.71.07,1.27-.58,1.92.39s1.69,2.41,1.69,2.41l.22,1.38-1.51,2s-3.15-1.52-3-2.65-2.64-1.45-2.64-1.45-1.83.37-2.12-.48a10.05,10.05,0,0,0-1.34-2.12h1.67l-1.94-1.89-3.49.58Z" style="fill:#92E3A9;opacity:0.6000000000000001"></path><path d="M314.43,334.82a.53.53,0,0,1-.38-.18,4.65,4.65,0,0,0-1.13-1.06.45.45,0,0,1-.44-.26c-.13-.21-.33-.53,1-2.89a.5.5,0,0,1,.87.5,15.76,15.76,0,0,0-.9,1.81,5.76,5.76,0,0,1,1.36,1.25.51.51,0,0,1-.07.71A.47.47,0,0,1,314.43,334.82Z" style="fill:#263238"></path><path d="M318,334l-.12,0a.76.76,0,0,1-.48-.55.33.33,0,0,0-.22-.05c-.15,0-.28.18-.45.37a.5.5,0,0,1-.75-.67,1.91,1.91,0,0,1,1-.68,1.22,1.22,0,0,1,1.36.66l.1.07a.5.5,0,0,1,0,.71A.6.6,0,0,1,318,334Z" style="fill:#263238"></path><path d="M319.78,338.83a.78.78,0,0,1-.48-.17A.89.89,0,0,1,319,338a1.2,1.2,0,0,1,.34-.8,5.75,5.75,0,0,1,1.08-.95,4.27,4.27,0,0,1-.83-1l-.06-.11c-.17.09-.3.14-.44.2a2.51,2.51,0,0,0-.59.31.44.44,0,0,0-.18.51.5.5,0,1,1-.86.5,1.41,1.41,0,0,1,.42-1.8,3.18,3.18,0,0,1,.83-.44l.39-.18a1,1,0,0,1,.54-.14,1.13,1.13,0,0,1,.82.65,3.42,3.42,0,0,0,1.12,1.15.48.48,0,0,1,.23.44.52.52,0,0,1-.27.43,4.92,4.92,0,0,0-1.45,1.11v0a.51.51,0,0,1,.27.35.49.49,0,0,1-.38.59A.34.34,0,0,1,319.78,338.83Z" style="fill:#263238"></path><path d="M323.1,340.67a.5.5,0,0,1-.43-.25.48.48,0,0,1,.17-.68c.3-.18.4-.64.52-1.13l.09-.38a.77.77,0,0,1,.37-.52.89.89,0,0,1,.85.07l2,1.07a.51.51,0,0,1,.2.68.49.49,0,0,1-.67.2l-1.84-1s0,.06,0,.09a2.53,2.53,0,0,1-1,1.76A.59.59,0,0,1,323.1,340.67Z" style="fill:#263238"></path><path d="M324.79,343.25a.49.49,0,0,1-.49-.41,1.37,1.37,0,0,1,.62-1.37,3.18,3.18,0,0,1,1.14-.42.52.52,0,0,1,.6.39.51.51,0,0,1-.39.59,2.45,2.45,0,0,0-.79.26.43.43,0,0,0-.2.38.48.48,0,0,1-.4.57Z" style="fill:#263238"></path><path d="M286.52,219.63c-.85.56-3.53-.28-3.53-.28s-3,1.88-5.57,1.64c0,0-1.34,1.72-5.73-1.11A2.48,2.48,0,0,1,268,221.4c-2.9-1.26-4.44-5.89-2.49-6.85,2.33-1.15,4.53,1.26,4.53,1.26a3.13,3.13,0,0,1,2.7-2.41,5.32,5.32,0,0,1,3.1,1s.07-1,1.61-1a4,4,0,0,1,3.38,2.13s.43-2.13,1.8-2.13a4.47,4.47,0,0,1,3.84,2.69" style="fill:#fff"></path><path d="M269.42,222.22a4,4,0,0,1-1.59-.36,6.7,6.7,0,0,1-3.66-5.48,2.28,2.28,0,0,1,1.15-2.28,4.21,4.21,0,0,1,4.54.84,3.45,3.45,0,0,1,2.87-2,5.35,5.35,0,0,1,2.91.78,2.08,2.08,0,0,1,1.85-.78,4.23,4.23,0,0,1,3.22,1.53,2.26,2.26,0,0,1,2-1.53,5,5,0,0,1,4.31,3,.5.5,0,0,1-.93.39,3.93,3.93,0,0,0-3.38-2.38c-.92,0-1.31,1.71-1.31,1.73a.51.51,0,0,1-.43.4.48.48,0,0,1-.51-.29,3.45,3.45,0,0,0-2.94-1.84c-1,0-1.09.47-1.1.57a.54.54,0,0,1-.3.4.5.5,0,0,1-.5-.05,4.81,4.81,0,0,0-2.76-.92,2.61,2.61,0,0,0-2.25,2,.5.5,0,0,1-.36.37.52.52,0,0,1-.5-.14s-2-2.12-3.94-1.15a1.38,1.38,0,0,0-.59,1.35,5.68,5.68,0,0,0,3.05,4.59,2.35,2.35,0,0,0,1.92.13,2.29,2.29,0,0,0,1.07-1.33.52.52,0,0,1,.3-.33.51.51,0,0,1,.45.05c3.86,2.49,5.07,1.22,5.08,1.21a.57.57,0,0,1,.43-.18c2.36.22,5.23-1.55,5.26-1.57a.54.54,0,0,1,.41,0c1.18.37,2.7.6,3.11.34a.5.5,0,0,1,.69.15.49.49,0,0,1-.15.69c-.89.58-3,.07-3.73-.16a10.91,10.91,0,0,1-5.45,1.61c-.55.45-2.17,1.22-5.69-.89a3,3,0,0,1-1.35,1.36A2.61,2.61,0,0,1,269.42,222.22Z" style="fill:#263238"></path><path d="M264.07,200.53c-.83,5.13-5.76,10.18-6.12,12.87s4.72,4.92,5.62,5.11,3.94,2.42,5,0-4.37-3.54-4.37-3.54,8.09-2.38,8.55-4.26c0,0,7,2.63,11.42,0s1.74-5.62-5.71-10.18" style="fill:#fff"></path><path d="M266.92,220.13a6.91,6.91,0,0,1-2.71-.82,4.45,4.45,0,0,0-.75-.31c-1-.2-6.42-2.55-6-5.67.17-1.26,1.19-2.88,2.36-4.76,1.55-2.47,3.31-5.28,3.77-8.12a.5.5,0,0,1,.57-.41.49.49,0,0,1,.41.57c-.48,3-2.38,6.06-3.9,8.49-1.12,1.78-2.08,3.32-2.22,4.36-.29,2.21,4.31,4.37,5.23,4.56a5.37,5.37,0,0,1,1,.38c.8.38,2,.94,2.78.65a1.28,1.28,0,0,0,.7-.74.9.9,0,0,0,0-.83c-.57-1.1-3.08-1.83-4-2a.5.5,0,0,1,0-1c3.76-1.1,8-2.91,8.2-3.9a.49.49,0,0,1,.26-.32.49.49,0,0,1,.41,0c.06,0,6.81,2.51,11,0,1.27-.76,1.89-1.51,1.9-2.32,0-2.06-4.07-4.83-7.62-7a.5.5,0,0,1-.16-.69.49.49,0,0,1,.68-.16c5.77,3.52,8.11,5.8,8.1,7.86,0,1.18-.79,2.22-2.39,3.17-4,2.37-9.82.72-11.43.18-1,1.45-4.76,2.86-7.05,3.63a5.52,5.52,0,0,1,3,2.07,1.89,1.89,0,0,1,0,1.69,2.25,2.25,0,0,1-1.26,1.27A2.33,2.33,0,0,1,266.92,220.13Z" style="fill:#263238"></path><path d="M283,219.85a.5.5,0,0,1-.3-.11,6.84,6.84,0,0,1-2.33-4.15.51.51,0,0,1,.43-.56.52.52,0,0,1,.57.43A5.81,5.81,0,0,0,283.3,219a.5.5,0,0,1,.09.7A.51.51,0,0,1,283,219.85Z" style="fill:#263238"></path><path d="M277.29,220.13a.51.51,0,0,1-.43-.25c-.08-.13-2-3.36-1.48-5.57a.5.5,0,0,1,1,.22c-.41,1.82,1.35,4.81,1.36,4.85a.49.49,0,0,1-.17.68A.48.48,0,0,1,277.29,220.13Z" style="fill:#263238"></path><path d="M271.69,220.38a.47.47,0,0,1-.25-.07c-1.82-1-1.87-4.36-1.87-4.5a.5.5,0,0,1,.5-.5.51.51,0,0,1,.5.49c0,.81.27,3,1.37,3.64a.51.51,0,0,1,.19.68A.51.51,0,0,1,271.69,220.38Z" style="fill:#263238"></path><path d="M181.25,203.67c-.19,1.42-.46,2.87-.8,4.36-5,22.1-11.06,36.16-11.06,36.16s1.89,14.06-16.57,14.32-22.53-20.4-16.58-40.68c0,0,3.52-18.74,11.3-31.08,3.08-4.91,6.84-8.8,11.31-10.12C173.52,172.31,184,184.13,181.25,203.67Z" style="fill:#757575"></path><path d="M152.48,259c-6.14,0-11-2.25-14.33-6.69-5.58-7.35-6.5-20.62-2.39-34.63,0-.14,3.62-18.93,11.36-31.21,3.53-5.62,7.43-9.1,11.59-10.33,6.29-1.85,12.12-.83,16.41,2.87,5.72,4.93,8.13,13.94,6.63,24.72-.19,1.4-.46,2.84-.81,4.4a235.52,235.52,0,0,1-11,36.12,13.2,13.2,0,0,1-3,9.54c-2.9,3.37-7.63,5.12-14.07,5.21Zm12.19-82.76a20,20,0,0,0-5.68.86c-3.92,1.16-7.63,4.49-11,9.91-7.64,12.11-11.19,30.72-11.23,30.9-4,13.76-3.18,26.69,2.22,33.8,3.23,4.25,7.87,6.38,13.86,6.29s10.63-1.72,13.34-4.86a12.33,12.33,0,0,0,2.74-8.89.63.63,0,0,1,0-.27c.06-.14,6.07-14.28,11-36.07.35-1.53.61-2.94.79-4.32h0c1.46-10.44-.83-19.12-6.28-23.82A14.69,14.69,0,0,0,164.67,176.25Z" style="fill:#263238"></path><g style="clip-path:url(#freepik--clip-path-9--inject-161)"><path d="M181.25,203.67c-3.18,9.51-10.19,16.57-19.22,15.68-13.56-1.33-16.72-19.11-14.49-32.6,3.08-4.91,6.84-8.8,11.31-10.12C173.52,172.31,184,184.13,181.25,203.67Z" style="fill:#fff;opacity:0.2"></path><path d="M169.39,244.19s1.89,14.06-16.57,14.32c-.49,0-1,0-1.43,0-2.07-1.56-4-3.19-5.61-4.67-9.14-8.17-5.37-8.7-2.45-7.38s18.18-2.64,12-5.18-14-18.4-11.47-21.37,14.76,12,20.53,12.07c3.47,0,9-6.33,12.92-11.4A205.38,205.38,0,0,1,169.39,244.19Z" style="opacity:0.2"></path></g><path d="M166,221.54a18.22,18.22,0,0,1-6.34-1.21c-11.85-4.39-15.88-13.51-13.91-31.49a.5.5,0,0,1,.55-.44.5.5,0,0,1,.44.55c-1.9,17.43,1.94,26.24,13.26,30.44,4.75,1.76,9.17,1.5,12.81-.76,4.87-3,7.09-8.61,7.5-12.49a.49.49,0,0,1,.55-.44.51.51,0,0,1,.45.55c-.44,4.1-2.79,10-8,13.23A13.71,13.71,0,0,1,166,221.54Z" style="fill:#263238"></path><path d="M149.3,256a.49.49,0,0,1-.4-.21.5.5,0,0,1,.11-.7c2-1.48,2-7.89,2-12.57,0-1.46,0-2.83.05-3.88.26-4.56,5.93-17.34,6.17-17.88a.5.5,0,0,1,.66-.26.51.51,0,0,1,.26.66c-.06.13-5.85,13.16-6.09,17.54-.06,1-.05,2.38-.05,3.81,0,5.17,0,11.61-2.41,13.39A.54.54,0,0,1,149.3,256Z" style="fill:#263238"></path><path d="M155.33,256a.5.5,0,0,1-.38-.82c1.59-1.91.8-8.92.28-13.56a36.48,36.48,0,0,1-.4-5.25c.26-3.07,5.6-14.4,5.82-14.88a.5.5,0,0,1,.67-.24.49.49,0,0,1,.24.66c-.06.12-5.49,11.65-5.73,14.54a36.59,36.59,0,0,0,.39,5.06c.61,5.38,1.36,12.07-.51,14.31A.53.53,0,0,1,155.33,256Z" style="fill:#263238"></path><path d="M153.94,251.66a19.77,19.77,0,0,1-6.05-1,.51.51,0,0,1-.32-.63.5.5,0,0,1,.63-.32c12.08,3.87,20.73-5.79,20.82-5.89a.5.5,0,0,1,.7,0,.49.49,0,0,1,.05.7C169.7,244.61,163.39,251.66,153.94,251.66Z" style="fill:#263238"></path><path d="M159.59,239.21c-10.5,0-18.42-15.45-18.77-16.14a.49.49,0,0,1,.22-.67.5.5,0,0,1,.67.22c.09.17,8.75,17.07,19.32,15.48a.51.51,0,0,1,.57.42.5.5,0,0,1-.42.57A10.84,10.84,0,0,1,159.59,239.21Z" style="fill:#263238"></path><path d="M158.72,216.29a.39.39,0,0,1-.15,0c-8.56-2.74-11.73-15.84-9.76-26.42a16.64,16.64,0,0,1,12.2-13.2.5.5,0,0,1,.59.39.51.51,0,0,1-.39.59A15.38,15.38,0,0,0,149.79,190c-1.89,10.19,1.3,22.79,9.08,25.28a.5.5,0,0,1,.33.63A.5.5,0,0,1,158.72,216.29Z" style="fill:#263238"></path><path d="M168.14,216a.49.49,0,0,1-.5-.49.5.5,0,0,1,.49-.51,10.45,10.45,0,0,0,8.14-3.6c5.33-6.23,3.7-18.51,3.68-18.63a.5.5,0,1,1,1-.14c.07.52,1.71,12.84-3.91,19.42a11.44,11.44,0,0,1-8.88,3.95Z" style="fill:#263238"></path><path d="M164.37,191.45c16.34-39.17,16.08-73.59,30.39-91.68,0,0,3.45-1,5.87,0,0,0-9.84,15.33-13.13,27.89s-9.82,49-18.11,65.05" style="fill:#757575"></path><path d="M169.39,193.21a.46.46,0,0,1-.22-.06.49.49,0,0,1-.22-.67c6.21-12,11.54-36.06,15.06-51.95,1.18-5.31,2.2-9.89,3-13,2.93-11.17,11.09-24.66,12.85-27.49a10.44,10.44,0,0,0-4.82.17c-7.64,9.75-11.16,24.62-15.24,41.81-3.52,14.87-7.51,31.72-15,49.62a.5.5,0,0,1-.92-.38c7.44-17.83,11.42-34.64,14.93-49.47,4.12-17.39,7.68-32.4,15.53-42.33a.49.49,0,0,1,.25-.17c.15,0,3.65-1.06,6.2,0a.51.51,0,0,1,.23.73c-.1.15-9.83,15.41-13.06,27.75-.81,3.08-1.83,7.66-3,13-3.54,15.94-8.88,40-15.15,52.19A.5.5,0,0,1,169.39,193.21Z" style="fill:#263238"></path><g style="clip-path:url(#freepik--clip-path-10--inject-161)"><path d="M164.37,191.45c16.34-39.17,16.08-73.59,30.39-91.68,0,0,3.45-1,5.87,0,0,0-9.84,15.33-13.13,27.89s-9.82,49-18.11,65.05" style="fill:#fff;opacity:0.2"></path></g><path d="M204.35,62.11c6.48-9.8,19.67-12.43,30.22-4.52s9.65,32.4,20.27,37.29,19.81-4.64,25,5c0,0-7-5.78-14.14,1.38-5.69,5.68-13,2.78-13,2.78s3.51,6.64,15.79,3.62c0,0-8.51,12.56-26.71,11.68-16-.77-24.26-9.42-24.26-9.42s0,8,11.44,13.24c0,0-9.67,2.08-20.47-8.09-9.12-8.58-7.79-17.58-7.79-17.58s-8.32,7.16,0,15.82c0,0-10.54-1-11.16-10.92-.37-5.72,6.28-12.06,7.41-17.33,0,0-17.08,7.45-18.21,14.82a6.71,6.71,0,0,0,4.33,7.78c-6.84,1.38-16.14-10.62,0-19.62s12.75-16.5,15.57-20.85S204.35,62.11,204.35,62.11Z" style="fill:#263238"></path><path d="M240.29,135.8a.51.51,0,0,1-.31-.11c-3.84-3-6.77-13.11-6.89-13.54a.5.5,0,1,1,1-.28c0,.11,3,10.23,6.55,13a.5.5,0,0,1-.31.9Z" style="fill:#263238"></path><path d="M194.41,134a.49.49,0,0,1-.5-.49.5.5,0,0,1,.49-.51c2.1,0,6.78-8.81,9.24-14.34a.5.5,0,0,1,.92.41c-1.11,2.48-6.79,14.87-10.14,14.93Z" style="fill:#263238"></path><path d="M203.09,158.71h-.31a.5.5,0,0,1-.48-.52.5.5,0,0,1,.52-.48h.28c9.07,0,24.59-18.05,24.75-18.23a.5.5,0,1,1,.76.65C228,140.9,212.63,158.71,203.09,158.71Z" style="fill:#263238"></path><path d="M233.57,169a.5.5,0,0,1-.45-.28,34,34,0,0,0-8.36-10.13.5.5,0,0,1-.09-.7.51.51,0,0,1,.71-.09A34.47,34.47,0,0,1,234,168.3a.5.5,0,0,1-.23.67A.54.54,0,0,1,233.57,169Z" style="fill:#263238"></path><path d="M193.53,171.17a.52.52,0,0,1-.38-.17.51.51,0,0,1,.06-.71c.33-.28,8.31-6.85,21-5.06,12.51,1.76,14.23,3.75,14.38,4a.5.5,0,0,1-.82.57c0-.05-1.75-1.87-13.7-3.55a27.42,27.42,0,0,0-20.27,4.84A.48.48,0,0,1,193.53,171.17Z" style="fill:#263238"></path><g style="opacity:0.2"><path d="M236.69,105.33a34.12,34.12,0,0,1-22.51-8.8c-10.1-9.09-11.1-19.29-11.06-23.26,0-4.32,1.25-8,3.16-9.69a.5.5,0,0,1,.65.76c-1.67,1.45-2.77,5-2.81,8.94,0,3.83.93,13.69,10.73,22.51,9,8.09,20.53,9.75,28,7.8,3.41-.9,5.74-2.51,6.39-4.43a.5.5,0,0,1,.63-.32.5.5,0,0,1,.31.64c-.75,2.24-3.33,4.1-7.08,5.08A25.21,25.21,0,0,1,236.69,105.33Z" style="fill:#fff"></path><path d="M215.51,115.59a.59.59,0,0,1-.25-.07c-13.55-8.2-10.5-25.15-10.47-25.32a.5.5,0,0,1,1,.19c0,.16-2.95,16.44,10,24.27a.5.5,0,0,1,.17.69A.51.51,0,0,1,215.51,115.59Z" style="fill:#fff"></path><path d="M259.35,98.81c-11.47,0-17-14.56-21.23-25.51-1.77-4.63-3.3-8.63-5-10.93A12.75,12.75,0,0,0,224,56.94a17.07,17.07,0,0,0-12.74,4.19.5.5,0,0,1-.71,0,.49.49,0,0,1,0-.7A18.15,18.15,0,0,1,224.07,56,13.72,13.72,0,0,1,234,61.78c1.73,2.41,3.28,6.47,5.08,11.17,4.79,12.54,10.76,28.16,24.37,24.25a.5.5,0,0,1,.28,1A15.85,15.85,0,0,1,259.35,98.81Z" style="fill:#fff"></path><path d="M240.3,100.75c-5.25,0-9.34-3.87-14.06-10.15-2.36-3.15-3.45-7.89-4.51-12.47-1.46-6.38-2.85-12.4-7.35-13.69a.48.48,0,0,1-.34-.61.5.5,0,0,1,.61-.35c5.07,1.45,6.52,7.75,8.06,14.42,1,4.48,2.1,9.12,4.33,12.1,5.77,7.68,10.51,11.59,17.68,8.85a.5.5,0,0,1,.65.29.49.49,0,0,1-.29.64A13.23,13.23,0,0,1,240.3,100.75Z" style="fill:#fff"></path><path d="M249.61,114.73c-10.92,0-20.06-6-20.18-6.08a.51.51,0,0,1-.14-.7.5.5,0,0,1,.7-.13c.15.1,15.33,10.05,29.68,3.91a.5.5,0,0,1,.4.92A26.47,26.47,0,0,1,249.61,114.73Z" style="fill:#fff"></path><path d="M187.5,88.65a.5.5,0,0,1-.46-.3.51.51,0,0,1,.27-.66c15-6.33,11.63-15,11.48-15.4a.51.51,0,0,1,.27-.65.49.49,0,0,1,.65.27c0,.09,4,10-12,16.71A.69.69,0,0,1,187.5,88.65Z" style="fill:#fff"></path></g></g></svg>